<?xml version="1.0" standalone="no"?>
<!DOCTYPE svg PUBLIC "-//W3C//DTD SVG 1.1//EN" "http://www.w3.org/Graphics/SVG/1.1/DTD/svg11.dtd" >
<svg xmlns="http://www.w3.org/2000/svg">
<metadata>
This is a custom SVG webfont generated by Font Squirrel.
Copyright   : C 2006 Microsoft Corporation All Rights Reserved
Foundry     : Microsoft Corporation
Foundry URL : httpwwwmicrosoftcomtypography
</metadata>
<defs>
<font id="webfontk1BF2zmP" horiz-adv-x="637" >
<font-face units-per-em="2048" ascent="1638" descent="-410" />
<missing-glyph horiz-adv-x="819" />
<glyph unicode="&#xfb01;" horiz-adv-x="1493" d="M1328 1445q0 -9 -2 -18.5t-8.5 -23t-18.5 -33.5l-31 -49l-20 -12q-12 -7 -25.5 -13t-26 -10t-20.5 -4q-46 0 -68 39q3 16 13 36.5t22.5 41.5t26.5 40t26 31q33 35 59 35q13 0 26 -5.5t23.5 -14t17 -19t6.5 -21.5zM1840 704q0 -16 -12.5 -41.5t-29.5 -52.5l-36 -50 l-28 -37q-37 -44 -83 -94t-97.5 -99.5t-106.5 -94.5t-110.5 -80t-109 -55.5t-101.5 -20.5q-47 1 -75.5 20.5t-45 51.5t-22 74t-5.5 87q0 22 4 73l10 109l10 108q4 51 5 73q0 19 -1.5 30t-3.5 22q-63 -11 -139 -23t-154 -22.5t-153.5 -18t-137.5 -10.5v-57t-2 -74l-3 -84 l-4 -85q-6 -145 -15.5 -275t-25 -237.5t-40.5 -188.5t-62 -129q-7 -9 -18.5 -16.5t-24.5 -13t-27 -8.5t-26 -3q-60 0 -98 44q-37 43 -37 105q0 17 22 17q14 0 33.5 -6.5t30.5 -6.5q34 0 54.5 27.5t32.5 65.5t17 78l8 63q19 179 25 369.5t7 403.5q-30 -3 -42 -4.5t-21 -1.5 t-23 0.5t-47 0.5q-15 0 -33.5 3t-34.5 10t-26.5 18.5t-10.5 28.5q0 19 5 32t19.5 21t39.5 11.5t65 3.5q28 0 55.5 1t55.5 6q1 44 4 93t9 100.5t14.5 103.5t22.5 102q26 95 64.5 165t83.5 115.5t94 68t96 22.5q84 0 131 -44.5t47 -141.5q0 -14 -4 -40.5t-13 -50.5 q-9 -25 -17.5 -33.5t-16.5 -8.5q-9 0 -22 46q-7 24 -15.5 44t-20 35t-27.5 23.5t-38 8.5q-59 0 -102.5 -39.5t-72.5 -115t-43.5 -186.5t-14.5 -255q34 1 74.5 3.5t83.5 6t86 9t82 13.5q97 18 175.5 41t152.5 55q14 6 23 11t23 5q19 0 33.5 -23.5t14.5 -71.5q0 -61 -6 -123 l-12 -124l-13 -122q-6 -60 -6 -117q0 -18 3 -36t9.5 -33t17 -24t26.5 -9q36 0 79.5 20t88.5 52q45 31 89 71l84 78q40 38 71 73l50 55q31 34 55 64l40 52q18 22 30.5 34t21.5 12q20 0 29 -14.5t9 -37.5z" />
<glyph unicode="&#xfb02;" horiz-adv-x="1659" d="M1937 574q0 -36 -18 -63q-23 -38 -57.5 -81.5t-73.5 -87.5l-80 -87l-75 -76l-71 -65q-38 -34 -80.5 -61.5t-86 -45.5t-86.5 -18q-32 0 -52 4t-37 12q-39 20 -66 57.5t-44.5 90t-25.5 119.5t-8 146q0 118 14 244l27 248q-33 -19 -82 -42t-104 -45.5t-111 -41.5t-101 -29 l-61 -14q-30 -8 -62 -14l-64 -12l-73 -13q-9 -85 -16.5 -213.5t-10.5 -302.5q-1 -66 -7.5 -130.5t-17 -122t-24.5 -107t-29 -86.5q-51 -121 -136.5 -188.5t-220.5 -67.5q-18 0 -39.5 12.5t-40.5 32.5t-32 44.5t-13 48.5q0 13 10 23.5t20 10.5q9 0 22 -4l31 -9q18 -6 41 -10 t51 -4q36 0 62.5 8t45 20.5t31.5 29t23 33.5q19 32 38 133.5t27 265.5q4 82 7 155.5t5 135t2.5 109.5t0.5 78q0 39 -10 55t-46 16q-34 0 -45.5 -1t-18 -2t-17 -2t-41.5 -2q-13 0 -28 8t-27.5 20.5t-20.5 27.5t-8 28q0 23 29 25q54 4 110 17.5t98 26.5q17 5 32.5 32.5 t23.5 63.5q6 25 14 63l15 79l15 79q8 38 14 63q13 62 46 122t78 107t99.5 75.5t110.5 28.5q51 0 86 -20t56.5 -49.5t31 -64t9.5 -64.5q0 -16 -8 -41t-21 -49t-31 -41t-37 -17q-5 0 -8.5 13.5t-7 32t-6.5 37t-7 28.5q-7 19 -16.5 39.5t-23.5 36.5t-33.5 26.5t-44.5 10.5 q-18 0 -36.5 -20t-36.5 -56t-34.5 -86.5t-30.5 -111.5q-21 -94 -29.5 -164t-10.5 -118l63 10l80 13q41 7 80 14.5t66 13.5q47 10 101.5 27t107 39.5t98 50.5t74.5 61q17 75 29.5 143.5t32.5 133.5q10 32 22 59.5t26 48t29.5 32.5t32.5 12q16 0 32 -7.5t29.5 -19.5t22 -28 t8.5 -32q0 -13 -4 -36t-10.5 -49t-14.5 -52.5t-15 -45.5l-51 -130q-24 -56 -30 -89q-12 -65 -23 -142t-19.5 -152t-13.5 -139t-5 -103q0 -55 1.5 -98.5t5.5 -78.5t10.5 -63t16.5 -52q11 -25 27 -35t40 -10q37 0 78 17.5t85 48.5q43 32 91 76l99 94l91 94l70 74 q30 31 48.5 48t26.5 17q13 0 19.5 -7t6.5 -30z" />
<glyph unicode="ot" horiz-adv-x="1948" d="M2398 881q0 -37 -20 -56.5t-46 -34.5q-33 -15 -73.5 -27t-83 -21.5t-85.5 -16t-82 -10.5q-42 -4 -89 -8t-91 -8.5t-81.5 -10.5t-60.5 -15q-21 -91 -44.5 -173.5t-39.5 -164.5q-4 -19 -10.5 -57t-12.5 -79.5t-10.5 -78t-4.5 -52.5q0 -41 13 -61.5t29 -32.5l28 -24 q13 -11 13 -33q0 -14 -13.5 -27t-32.5 -23t-40.5 -15.5t-37.5 -5.5q-29 0 -52 16t-39 41.5t-25 58.5t-9 68q0 46 8 98.5t20 107.5l26 112q14 58 25 115l11 49l10 48l7 38q3 15 3 18q0 16 -11.5 24.5t-27.5 8.5q-12 1 -37 -1l-52 -4l-53 -2q-25 -2 -36 -2q-45 0 -88.5 1 t-87.5 8t-89 21t-93 41l11 -26q4 -11 7 -23t5 -27t2 -37q0 -79 -40 -168q-39 -90 -101 -167t-131 -128q-39 -29 -85.5 -50.5t-97.5 -35t-106 -20t-111 -6.5q-39 0 -76 25t-66 61t-46.5 77t-17.5 74q0 81 21.5 155.5t58 144t84.5 136t102 132.5q30 37 68.5 72.5t80.5 63.5 t85 45.5t82 17.5q32 0 54 -5.5t42 -18.5t40 -34l49 -52q31 -35 82.5 -60.5t114 -43t131 -26t134.5 -8.5q13 0 38.5 3t54 7t54.5 7t39 3q6 0 14.5 1t16.5 5.5t15.5 15t12.5 29.5l17 72l21 86l20 84l16 69q9 28 15.5 60t12 64t12.5 62t18 55q22 52 71 52q74 0 74 -82 q0 -51 -22 -117q-48 -152 -71 -250.5t-23 -132.5q0 -37 37 -37q45 0 84.5 1.5t80 5t85.5 8.5l101 11q41 5 77 12l67 13q31 6 55 12.5t40 8.5q11 1 21.5 3t18 0.5t12 -8t4.5 -21.5zM818 598q1 28 -4 63.5t-17.5 67t-33 51.5t-50.5 16q-46 18 -76 38t-46 20q-12 0 -26 -7.5 t-29 -20.5t-30.5 -30.5t-30.5 -36.5l-55 -71q-26 -32 -48.5 -63.5t-43.5 -66t-42 -77.5q-9 -18 -16 -43t-12 -51.5t-7.5 -53t-2.5 -47.5q0 -13 9 -31.5t23.5 -36t33 -29.5t36.5 -12q51 0 87 4.5t66.5 16t61.5 31.5t72 52q20 15 39.5 35t38.5 42.5t36 46t32 46.5q10 15 17 37 t11 44t5.5 40t1.5 26z" />
<glyph unicode="rt" horiz-adv-x="1812" d="M2262 881q0 -37 -20 -56.5t-46 -34.5q-33 -15 -73.5 -27t-83 -21.5t-85.5 -16t-82 -10.5q-42 -4 -89 -8t-91 -8.5t-81.5 -10.5t-60.5 -15q-21 -91 -44.5 -173.5t-39.5 -164.5q-4 -19 -10.5 -57t-12.5 -79.5t-10.5 -78t-4.5 -52.5q0 -41 13 -61.5t29 -32.5l28 -24 q13 -11 13 -33q0 -14 -13.5 -27t-32.5 -23t-40.5 -15.5t-37.5 -5.5q-29 0 -52 16t-39 41.5t-25 58.5t-9 68q0 46 8 98.5t20 107.5l26 112q14 58 25 115l11 53l10 56q5 26 8 45.5t3 22.5q0 16 -11.5 24.5t-27.5 8.5q-12 0 -26 -2.5t-28 -6t-27.5 -6t-24.5 -2.5q-18 0 -34 8 t-28 21t-18.5 30t-6.5 35q0 14 11.5 26t29 20.5t37 13.5t35.5 5q13 0 28 1t29.5 2.5t27 3t21.5 1.5q6 0 14 1t16.5 5.5t15.5 15t12 29.5q7 31 17 69l21 77l20 75l16 66q9 28 15.5 60t12 64t12.5 62t18 55q22 52 71 52q74 0 74 -82q0 -51 -22 -117q-48 -152 -71 -250.5 t-23 -132.5q0 -37 37 -37q45 0 84.5 1.5t80 5t85.5 8.5l101 11q41 5 77 12l67 13q31 6 55 12.5t40 8.5q11 1 21.5 3t18 0.5t12 -8t4.5 -21.5zM335 895q10 0 20.5 -5t19.5 -12.5t16.5 -16t11.5 -15.5q14 -23 11.5 -66t-15.5 -103l-19 -107q-8 -46 -12.5 -89.5t-5.5 -91 t2 -111.5q26 53 50 120t54 139.5t70 145.5t97 139q46 53 105 94t126 49q25 3 54 -2.5t54.5 -18t43 -31.5t20.5 -43q1 -7 -5.5 -20t-17 -25.5t-22 -22.5t-19.5 -11h-14h-27h-29h-24q-31 0 -53 -7t-42 -22q-19 -15 -41 -39l-52 -57q-30 -33 -60 -86t-58 -114t-53 -124 l-45 -115q-12 -31 -23 -66.5t-21 -72.5t-18 -74.5t-14 -71.5q-1 -8 -15.5 -16.5t-33.5 -15.5t-36 -11.5t-22 -4.5q-27 -3 -44.5 20t-27.5 58t-13.5 75.5t-3.5 72.5q0 34 2 86t4 110l6 116l4 102q4 48 4 80t-1.5 57.5t-2.5 50t2 57.5q2 24 13 45t27 36.5t35.5 25t37.5 9.5z " />
<glyph unicode="ft" horiz-adv-x="1580" d="M2030 881q0 -37 -20 -56.5t-46 -34.5q-33 -15 -73.5 -27t-83 -21.5t-85.5 -16t-82 -10.5q-42 -4 -89 -8t-91 -8.5t-81.5 -10.5t-60.5 -15q-21 -91 -44.5 -173.5t-39.5 -164.5q-4 -19 -10.5 -57t-12.5 -79.5t-10.5 -78t-4.5 -52.5q0 -41 13 -61.5t29 -32.5l28 -24 q13 -11 13 -33q0 -14 -13.5 -27t-32.5 -23t-40.5 -15.5t-37.5 -5.5q-29 0 -52 16t-39 41.5t-25 58.5t-9 68q0 46 8 98.5t20 107.5l26 112q14 58 25 115l11 49l10 48l7 38q3 15 3 18q0 16 -11.5 24.5t-27.5 8.5q-9 0 -36 -2t-61 -4t-68.5 -5t-58.5 -4q-43 -2 -96 -4l-107 -2 q-54 -2 -104 -3t-88 -1l-11 -84l-13 -93l-12 -91l-11 -79q-8 -69 -18.5 -150.5t-26.5 -192.5q-20 -117 -48 -192q-40 -107 -112 -185q-72 -81 -166 -81q-29 0 -66 20q-36 19 -36 49q0 13 4.5 31t12.5 34.5t18.5 28t23.5 11.5q16 0 46 -6t46 -6q24 15 41.5 38t30.5 53 t22.5 65t16.5 73q14 72 25.5 137t20.5 125.5t16 118.5t13 117q4 31 9 84q6 52 6 92q2 15 -9 27.5t-24.5 24.5t-24 24.5t-8.5 27.5q0 18 54 86q55 67 61 107q4 20 8.5 51.5t11.5 73.5q13 84 24 138q12 55 33 114t50 110q45 75 117 138t145 63q75 0 129 -54q55 -52 55 -129 q0 -97 -73 -206q-42 -64 -78 -64h-4q18 70 18 148q0 56 -16 114q-15 60 -51 60q-43 0 -79 -47q-36 -46 -61 -101q-34 -76 -63 -203q-7 -31 -12 -55.5t-8.5 -46t-6 -42.5t-4.5 -45v-43q0 -20 24.5 -28.5t75.5 -12.5q78 -6 159.5 -6.5t147.5 1.5q58 4 111.5 9t82.5 11 q6 1 18.5 4t26 10t25 19t16.5 31l17 72l20 86l21 84l17 69q9 28 15.5 60t12 64t12.5 62t18 55q22 52 71 52q74 0 74 -82q0 -51 -22 -117q-48 -152 -71 -250.5t-23 -132.5q0 -37 37 -37q45 0 84.5 1.5t80 5t85.5 8.5l101 11q41 5 77 12l67 13q31 6 55 12.5t40 8.5 q11 1 21.5 3t18 0.5t12 -8t4.5 -21.5z" />
<glyph unicode="of" horiz-adv-x="2000" d="M2358 770q0 -19 -25 -56t-43 -46q-8 -5 -49 -15q-118 -28 -287 -45q-85 -8 -158 -12t-136 -4l-10 -79q-6 -41 -11 -82t-10.5 -80.5t-9.5 -73.5q-8 -69 -18.5 -150.5t-26.5 -192.5q-20 -117 -48 -192q-40 -107 -112 -185q-72 -81 -166 -81q-29 0 -66 20q-36 19 -36 49 q0 13 4.5 31t12.5 34.5t18.5 28t23.5 11.5q16 0 46 -6t46 -6q24 15 41.5 38t30.5 53t22.5 65t16.5 73q14 72 25.5 137t20.5 125.5t16 118.5t13 117q4 31 9 84q6 52 6 92q2 9 -2 17t-11 16q-29 13 -73 13h-110q-55 0 -103.5 4t-93 14.5t-86 28.5t-82.5 47q8 -23 14.5 -39.5 t6.5 -43.5q0 -79 -40 -168q-39 -90 -101 -167t-131 -128q-39 -29 -85.5 -50.5t-97.5 -35t-106 -20t-111 -6.5q-39 0 -76 25t-66 61t-46.5 77t-17.5 74q0 81 21.5 155.5t58 144t84.5 136t102 132.5q30 37 68.5 72.5t80.5 63.5t85 45.5t82 17.5q32 0 59.5 -14t53.5 -37 q25 -23 51 -53l54 -61q20 -22 59.5 -46.5t93 -45.5t116.5 -34.5t130 -13.5q41 0 75 -1t61.5 1t50.5 10t41 26q21 21 29.5 42.5t10.5 37.5q4 20 8.5 51.5t11.5 73.5q13 84 24 138q12 55 33 114t50 110q45 75 117 138t145 63q75 0 129 -54q55 -52 55 -129q0 -97 -73 -206 q-42 -64 -78 -64h-4q18 70 18 148q0 56 -16 114q-15 60 -51 60q-43 0 -79 -47q-36 -46 -61 -101q-34 -76 -63 -203q-14 -63 -23.5 -118t-13.5 -103q0 -26 6 -42.5t18.5 -25.5t31.5 -12.5t44 -3.5q84 0 154.5 1.5t130.5 5.5t123 12t129 22q8 1 16 1.5t17 0.5q12 0 12 -12z M818 598q1 28 -8 46q-8 18 -22 34l-29 36q-15 19 -25 48q-16 43 -37 63t-42 26.5t-38.5 4.5t-25.5 -2q-12 0 -26 -7.5t-29 -20.5t-30.5 -30.5t-30.5 -36.5l-55 -71q-26 -32 -48.5 -63.5t-43.5 -66t-42 -77.5q-9 -18 -16 -43t-12 -51.5t-7.5 -53t-2.5 -47.5q0 -13 9 -31.5 t23.5 -36t33 -29.5t36.5 -12q51 0 87 4.5t66.5 16t61.5 31.5t72 52q20 15 39.5 35t38.5 42.5t36 46t32 46.5q10 15 17 37t11 44t5.5 40t1.5 26z" />
<glyph unicode="tt" horiz-adv-x="1528" d="M1978 881q0 -37 -20 -56.5t-46 -34.5q-33 -15 -73.5 -27t-83 -21.5t-85.5 -16t-82 -10.5q-42 -4 -89 -8t-91 -8.5t-81.5 -10.5t-60.5 -15l-26 -107q-15 -62 -28.5 -131.5t-23.5 -140t-10 -132.5q0 -20 3 -42.5t10 -42t18.5 -32.5t27.5 -13q48 0 93 19t82 38.5t63.5 29 t37.5 -9.5q3 -6 -9 -26.5t-36 -47.5t-58 -57t-74.5 -55t-85.5 -41.5t-91 -16.5q-29 0 -58.5 15t-53.5 40.5t-39 57.5t-15 67q1 95 21 199l43 219l11 54l13 57l10 46q4 20 4 23q0 11 -14.5 24t-30.5 20l-44 3q-19 2 -28 2q-102 0 -198 8t-172 16l-121 13q-46 5 -47 1 l-27 -108q-16 -65 -30.5 -132.5t-25 -127.5t-10.5 -94q0 -21 3 -51t14.5 -57.5t33.5 -46.5t60 -19q10 0 31.5 7.5t48 22t55 34.5t52.5 45q19 19 41.5 36.5t48.5 17.5q37 0 37 -35q0 -18 -6.5 -34.5t-17 -33t-24.5 -32.5l-28 -35q-12 -15 -42.5 -40t-71 -49.5t-85.5 -42.5 t-86 -18q-59 0 -98.5 17t-64.5 45t-38.5 63.5t-19.5 71.5t-6.5 70.5t-0.5 59.5q0 31 6 71.5t15.5 85.5t20.5 91l21 90q10 42 15.5 77t5.5 58q0 13 -12.5 18t-33 7t-47 3t-54.5 6q-18 3 -34 9t-28.5 16.5t-20 27t-7.5 41.5q0 31 16.5 43t39.5 12q6 0 33 -4q27 -2 62 -6l71 -8 q36 -4 60 -3q6 3 16 22t23 49t27 68l28 76l28 80l24 72q17 54 40 77t58 23q23 0 38.5 -8.5t24.5 -21t13 -26.5t4 -26q0 -4 -8 -28l-22 -62l-30 -82l-34 -88l-30 -83l-23 -64q77 -8 157 -15t157 -12.5t148.5 -9.5t133.5 -3q22 7 38.5 17t20.5 27l16 67l16 74l17 74l15 65 q9 28 15.5 60t12 64t12.5 62t18 55q22 52 71 52q74 0 74 -82q0 -51 -22 -117q-48 -152 -71 -250.5t-23 -132.5q0 -37 37 -37q45 0 84.5 1.5t80 5t85.5 8.5l101 11q41 5 77 12l67 13q31 6 55 12.5t40 8.5q11 1 21.5 3t18 0.5t12 -8t4.5 -21.5z" />
<glyph unicode="ffl" horiz-adv-x="2541" d="M2814 574q0 -36 -18 -63q-23 -38 -57.5 -81.5t-73.5 -87.5l-79 -87l-76 -76l-72 -65q-38 -34 -80 -61.5t-85.5 -45.5t-86.5 -18q-32 0 -52 4t-37 12q-39 20 -66 57.5t-44.5 90t-25.5 119.5t-8 146q-1 118 13 244l28 248q-33 -19 -82 -42t-104 -45.5t-111 -41.5t-101 -29 l-61 -14q-29 -8 -61 -14l-66 -12l-72 -13q-9 -85 -16.5 -213.5t-10.5 -302.5q-1 -66 -7.5 -130.5t-17 -122t-24.5 -107t-29 -86.5q-51 -121 -136.5 -188.5t-220.5 -67.5q-18 0 -39.5 12.5t-40.5 32.5t-32 44.5t-13 48.5q0 13 10 23.5t20 10.5q9 0 22 -4l31 -9q18 -6 41 -10 t51 -4q36 0 62.5 8t45 20.5t31.5 29t23 33.5q19 32 38 133.5t27 265.5q9 165 12 283.5t3 179.5q0 39 -6.5 61t-26.5 22q-42 -3 -92 -8.5t-101 -12.5l-100 -13l-91 -11q-43 -5 -87 -8l-82 -5q-38 -2 -66.5 -5t-37.5 -7l-10 -79q-6 -41 -11 -82t-10.5 -80.5t-9.5 -73.5 q-8 -69 -18.5 -150.5t-26.5 -192.5q-20 -117 -48 -192q-40 -107 -112 -185q-72 -81 -166 -81q-29 0 -66 20q-36 19 -36 49q0 13 4.5 31t12.5 34.5t18.5 28t23.5 11.5q16 0 46 -6t46 -6q24 15 41.5 38t30.5 53t22.5 65t16.5 73q14 72 25.5 137t20.5 125.5t16 118.5t13 117 q4 31 9 84q6 52 6 92q2 15 -9 27.5t-24.5 24.5t-24 24.5t-8.5 27.5q0 18 54 86q55 67 61 107q4 20 8.5 51.5t11.5 73.5q13 84 24 138q12 55 33 114t50 110q45 75 117 138t145 63q75 0 129 -54q55 -52 55 -129q0 -97 -73 -206q-42 -64 -78 -64h-4q18 70 18 148q0 56 -16 114 q-15 60 -51 60q-43 0 -79 -47q-36 -46 -61 -101q-34 -76 -63 -203q-14 -63 -23.5 -118t-13.5 -103v-43q0 -41 100 -41q38 0 90 4t109 10t113.5 13.5t103.5 14.5q44 8 79 16t54 14q17 5 32.5 32.5t23.5 63.5l13 63l16 79l16 79l13 63q13 62 46 122t78 107t99.5 75.5 t110.5 28.5q51 0 86 -20t56.5 -49.5t31 -64t9.5 -64.5q0 -16 -8 -41t-21 -49t-31 -41t-37 -17q-5 0 -8.5 13.5t-7 32t-6.5 37t-7 28.5q-7 19 -16.5 39.5t-23.5 36.5t-33.5 26.5t-44.5 10.5q-18 0 -36.5 -20t-36.5 -56t-34.5 -86.5t-30.5 -111.5q-21 -94 -29.5 -164 t-10.5 -118l64 10l79 13q41 7 80 14.5t66 13.5q47 10 101.5 27t107 39.5t98 50.5t74.5 61q17 75 29.5 143.5t32.5 133.5q10 32 22 59.5t26 48t29.5 32.5t32.5 12q16 0 32 -7.5t29.5 -19.5t22 -28t8.5 -32q0 -13 -4 -36t-10.5 -49t-14.5 -52.5t-15 -45.5l-52 -130 q-24 -56 -29 -89q-12 -65 -23 -142t-19.5 -152t-13.5 -139t-5 -103q0 -55 1.5 -98.5t5.5 -78.5t10.5 -63t16.5 -52q11 -25 27 -35t40 -10q37 0 78 17.5t85 49t92 75.5l98 94l92 94l70 74q30 31 48 48t26 17q13 0 19.5 -7t6.5 -30z" />
<glyph unicode="ffi" horiz-adv-x="2404" d="M2714 704q0 -16 -12.5 -41.5t-29.5 -52.5l-36 -50l-28 -37q-37 -44 -83 -94t-97.5 -99.5t-106.5 -94.5t-110.5 -80t-109 -55.5t-101.5 -20.5q-47 1 -75.5 20.5t-45 51.5t-22 74t-5.5 87q0 22 4 73l10 109l10 108q4 51 5 73q0 19 -1.5 30t-3.5 22q-63 -11 -139 -23 t-154 -22.5t-153.5 -18t-137.5 -10.5v-57t-2 -74l-3 -84l-4 -85q-6 -145 -15.5 -275t-25 -237.5t-40.5 -188.5t-62 -129q-7 -9 -18.5 -16.5t-24.5 -13t-27 -8.5t-26 -3q-60 0 -98 44q-37 43 -37 105q0 17 22 17q14 0 33.5 -6.5t30.5 -6.5q34 0 54.5 27.5t32.5 65.5t17 78 l8 63q19 179 25 369.5t7 403.5q-35 -4 -77 -7l-86 -6q-48 -7 -96 -11l-110 -10q-85 -8 -158 -12t-136 -4l-10 -79q-6 -41 -11 -82t-10.5 -80.5t-9.5 -73.5q-8 -69 -18.5 -150.5t-26.5 -192.5q-20 -117 -48 -192q-40 -107 -112 -185q-72 -81 -166 -81q-29 0 -66 20 q-36 19 -36 49q0 13 4.5 31t12.5 34.5t18.5 28t23.5 11.5q16 0 46 -6t46 -6q24 15 41.5 38t30.5 53t22.5 65t16.5 73q14 72 25.5 137t20.5 125.5t16 118.5t13 117q4 31 9 84q6 52 6 92q2 15 -9 27.5t-24.5 24.5t-24 24.5t-8.5 27.5q0 18 54 86q55 67 61 107q4 20 8.5 51.5 t11.5 73.5q13 84 24 138q12 55 33 114t50 110q45 75 117 138t145 63q75 0 129 -54q55 -52 55 -129q0 -97 -73 -206q-42 -64 -78 -64h-4q18 70 18 148q0 56 -16 114q-15 60 -51 60q-43 0 -79 -47q-36 -46 -61 -101q-34 -76 -63 -203q-14 -63 -23.5 -118t-13.5 -103v-43 q0 -41 100 -41q84 0 154.5 1.5t130.5 5.5q63 4 129 13t135 22q3 88 13.5 190t36.5 200q26 95 64.5 165t83.5 115.5t94 68t96 22.5q84 0 131 -44.5t47 -141.5q0 -14 -4 -40.5t-13 -50.5q-9 -25 -17.5 -33.5t-16.5 -8.5q-9 0 -22 46q-7 24 -15.5 44t-20 35t-27.5 23.5t-38 8.5 q-59 0 -102.5 -39.5t-72.5 -115t-43.5 -186.5t-14.5 -255q34 1 74.5 3.5t83.5 6t86 9t82 13.5q97 18 175.5 41t152.5 55q14 6 23 11t23 5q19 0 33.5 -23.5t14.5 -71.5q0 -61 -6 -123l-12 -124l-13 -122q-6 -60 -6 -117q0 -18 3 -36t9.5 -33t17 -24t26.5 -9q36 0 79.5 20 t88.5 52q45 31 89 71l84 78q40 38 72 73l49 55q31 34 55 64l40 52q18 22 30.5 34t21.5 12q20 0 29 -14.5t9 -37.5zM2202 1445q0 -9 -2 -18.5t-8.5 -23t-18.5 -33.5l-31 -49l-20 -12q-12 -7 -25.5 -13t-26 -10t-20.5 -4q-46 0 -68 39q3 16 5.5 36t7 40.5t11 39t18.5 30.5 q8 9 23 16t31 12t30.5 7.5t20.5 2.5q13 0 26 -5.5t23.5 -14t17 -19t6.5 -21.5z" />
<glyph unicode="ff" horiz-adv-x="1632" d="M1731 1311q-1 -14 -5.5 -40t-15.5 -50q-10 -24 -18.5 -32.5t-16.5 -7.5q-10 0 -20 47q-6 24 -13.5 44.5t-18.5 35.5t-27 24.5t-38 10.5q-43 2 -78 -18t-62 -57t-47 -87.5t-34 -110.5t-22.5 -126.5t-12.5 -133.5q-1 -10 0.5 -18t9 -13t22 -8t39.5 -3q42 0 85 1t84.5 2.5 t78.5 3t67 3.5q60 4 123 12t129 22q8 1 16 1.5t17 0.5q12 0 12 -12q0 -19 -25 -56t-43 -46q-8 -5 -49 -15q-59 -14 -122 -23t-147 -17q-85 -8 -167 -14.5t-145 -6.5q-1 -23 -3 -56l-4 -73q-2 -40 -6 -83l-8 -85q-12 -145 -26.5 -274.5t-35 -236t-48.5 -187t-67 -126.5 q-15 -17 -44 -27.5t-53 -9.5q-62 3 -96 48q-36 45 -33 107q0 16 23 16q14 -1 33 -8t30 -8q22 -1 39.5 11t30 32.5t21.5 46t15 51.5t9.5 49t6.5 39q26 178 40 368.5t23 402.5q-45 -4 -99.5 -8t-109 -7t-104 -5t-84.5 -3l-81 -4q-34 -2 -64 -2h-58h-58l-10 -79q-6 -41 -11 -82 t-10.5 -80.5t-9.5 -73.5q-8 -69 -18.5 -150.5t-26.5 -192.5q-20 -117 -48 -192q-40 -107 -112 -185q-72 -81 -166 -81q-29 0 -66 20q-36 19 -36 49q0 13 4.5 31t12.5 34.5t18.5 28t23.5 11.5q16 0 46 -6t46 -6q24 15 41.5 38t30.5 53t22.5 65t16.5 73q14 72 25.5 137 t20.5 125.5t16 118.5t13 117q4 31 9 84q6 52 6 92q2 15 -9 27.5t-24.5 24.5t-24 24.5t-8.5 27.5q0 18 54 86q55 67 61 107q4 20 8.5 51.5t11.5 73.5q13 84 24 138q12 55 33 114t50 110q45 75 117 138t145 63q75 0 129 -54q55 -52 55 -129q0 -97 -73 -206q-42 -64 -78 -64h-4 q18 70 18 148q0 56 -16 114q-15 60 -51 60q-43 0 -79 -47q-36 -46 -61 -101q-34 -76 -63 -203q-14 -63 -23.5 -118t-13.5 -103q0 -26 6 -42.5t18.5 -25.5t31.5 -12.5t44 -3.5q83 0 145 -2t121 2l55 3q33 2 71 3t78 3.5t76 5.5q4 43 10 93t14.5 101.5t20 103t25.5 96.5 q30 94 71.5 162.5t88.5 112t96.5 64t96.5 18.5q84 -4 129 -50.5t41 -143.5z" />
<glyph unicode="oft" horiz-adv-x="2605" d="M2170 799q6 0 14 1t16.5 5.5t16 15t11.5 29.5l17 72l21 86l20 84l17 69q9 29 15.5 60.5t12 63.5t12.5 62t18 55q22 52 71 52q74 0 74 -82q0 -51 -22 -117q-48 -152 -71 -250.5t-23 -132.5q0 -37 37 -37q45 0 85 1.5t80 5.5q42 3 86 8l100 11q41 5 77.5 12t67 13.5 t54.5 12.5t40 8q11 2 21.5 3.5t18 0t12 -8t4.5 -21.5q0 -37 -20 -56.5t-46 -34.5q-33 -15 -73.5 -27t-83 -21.5t-85.5 -16t-82 -10.5q-42 -4 -89 -8t-91 -8.5t-81.5 -10.5t-60.5 -15q-21 -91 -44.5 -173.5t-39.5 -164.5q-4 -19 -10.5 -57t-12.5 -79.5t-10.5 -78t-4.5 -52.5 q0 -41 13 -62q12 -20 28 -32l29 -24q13 -11 13 -33q0 -14 -13.5 -27t-32.5 -23t-40.5 -15.5t-37.5 -5.5q-28 0 -51.5 16t-39.5 41.5t-25 58.5t-9 68q0 47 8 99t20 107l25 112q14 58 26 115l10 49l10 48l8 38q3 15 3 18q0 16 -11.5 24.5t-27.5 8.5t-44 -3l-66 -7 q-38 -4 -81.5 -8t-88.5 -7q-115 -7 -194 -10.5t-141 -3.5l-11 -82l-11 -88q-6 -44 -11 -86t-10 -77l-8 -67l-10 -68l-11 -79l-14 -98q-4 -44 -15 -95.5t-28.5 -103t-42.5 -100t-59.5 -85.5t-77.5 -59t-97 -22q-35 0 -66.5 15.5t-55.5 38t-38 48t-14 45.5q0 26 8.5 34.5 t24.5 8.5q8 0 18.5 -6t22.5 -15q22 -17 45 -27.5t58 -10.5q26 0 49 17t42 48t33.5 74.5t24.5 96.5q14 72 25.5 137t20.5 125.5t16 119t13 116.5l4 50q2 28 5 57l4 57q2 28 3 51q2 11 -6.5 18.5t-22.5 13.5q-41 2 -77 4l-72 4l-73 4t-77 8q-12 2 -38 6t-54 10.5t-52.5 14 t-33.5 14.5q9 -38 16 -76.5t7 -79.5q0 -18 -4.5 -44t-12 -52.5t-16.5 -51t-19 -40.5q-25 -44 -53 -80t-62.5 -66.5t-77.5 -57t-99 -52.5q-60 -26 -120.5 -36.5t-125.5 -10.5q-41 0 -73 24t-54 64.5t-33.5 93.5t-11.5 111q0 15 2.5 37t7 45t9.5 44t10 36q14 42 40 96 t61 110.5t78 111t90 97.5t98 69t102 26q17 0 27.5 -5t18 -13t13.5 -17l14 -18q3 -5 9 -5q8 0 20 4t27 4q19 0 38 -11.5t40 -27.5l45 -36q24 -20 53 -36q27 -15 64.5 -27.5t78 -22t81 -15.5t71.5 -8q39 -2 66.5 -1t57.5 6q12 2 21.5 8.5t16.5 15.5t11.5 18.5t5.5 16.5 q4 20 11 58l15 79l16 80l11 59q12 55 36.5 114t53.5 110q19 32 47.5 67.5t63 65t73 49t78.5 19.5q37 0 70.5 -14.5t58.5 -39.5t40 -58t15 -71q0 -97 -73 -206q-42 -64 -78 -64h-4q18 71 18 148q0 15 -2.5 44t-9.5 58t-20 50.5t-35 21.5q-25 0 -46.5 -15.5t-39 -38 t-31.5 -48.5t-23 -46q-21 -47 -38 -101.5t-29.5 -112t-20 -117.5t-10.5 -118q0 -10 17.5 -16t43.5 -9t56 -4t55 -1q104 0 222 11t231 20zM762 722q-6 20 -23.5 39t-40 34t-47.5 24.5t-47 9.5q-18 0 -35 -6t-33.5 -15.5t-31.5 -20.5t-28 -22q-39 -33 -74.5 -92.5t-62 -128 t-42.5 -136.5t-16 -118q0 -22 7.5 -42.5t21.5 -36t33 -25t42 -9.5q60 0 111 21.5t92.5 59t73.5 89.5t54 112.5t33.5 127.5t12.5 135z" />
<glyph unicode=" "  horiz-adv-x="819" />
<glyph unicode="&#x09;" horiz-adv-x="819" />
<glyph unicode="&#xa0;" horiz-adv-x="819" />
<glyph unicode="!" horiz-adv-x="664" d="M532 1421q0 -22 -15 -89l-16 -70q-8 -36 -18 -76l-61 -272q-30 -134 -47 -267q-2 -24 -1.5 -44t-1.5 -38t-6.5 -34.5t-13.5 -32.5q-12 0 -29.5 2t-40.5 6q-45 9 -59 20q-1 8 -1.5 21.5t-0.5 30.5q-1 51 6.5 109t19.5 118.5t26 122.5t25.5 122.5t19 118t6.5 109.5 q0 24 9 72q9 49 19 67q7 11 18.5 23t28.5 24q34 25 56 25q25 0 51 -21q26 -20 26 -47zM352 201q0 -17 -14 -90q-4 -28 -49 -60q-43 -31 -72 -31q-74 0 -74 97q0 38 36 91q37 52 71 52q11 1 29 -5t34.5 -15.5t28 -20.5t10.5 -18z" />
<glyph unicode="&#x22;" horiz-adv-x="827" d="M768 1425q0 -23 -25 -129q-13 -54 -19 -86l-9 -41q-10 -57 -16 -99.5t-13 -87.5q-6 -43 -14.5 -83t-20.5 -74q-5 -16 -22 -26.5t-37 -10.5q-19 0 -32.5 8.5t-22.5 22.5t-13 32.5t-4 39.5q0 62 35 188q36 126 39 144q4 28 12 78q8 49 16 88t17 65q13 39 55 39q26 0 50 -21 q24 -20 24 -47zM356 1413q0 -10 -1 -22.5t-3 -27.5t-4 -33t-6 -38q-3 -20 -5 -34.5t-3 -22.5q-3 -28 -22 -83t-21 -83q-4 -49 -7.5 -83.5t-6.5 -55.5q-2 -21 -7 -41.5t-12 -40.5q-6 -17 -23 -30t-36 -13q-36 0 -52 33q-16 32 -16 71q0 22 8 53.5t17 63.5l8 44l8 49 q7 51 12 75q17 83 27 138t14 83q1 15 6.5 29t13.5 25t19 17.5t25 6.5q24 0 45 -27q22 -25 22 -53z" />
<glyph unicode="#" horiz-adv-x="1632" d="M1565 973q0 -14 -9 -33q-9 -20 -20 -20q-147 0 -254 -7t-190 -32q-9 -51 -36 -136l-22 -75q-10 -33 -16 -58q10 -28 41 -28q9 0 42 6.5t91 19.5q115 27 137 27q56 0 96 -14q16 -4 27 -37q10 -30 10 -54q0 -25 -25 -41t-51 -16q-18 0 -44 14q-26 15 -54 15q-77 0 -143 -19 q-57 -15 -130 -15q-8 0 -15.5 0.5t-18.5 0.5q-1 -7 -21 -55q-18 -48 -29 -85t-11 -59q0 -9 2 -27t2 -28q0 -32 -20 -67q-20 -33 -52 -33q-20 0 -39 36q-18 36 -18 58q0 41 6 74q7 34 19 74.5t18 74.5q-54 -3 -163 -21l-91 -13q-36 -5 -52 -7q-89 -303 -145 -303 q-19 0 -31 13.5t-12 31.5q0 125 70 258q-30 1 -56 1.5t-67 0.5q-9 0 -23 -0.5t-33 -1.5t-33 -1.5t-24 -0.5q-72 0 -112 12q-23 8 -23 43q0 32 49 59t86 27q26 0 60 -1.5t76 -5.5t74 -5.5t54 -1.5q17 32 34 97l28 114q12 48 33 76q-5 1 -13 1.5t-18 0.5q-36 0 -76 -6l-82 -13 l-82 -12q-40 -6 -76 -6q-122 0 -122 51q0 38 45 49l39 8l37 8l39 8l46 7q32 5 64 11l67 12q35 6 64.5 9.5t54.5 4.5q43 32 69 82.5t53 125.5q14 37 26.5 64.5t27 45t31.5 26t39 8.5q27 0 27 -45t-47 -150q-48 -104 -56 -145q41 5 84 11t91 12q94 12 147 18q12 17 27 76 q15 61 27 124t24 118q31 127 39 135q9 14 26.5 25.5t36.5 11.5q23 0 37 -18.5t14 -43.5q0 -46 -29 -118q-29 -69 -36 -93l-12 -40l-16 -56q-8 -32 -15.5 -58t-14.5 -48l44 5q26 3 64 8t69 9.5t56 6.5t51.5 3.5t55.5 1.5q25 0 44 -2t31.5 -9t19 -20.5t6.5 -35.5zM975 870 q-54 -4 -121 -12q-66 -8 -110 -15q-23 -4 -47.5 -9t-51.5 -13q-50 -116 -84 -289q66 5 110 8t66 3q31 0 78 12t76 29q5 11 11 31l16 51q8 26 15 46l12 34q10 29 18.5 61.5t11.5 62.5z" />
<glyph unicode="$" horiz-adv-x="1124" d="M1036 1184q0 -51 -30 -66q-12 -5 -67 -8q-57 -3 -129 -3h-58q-22 0 -29 -1q-2 -24 -5.5 -56t-8.5 -72q-11 -80 -15 -120q-2 -20 -3 -41t-1 -43q0 -3 8 -8t9 -10l41 -24l36 -23q20 -14 49 -27q31 -13 50 -25t32 -36q23 -40 23 -115q0 -91 -90 -149q-88 -58 -209 -93 q0 -13 -3.5 -54.5t-10.5 -111.5t-10 -108.5t-3 -46.5q0 -23 10 -72q11 -53 11 -74q0 -8 -6.5 -15t-16 -12t-21.5 -8.5t-24 -3.5q-49 0 -67 25q-19 25 -19 79v32q0 18 2.5 51.5t7.5 84.5t8 91.5t3 71.5q-10 -5 -28 -8l-39 -7l-44 -6l-45 -8q-15 -4 -34 -8.5t-42 -10.5 q-45 -11 -79 -18.5t-54 -7.5q-34 0 -70 13q-38 14 -38 38q0 27 11.5 48t30.5 37t44.5 26.5t54.5 15.5q17 3 42 5.5t60 4.5l82 7q34 3 52 6q37 7 108 36q1 5 4 29l9 69q7 45 11 80.5t6 61.5t3.5 54.5t1.5 58.5q-21 16 -125 57q-34 11 -77 30q-46 20 -62 33q-51 40 -77 80.5 t-26 94.5q0 50 80 97q82 48 181 78q100 31 153 33q6 37 6 76v221q0 30 34 46q34 18 64 18q28 0 47 -27t19 -84q0 -36 -16 -113q-15 -78 -15 -108q12 2 30 2.5t42 1.5t40.5 1t26.5 1q5 1 15 2.5t27 5.5q31 7 55 7q67 0 67 -78zM584 1081q-204 -42 -236 -104q4 -25 88 -71 q85 -45 127 -60zM815 512q0 30 -50 77q-51 48 -87 68q-13 -90 -19 -155.5t-5 -108.5l32 18l33 19l33 20l32 21q31 22 31 41z" />
<glyph unicode="%" horiz-adv-x="1495" d="M1389 369q0 -40 -14 -93q-13 -49 -40 -73q-87 -75 -158 -110q-68 -34 -167 -34q-107 0 -142 62q-37 71 -37 129q0 72 40 153q40 82 98 138q56 55 104 55q54 1 111 -13.5t102.5 -43t74.5 -71t28 -99.5zM1157 1268q0 -42 -57 -72l-46 -79l-46 -76l-50 -77l-54 -83l-58 -90 l-65 -101l-61 -98l-48 -84l-45 -90l-56 -120l-53 -118l-41 -86q-5 -10 -31 -33q-26 -24 -34 -24q-52 0 -52 69q0 20 23 95q22 67 51 136t62.5 135.5t71 129t77.5 117.5l41 59q22 30 44 65l51 81l63 103l60 99l42 68q-40 10 -69.5 16.5t-48.5 9.5q-35 7 -111 7 q-29 0 -50.5 -0.5t-35.5 -1.5q20 -45 20 -97q0 -90 -56 -184t-136 -137l-53 -25l-42 -17q-35 -13 -77 -13q-81 0 -109 60t-28 153q0 32 24 106q12 38 22.5 65.5t18.5 45.5q25 50 58.5 90.5t73 69.5t86 45t99.5 16q42 0 93 -53q54 -8 125.5 -15t162.5 -13l148 -10l82 -7 q14 -16 14 -37zM532 1087q0 49 -32 166q-6 0 -15 -1.5t-19 -3t-19 -2.5t-15 -1q-34 -2 -71 -54q-38 -53 -63 -118q-26 -66 -26 -102q0 -8 -0.5 -14t-0.5 -14q0 -40 18 -50q43 -23 82 -23q61 0 111 74q50 76 50 143zM1264 360q0 25 -20.5 47.5t-45.5 28.5q-7 2 -18.5 7.5 t-28.5 15.5q-34 20 -47 20q-22 0 -45 -16t-42 -45.5t-31.5 -69.5t-12.5 -88q0 -57 22 -78q25 6 52 6q7 0 21 -2t22 -2q20 0 76 32q28 16 44.5 27.5t22.5 18.5q31 37 31 98z" />
<glyph unicode="&#x26;" horiz-adv-x="1892" d="M1828 760q0 -17 -10.5 -30t-27 -23t-35.5 -17t-37 -11q-41 -9 -84 -17l-95 -17q-14 -2 -31 -10.5t-27 -22.5q-19 -26 -36 -60l-33 -68l-33 -67q-16 -33 -33 -57l-58 -84q-24 -36 -24 -43q0 -24 77 -56q79 -32 162 -32q10 0 36 3.5t55.5 8t55 8t36.5 3.5q34 0 58 -10.5 t24 -46.5q0 -6 -17.5 -26t-50.5 -41t-79 -37.5t-103 -16.5q-174 0 -275 53q-9 9 -31.5 22t-46.5 25l-42 22l-19 9q0 1 -16 -9l-40 -24l-50 -31l-50 -31l-39 -24l-16 -10l-58 -22q-32 -12 -64.5 -21.5t-63.5 -16t-56 -6.5q-146 0 -270 56q-48 22 -86.5 58t-65 77.5 t-40.5 85.5t-14 83q0 24 9.5 62t24.5 77.5t32.5 75t32.5 54.5q58 72 122 126.5t145 102.5q6 4 14 16.5t8 18.5q0 23 -4 65l-9 88l-7.5 89t-3.5 65q0 81 17 150.5t53 120.5t92 79.5t135 28.5q55 0 97 -25.5t70 -66t42 -90.5t14 -100q0 -61 -19 -111t-49.5 -93.5t-70 -82 t-81.5 -75.5q-62 -54 -78 -69t-16 -24q0 -15 9 -40t21.5 -51.5t26 -50.5t21.5 -36q35 -50 68.5 -92.5t68 -79.5t72 -68t81.5 -58q16 0 30 11.5t26.5 31t24.5 43.5l25 50q10 18 22 46l25 57l23 56l18 45q-20 1 -48 4l-55 6l-44 5l-19 2l-41 13q-16 5 -25 14.5t-12.5 27 t-5.5 50.5q0 15 13.5 26.5t32 19t37 11.5t29.5 4q22 0 41 -7l42 -16q22 -8 51 -15t72 -7q20 0 51 2.5t67.5 6t75 8t73 8t61.5 6t41 2.5q38 0 61 -10t23 -33zM907 1245q1 18 -10 39t-28 39t-37.5 30t-38.5 11q-36 -4 -57 -30t-32.5 -60.5t-14.5 -71t-3 -61.5v-83 q0 -39 1.5 -68.5t6 -51t12.5 -31.5q38 28 77.5 71.5t67.5 88.5q56 92 56 178zM971 192q-15 21 -45 50l-61 58l-60 57q-28 27 -41 45q-18 26 -40 62l-45 74l-43 70q-20 32 -34 49q-60 -28 -118 -89q-24 -26 -47 -59t-40.5 -68.5t-28 -73t-10.5 -72.5q0 -49 28.5 -88 t71.5 -66.5t93 -42t92 -14.5q37 0 80 11t87 27l84 36z" />
<glyph unicode="'" horiz-adv-x="473" d="M391 1403q0 -26 -23 -77q-11 -25 -17.5 -41.5t-8.5 -24.5q-2 -9 -9 -34l-19 -67q-25 -85 -29 -123q-2 -15 -3.5 -37.5t-1.5 -53.5t-1 -53.5t-3 -37.5q-6 -42 -19 -66t-48 -24q-32 0 -54 43t-22 80q0 12 0.5 23t1.5 21q2 11 4 28t5 40l12 75l8 54q7 43 22 97t40 121 q49 133 102 133q29 0 46 -22.5t17 -53.5z" />
<glyph unicode="(" horiz-adv-x="823" d="M786 1516q1 -11 -8.5 -26.5t-23.5 -31.5t-28 -30l-24 -24q-14 -15 -60 -60q-48 -45 -81.5 -80t-58.5 -69q-38 -51 -74 -105.5t-69 -113.5q-32 -58 -59.5 -119t-49.5 -126q-43 -128 -43 -244q0 -33 9 -100q6 -33 12 -73l14 -87q8 -46 14 -76.5t8 -46.5q34 -167 80 -247 q13 -22 26.5 -41t27.5 -36t36 -38.5t51 -46.5q58 -50 82.5 -81t24.5 -63q0 -34 -33 -46q-32 -12 -65 -12q-56 0 -126 76q-35 38 -70.5 81.5t-70.5 94.5q-16 22 -26.5 39t-16.5 28q-16 33 -30.5 78.5t-27.5 103.5t-23 117.5t-18 120.5q-15 121 -15 193v33q0 49 1.5 88t5.5 68 q4 30 13 68t25 85q85 249 243 510q12 19 127 124l93 84q34 30 45 38q20 15 58 30q40 15 62 15q43 0 43 -52z" />
<glyph unicode=")" horiz-adv-x="745" d="M631 393q0 -168 -50.5 -317t-142.5 -293q-12 -18 -54 -72q-42 -56 -60 -90q-31 -60 -55 -94.5t-54 -34.5q-34 0 -62 22q-28 21 -28 44q0 21 20 56q21 33 46 65l63 80q29 35 70 109q19 37 44 96t56 142q63 166 63 211q0 79 -8 179t-31 209q-23 110 -59 203.5t-76 185.5 q-79 184 -170 279q-13 16 -39 42.5t-67 64.5q-12 12 -12 41q0 16 29 40q29 25 59 25q74 0 196 -189l69 -103q30 -46 52 -83q44 -72 66 -148q26 -85 54 -166.5t48 -172.5t26.5 -176.5t6.5 -154.5z" />
<glyph unicode="*" horiz-adv-x="1053" d="M1016 1147q0 -29 -35 -37q-35 -9 -145 -15q-55 -2 -93 -4t-59 -4q-41 -3 -72 -20q8 -13 28 -38l53 -63q66 -75 101 -121t35 -67q0 -28 -18 -48.5t-41 -20.5q-14 0 -30 12q-8 7 -16.5 16t-18.5 21q-10 13 -15 19t-6 7q-8 9 -22 27l-37 46l-71 93q-30 38 -60 66 q-11 -6 -39 -49q-8 -13 -39 -80l-44 -83q-22 -40 -44 -75q-43 -70 -64 -70q-3 0 -9 3q-6 2 -12 6l-11 8q-6 4 -9 4q-14 5 -23.5 23t-9.5 36q0 11 44 73l46 65l49 68q51 70 60 87q-7 1 -18 1.5t-25 0.5q-30 0 -48.5 -0.5t-41.5 -1.5q-13 0 -35.5 -5.5t-67.5 -18.5 q-22 -6 -36.5 -10.5t-25 -6.5t-18 -3t-14.5 -1q-6 0 -14 20q-8 22 -8 31q0 11 8 25t14 18q8 5 25.5 11.5t43.5 13.5q54 14 81 14q158 0 205 21q-6 12 -18 28t-29 36l-27 31q-10 11 -10 13q-76 100 -76 137q0 12 11 26.5t22 14.5q57 0 209 -213q22 22 62 68l101 119q2 3 9 12 l18 23q22 28 41 47q10 10 29 10q24 0 43.5 -14t19.5 -37q2 -9 -4 -17.5t-15.5 -16.5t-20 -16t-17.5 -18q-48 -83 -72 -108q-8 -9 -19 -19.5t-25 -22.5l-23 -22l-17 -16q15 -6 33 -6q13 0 48 4t93 12q10 2 25 4t35 6q42 8 72.5 12.5t56.5 4.5q19 0 32 -28q15 -29 15 -48z" />
<glyph unicode="+" horiz-adv-x="1169" d="M1081 506q-21 -27 -92 -27q-9 0 -35.5 2.5t-56.5 5t-56.5 5t-35.5 2.5h-54q-20 0 -36.5 -0.5t-35.5 -1t-51 -0.5q-22 -44 -22 -136q0 -19 0.5 -35t0.5 -40q0 -34 -4 -67.5t-4 -68.5t-11 -49t-44 -14q-43 0 -56.5 16.5t-13.5 59.5q0 17 4.5 55.5t12.5 101.5q4 32 8 76 t8 101q-16 1 -42.5 2.5t-58.5 1.5l-66 2h-66q-20 0 -59 -10q-39 -9 -51 -9q-27 0 -48.5 20.5t-21.5 47.5q0 8 3.5 19.5t10 21.5t15 17t18.5 7q9 0 27.5 -2t38.5 -5t38 -5t27 -2q4 0 17 0.5t31 1t37.5 1.5t36.5 2q34 2 63.5 3.5t55.5 1.5q12 37 12 78q0 14 -1.5 44.5 t-3.5 64.5t-3.5 64t-1.5 44q0 20 -0.5 32.5t-1.5 27.5q0 34 20 68q21 34 52 34q9 0 18.5 -10.5t18 -24.5t13.5 -28t5 -21q0 -52 -9 -139t-9 -119q0 -51 6 -102q35 -8 84.5 -7.5t107.5 2.5q38 1 66.5 1.5t47.5 0.5q110 0 133 -32q14 -22 14 -80z" />
<glyph unicode="," horiz-adv-x="700" d="M608 88q0 -24 -35 -100q-35 -75 -55 -97q-52 -55 -131 -96q-5 -2 -15 -5t-26 -6t-26.5 -6t-16.5 -5q-78 -35 -129 -35q-29 0 -29 47q0 18 7 25q151 35 227 114q17 19 41 68t24 69q0 38 -12 109q-1 12 -16 35q-13 20 -13 37q0 16 14 44q13 27 27 27q23 0 71 -17t52 -32 q41 -108 41 -176z" />
<glyph unicode="-" horiz-adv-x="1313" d="M1241 567q0 -15 -5.5 -32t-16.5 -27q-11 -8 -58 -8q-20 0 -62 13t-67 13q-8 0 -20.5 -1t-26.5 -2t-26.5 -2t-20.5 -1q-32 0 -99 6q-68 6 -100 6q-46 0 -139 -6t-141 -6t-77.5 10.5t-29.5 47.5q0 22 17 40t41 23q106 21 159 21q14 0 41 -6q14 -2 22.5 -3.5t12.5 -1.5h73 q91 0 159.5 3t117.5 10q43 6 88 6q19 0 67 -19q49 -20 69 -30q9 -6 15.5 -23t6.5 -31z" />
<glyph unicode="." horiz-adv-x="514" d="M367 211q0 -20 -9 -66q-5 -23 -63 -71q-59 -47 -82 -47q-27 0 -43 7t-25 22t-11.5 38t-2.5 56q0 58 4 81q4 45 142 45h22q29 0 59 -34q9 -9 9 -31z" />
<glyph unicode="/" horiz-adv-x="1178" d="M1149 1483q0 -30 -90 -160l-47 -67l-66 -92l-67 -92l-48 -66l-219 -312l-72 -105l-91 -136l-93 -135l-55 -84l-49 -78q-12 -24 -18 -38t-17 -34q-35 -65 -88 -139q-54 -76 -68 -76q-25 0 -51 26t-26 52q0 9 8 30q90 205 196 359l34 49l43 63l42 62l31 45l10 13l18 24 l20 27q9 12 15 22l45 71l50 76l50 74l43 63l85 125l84 128l22 34l46 75l56 87l51 72q49 66 103 117q4 4 14.5 9t18.5 5q20 0 50 -36t30 -58z" />
<glyph unicode="0" horiz-adv-x="1496" d="M1459 780q0 -130 -86 -263t-224 -244q-136 -111 -289 -185q-152 -73 -277 -92q-155 -21 -229 -21q-159 0 -247 109q-87 109 -87 272q0 126 50 273q51 147 139 277q89 131 190 210q119 95 254 161t256 66q98 0 203 -47q106 -47 190 -120q49 -44 63 -60q94 -118 94 -336z M1290 748q0 57 -19 133q-18 78 -47 110q-18 23 -40 47l-46 48q-48 49 -80 63q-23 -29 -72 -29q-7 0 -38 22q-31 23 -58 23q-58 0 -117 -13q-62 -12 -96 -36q-55 -36 -125 -98q-144 -127 -241 -286q-97 -158 -97 -324q0 -67 16 -128q16 -63 56 -87q85 -52 192 -52 q105 0 267 76q103 52 205 123l70 54l75 65q78 70 136 148q59 80 59 141z" />
<glyph unicode="1" horiz-adv-x="1496" d="M1378 297q0 -39 -14 -47q-54 -28 -120 -41t-135.5 -22.5t-138 -21.5t-128.5 -38q0 -10 2 -29t2 -30q0 -52 -131 -52q-12 1 -21.5 11.5t-18.5 22.5t-17.5 21t-18.5 7q-15 0 -109 -27l-77 -21q-29 -8 -41 -14q-122 -39 -170 -39q-41 0 -66 23q-35 35 -35 68q0 49 74 72 q73 24 174 42l131 27q67 14 121 39q4 61 8 112t9 94l12 101q6 58 16 131l33 243l13 93q6 44 11 86q-58 0 -161 -70q-35 -23 -63 -38.5t-48 -25.5q-39 -19 -113 -40q-58 -16 -98 -16q-27 0 -36 17t-9 46q0 48 29 63q37 19 104 47l56 24q21 9 28 13l82 42l73 40l86 50l118 71 q79 47 96 47q32 0 54 -43q24 -44 24 -78q0 -28 -29 -57q-24 -103 -45 -208t-40 -216q-36 -221 -36 -354q0 -6 -0.5 -16t-0.5 -22l-2 -26v-26q0 -17 1.5 -30t3.5 -23q73 3 219 43q67 18 112.5 28.5t70.5 14.5q36 5 69.5 7.5t65.5 2.5q24 -47 24 -78z" />
<glyph unicode="2" horiz-adv-x="1496" d="M1428 199q0 -21 -12 -49q-13 -33 -75 -62q-60 -27 -102 -27h-37q-95 0 -141 13q-141 37 -346 37q-41 0 -84 -3t-89 -10q-94 -12 -159 -37q-122 -47 -153 -84q-38 -46 -61 -63q-23 -18 -68 -18q-78 0 -78 69q0 76 35 123q55 76 132 127q39 26 90.5 55.5t117.5 63.5 q48 24 97 51.5t89 65.5l74 67l76 69q79 72 127 136q51 66 84.5 128.5t33.5 125.5q0 46 -39 96q-38 50 -96 85q-55 34 -102 34q-57 0 -160 -62q-51 -31 -91.5 -59.5t-70.5 -56.5l-22 -22l-23 -24q-11 -13 -22 -22t-24.5 -14t-31 -7.5t-41.5 -2.5q-19 0 -42 44q-21 43 -21 68 t14 37q17 15 47 35l64 43l92 63l79 52q38 23 76.5 40.5t80.5 30.5q63 19 176 19q99 0 188 -80t148 -187q36 -72 36 -81q0 -79 -66 -188q-32 -55 -71.5 -108t-85.5 -105q-90 -102 -164 -165q-140 -122 -264 -186q26 2 65 3t93 1q106 0 315 -12q28 -2 58 -3.5t62 -3.5 q64 -3 101 -3q25 0 67 16t62 16q17 0 39 -25q23 -26 23 -44z" />
<glyph unicode="3" horiz-adv-x="1496" d="M1343 532q0 -38 -38 -114q-19 -38 -35 -66t-30 -47q-31 -41 -88 -92q-56 -50 -98 -74q-57 -32 -125.5 -58.5t-150.5 -48.5q-164 -42 -298 -42q-27 0 -60.5 2.5t-73.5 7.5q-80 9 -138 27q-18 5 -32 17t-23.5 28t-15 35t-5.5 38q0 48 26.5 76.5t72.5 28.5q4 0 15 -5t35 -15 t34 -14.5t20 -8.5q108 -43 188 -43q102 0 275 39q131 27 223 104q148 124 148 199q0 109 -113 144q-113 36 -256 36q-195 0 -326 -74q-73 0 -73 43q0 16 11 46q10 27 25 42q13 13 36 33l57 49q91 82 186.5 159.5t198.5 150.5q-7 1 -15.5 1.5t-19.5 0.5q-54 0 -121.5 -7 t-137.5 -15.5t-137.5 -15.5t-121.5 -7q-81 0 -126.5 39.5t-45.5 117.5q0 31 20.5 54.5t50.5 23.5q22 0 54 -23q16 -11 30 -19.5t25 -13.5q25 -11 74 -11q71 0 260 18q42 6 96 10l119 9q65 5 110.5 7.5t71.5 2.5q123 0 123 -80q0 -55 -39 -88q-28 -22 -67 -48.5t-91 -57.5 l-93 -57l-72 -47q-31 -22 -59 -49t-54 -59q55 4 96.5 6t69.5 2q100 0 172 -20q86 -26 134 -62q46 -34 101 -112q21 -27 21 -103z" />
<glyph unicode="4" horiz-adv-x="1496" d="M1418 528q0 -23 -18 -41t-41 -18q-28 0 -47 10q-51 19 -118.5 30t-133.5 11q-27 0 -43.5 -0.5t-36.5 -1.5q-33 -114 -33 -213q1 -23 1 -45v-41q1 -20 1 -45v-57q0 -10 26 -42t26 -44q0 -15 -9 -32.5t-23 -33.5t-31 -26.5t-32 -10.5q-19 0 -69 11q-33 8 -48 49 q-14 44 -14 86q0 21 2 51.5t6 71.5q7 81 9 122q4 97 24 187q-12 2 -30 3t-41 1q-214 0 -345 -35q-144 -39 -260 -39q-25 0 -55.5 21t-52.5 47q7 31 69 99l67 69l77 74l73 66l50 44l153 123l91 73l73 60l29 24l37 34l38 34l33 30l30 26q14 12 32 24l47 36l65 48q73 55 93 55 q27 0 53 -10q28 -9 28 -31q-3 -12 -10 -36l-15 -54l-17 -62l-15 -56l-37 -150l-30 -124q-13 -55 -23.5 -111t-19.5 -113q66 -25 236 -25h18h51q66 -1 88 -28q22 -25 22 -95zM949 1149q-39 -37 -83 -73l-88 -70l-84 -68q-41 -34 -72 -68q-54 -57 -131 -121.5t-162 -125.5 q0 -15 18 -15q41 14 125 21q31 3 168 12q69 5 121 12t88 17q3 23 7 45.5t9 44.5q5 23 13 54l19 72q22 82 30 120q22 101 22 143z" />
<glyph unicode="5" horiz-adv-x="1496" d="M1583 1257q0 -32 -37 -72q-38 -41 -71 -48q-77 -17 -209 -17q-14 0 -49.5 1.5t-94.5 3.5l-106 3q-48 2 -84 2q-146 0 -230 -28l-34 -36l-31 -36l-31 -42l-39 -56l-35 -50q-14 -18 -18 -26q26 -15 64.5 -26.5t95.5 -21.5q28 -5 56 -9l55 -8l48 -7q20 -3 33 -6 q178 -32 270 -105q91 -73 91 -241q1 -43 -16.5 -87.5t-47.5 -85.5t-67.5 -75.5t-75.5 -58.5q-120 -77 -230 -113q-113 -35 -247 -35q-103 0 -185 23t-157 78l-23 16q-12 8 -21 17t-14.5 19.5t-5.5 23.5q0 96 121 96q26 0 58 -25l27 -19q10 -7 15 -9q105 -50 213 -50 q106 0 220 45q115 45 192 115q37 33 50 51q14 20 14 54q0 75 -37 122t-97 71q-60 25 -124.5 35.5t-143.5 16.5q-15 2 -38 4.5t-54 5.5l-55 7q-24 3 -41 6q-49 7 -105 43q-53 36 -53 70t37 77l87 126q79 118 132 185.5t78 71.5q23 5 56.5 8t78.5 5q50 3 139 6q90 5 166 6 l95 4t87 6q13 2 36.5 7.5t58.5 15.5q72 20 92 20q62 0 108 -37l16 -10q6 -4 10.5 -7.5t5.5 -8t1 -11.5z" />
<glyph unicode="6" horiz-adv-x="1496" d="M1370 471q0 -50 -20 -94.5t-53.5 -83t-77 -72.5t-89.5 -63q-46 -30 -91 -54l-83 -45q-104 -57 -354 -57q-73 0 -149 26t-139 72t-105.5 109.5t-49.5 138.5q1 81 12 148t32.5 128t55 119.5t78.5 122.5q42 58 81 106t79 91t83.5 82.5t93.5 80.5q27 22 56 42t58 35.5 t58.5 24.5t56.5 9q16 0 33 -6t30.5 -17t22 -26t8.5 -33q0 -69 -41 -77q-28 -3 -52 -10t-47 -18.5t-46.5 -28t-50.5 -39.5q-80 -68 -155 -149.5t-140 -167.5q-72 -94 -107 -190.5t-35 -181.5q0 -41 11 -70.5t30.5 -52t47.5 -42.5l61 -40q-1 8 -1.5 21.5t-0.5 30.5 q0 134 39 209q28 54 59 98.5t69 78.5t83.5 57.5t102.5 35.5q24 6 47.5 10.5t49 7.5t54 5t64.5 2q55 0 114 -20.5t107 -57.5t79 -87t31 -108zM1217 474q0 19 -17.5 40.5t-50 39t-78 29t-101.5 11.5q-96 0 -166 -30t-115.5 -85t-69.5 -132.5t-28 -172.5q19 -6 35 -9t32.5 -3 h34h38.5q52 0 109 17t111 43t101 57.5t78 61.5q43 41 65 71t22 62z" />
<glyph unicode="7" horiz-adv-x="1496" d="M1438 1258q0 -26 -10 -43l-32 -41l-34 -42l-36 -42l-32 -37q-14 -16 -34 -42l-40 -57l-44 -63l-39 -59l-31 -48q-12 -20 -16 -24q-40 -61 -84 -138t-82 -155l-44 -91l-40 -85q-18 -41 -32.5 -78t-20.5 -68q-6 -21 -6 -69q0 -18 -5 -36.5t-16.5 -33.5t-29 -25t-41.5 -10 t-42 13t-30 33t-18.5 43.5t-6.5 43.5q0 32 51 145l72 149l74 142l79 138q40 68 86 137l32 49l47 68l49 70q24 34 42 51q18 19 39.5 44t39.5 49l-19 14l-76 -4q-42 -2 -88 -5l-93 -4q-47 -2 -91 -3q-65 -2 -144.5 -3.5t-154.5 -3.5t-134 -3t-82 -1q-14 0 -24.5 7t-18 18.5 t-11.5 25t-4 26.5q0 15 7 31t18.5 29.5t26 22t29.5 8.5q28 0 71 -2.5t97.5 -6t119.5 -6t137 -2.5q33 0 74 1t86 2.5t93 4.5l95 6q37 3 69.5 6.5t63.5 6.5t62 5t65 2q26 0 43.5 -15.5t17.5 -44.5z" />
<glyph unicode="8" horiz-adv-x="1496" d="M1256 1022q0 -27 -45 -88q-22 -30 -41 -53t-35 -39q-34 -37 -60 -56l-39 -28l-62 -43q-37 -26 -62.5 -46t-40.5 -34q32 -13 65.5 -32.5t68.5 -47.5q36 -28 66.5 -59t56.5 -66q52 -68 52 -131q0 -23 -3 -47.5t-8 -51.5q-10 -52 -34 -81q-32 -40 -123 -73q-91 -32 -188 -50 q-49 -10 -89 -14.5t-71 -4.5q-72 0 -180 24q-108 26 -150 62q-55 49 -55 150q0 48 18 83q10 17 25.5 41t38.5 54q26 34 61.5 63.5t70.5 52.5l69 47q34 23 71 52l-53 30l-69 38q-34 20 -58 36.5t-47 37.5q-30 27 -67 87q-35 59 -35 95q-2 61 29.5 108t81 85t110.5 70.5 t118 66.5q89 55 213 55q21 1 59 -10t76.5 -28t70 -36t40.5 -35q17 -25 28 -96l8 -55q3 -20 5 -25q5 6 11.5 15t14.5 22q15 25 23 35q23 -6 43 -32q21 -26 21 -48zM1008 985q0 40 -13 73t-37 57t-57 37t-73 13q-47 0 -117 -30q-68 -28 -131 -71q-60 -41 -86 -81 q-16 -23 -16 -35q0 -39 31 -75t80 -69l51 -32q26 -16 55 -32l47 -26l26 -16l46 38l54 48q30 25 55.5 51.5t44 52.5t29.5 50.5t11 46.5zM1022 291q0 44 -46 99q-47 56 -109 99q-64 44 -109 60q-104 -69 -204 -165q-101 -95 -101 -173q0 -42 56 -66q57 -24 104 -24q29 0 66 2 t82 6q46 4 81 10.5t60 14.5q10 4 23 10.5t30 17.5q33 21 47 35q20 20 20 53v21z" />
<glyph unicode="9" horiz-adv-x="1496" d="M1298 1102q0 -31 -24 -86q-32 -77 -55 -137.5t-37 -106.5q-20 -60 -46 -154l-61 -227l-15 -61q-8 -30 -12 -54q-5 -23 -9.5 -55.5t-4.5 -64.5q0 -150 -68 -150q-50 0 -69 33q-17 25 -27 60t-10 63q0 34 25 128l27 98l28 100l27 92l20 69l-18 13l-79 -45l-83 -43 q-82 -41 -135 -52q-104 -18 -181 -18q-39 0 -94 44q-53 44 -93 104q-38 59 -38 96q0 102 51 188q52 85 120 144q35 30 83 67l109 82q30 21 102 45q36 13 72 22.5t71 17.5q72 15 113 15q40 0 70.5 -9t56.5 -26q27 -16 53 -40l58 -52q23 -17 36 -27.5t17 -15.5q8 -10 20 -57z M1124 1081q-17 46 -66 66q-51 20 -106 20q-98 0 -167 -24q-68 -24 -146 -84q-35 -26 -69 -59t-68 -74q-68 -80 -68 -146t42.5 -101.5t109.5 -35.5q73 0 183 51q113 54 195 109q62 43 74 63q20 36 30 68l25 75q14 41 31 72z" />
<glyph unicode=":" horiz-adv-x="610" d="M449 889q0 -20 -17 -49q-15 -27 -33 -41q-44 -37 -110 -37q-26 0 -54 48q-28 47 -28 77q0 18 24 57q26 40 41 51q23 17 66 17q5 0 30 -14q24 -14 27 -15l19 -15l12 -8l7 -6q3 -2 6 -6q6 -7 8 -20t2 -39zM424 209q0 -11 -2 -27t-6 -37q-5 -24 -56 -74q-53 -51 -75 -51 q-58 0 -77.5 29.5t-19.5 89.5q0 26 1.5 45t3.5 33q3 21 41 47q38 25 59 25q80 0 123 -49q8 -10 8 -31z" />
<glyph unicode=";" horiz-adv-x="676" d="M479 889q0 -47 -56 -79t-106 -32q-25 0 -46 37t-21 64q0 22 21 69q23 47 38 58q11 8 31 8q8 0 58 -24q51 -23 57 -27q24 -23 24 -74zM457 102q0 -27 -32 -99q-16 -35 -29 -58t-23 -35q-29 -30 -76 -56q-23 -14 -56 -30l-77 -37q-81 -35 -133 -35q-27 0 -27 41q0 20 8 31 q142 31 226 115q16 16 40 66q25 49 25 71q0 26 -2.5 54t-7.5 58q-1 12 -16 35q-13 20 -13 37q0 20 15 46t36 26q17 0 34 -3t32 -9.5t26 -15.5t15 -21q35 -114 35 -181z" />
<glyph unicode="&#x3c;" horiz-adv-x="1098" d="M981 256q0 -26 -29 -58q-29 -30 -57 -30q-6 0 -64 33q-215 119 -335 168q-41 16 -98.5 46t-133.5 75q-151 88 -151 128q0 78 127 166l26 20q14 10 19 15q43 53 89 95l97 87q23 21 57 47l80 60q92 67 137 104q7 6 31 33l20 21l13 14q16 16 51 16q28 0 49 -17t21 -44 q0 -82 -385 -365q-19 -14 -41.5 -34.5t-50.5 -49.5l-65 -63l-79 -74q7 -9 25.5 -20.5t47.5 -25.5q57 -28 60 -28q8 -4 19.5 -11.5t27.5 -20.5t30 -21.5t26 -13.5l149 -64l137 -63l47 -19l48 -22q55 -27 55 -84z" />
<glyph unicode="=" horiz-adv-x="1282" d="M1105 931q0 -16 -7 -37t-17 -32q-12 -15 -53 -17q-23 0 -61 17q-44 15 -63 15q-7 0 -19.5 -2t-26 -3.5t-25.5 -3.5t-19 -2q-32 0 -90 6q-60 6 -99 6q-98 -3 -194.5 -14.5t-193.5 -14.5q-41 -1 -64.5 11t-24.5 57q-2 29 12 52t39 30q98 29 199 32q16 1 34.5 -0.5 t41.5 -4.5q43 -3 68 -3q24 1 42.5 1.5t35 0.5t32.5 0.5t34 0.5q54 2 99 6.5t82 12.5q4 1 26 1q22 1 46 0t49 -3q14 -2 37 -13t52 -33q11 -8 19 -29t9 -37zM1120 401q0 -11 -3.5 -24.5t-11.5 -29.5q-17 -28 -33 -29q-27 0 -94 12q-34 5 -61.5 7.5t-47.5 2.5q-68 -3 -192 -3 h-122q-61 0 -122 -1t-109 -1.5t-83 -2.5q-15 0 -45 42q-27 40 -29 63q0 31 62 44q32 8 58 12t48 5q23 2 60 0l88 -4q51 -1 82 -1.5t42 -0.5q13 0 31 1.5t42 5.5q23 4 44.5 6t38.5 2q105 4 230 -17q126 -23 127 -89z" />
<glyph unicode="&#x3e;" horiz-adv-x="1174" d="M1063 690q0 -17 -40 -50q-39 -33 -90 -69l-42 -30l-27 -19q-17 -10 -56 -42l-32 -26q-12 -10 -14 -12l-111 -120l-69 -75l-53 -58q-23 -25 -47 -48l-50 -45q-17 -14 -47 -14q-28 0 -56 24q-28 25 -28 54q0 23 16 40q15 16 42 37q15 10 23 18l13 13q54 64 103.5 117 t97.5 98q14 15 34 31l43 35q48 37 86.5 69.5t69.5 65.5q-57 75 -122 107l-60 31l-85 47l-138 75q-23 12 -42 21t-36 18.5t-33 20t-32 24.5q-54 50 -86 86q-7 9 -12.5 21.5t-9 25.5t-5.5 25.5t-2 21.5q0 21 13 35t36 14q18 0 41 -15q22 -13 73 -54l41 -30l23 -17l107 -69 l151 -95l115 -71l108 -60q126 -65 164 -94q11 -7 18 -26.5t7 -35.5z" />
<glyph unicode="?" horiz-adv-x="1055" d="M1055 1161q0 -66 -11 -119t-31 -95t-49.5 -74.5t-66.5 -56.5q-74 -48 -180 -84l-105 -36l-104 -34q-32 -84 -55 -191q-11 -49 -43.5 -65.5t-92.5 -16.5q-9 0 -16 43q-6 43 -6 57q0 41 14 80q13 37 42 97l23 46q9 18 11 25q54 46 114 75q58 28 161 66l86 32q35 14 55 24 q22 11 40.5 32t32 47.5t20.5 55.5t7 55q0 35 -13 86q-12 52 -24 78q-9 21 -29.5 35.5t-46 24t-53 14t-49.5 4.5q-78 0 -126 -13q-50 -12 -93 -57q-13 -13 -18 -38q-5 -24 -14 -36q-8 -12 -50 -26q-30 -6 -57 -6q-56 0 -56 61q0 53 57 115q60 65 136 107q78 45 129 45 q12 0 36 1l51 2l51 2q24 1 36 1q24 0 65 -12t58 -25q54 -36 86 -67.5t49 -67.5t22 -81.5t7 -109.5zM446 80q0 -33 -18 -51q-76 -76 -149 -76q-23 0 -43.5 7.5t-36.5 21t-25.5 33.5t-9.5 44q0 38 65 80q13 10 21 17t15.5 11t16.5 5.5t25 1.5q5 0 14 -4t18.5 -9t19.5 -11 l16 -11q71 0 71 -59z" />
<glyph unicode="@" horiz-adv-x="1686" d="M1573 874q0 -127 -65 -245t-175 -164q-2 -1 -19 -7l-49 -15q-60 -19 -73 -19q-48 0 -90 26.5t-70 65.5q-24 -20 -67.5 -45t-92.5 -47t-97 -36t-79 -13q-66 0 -131 56t-65 120q0 82 47 182q27 59 88 139q62 83 131 139q70 58 131 58q63 0 108 -11.5t82 -45.5q13 -9 13 -31 q0 -12 -0.5 -19t-1.5 -16q0 -18 18 -18q9 0 24 8t25 8q56 0 56 -53q0 -14 -32 -92l-25 -59q-8 -21 -9 -25q-12 -41 -12 -86q0 -22 13 -33.5t54 -11.5q60 0 117 45q59 45 93 112q36 67 36 125q0 109 -78 244q-50 87 -70 115q-19 29 -77 69q-41 32 -104 59q-62 27 -107 27 q-81 0 -190 -71t-203 -165q-93 -93 -148 -171q-36 -51 -75.5 -116.5t-78.5 -138.5q-19 -36 -35 -71.5t-27.5 -68t-18 -61t-6.5 -50.5q0 -103 81 -185q83 -83 191 -135q133 -63 307 -63q77 0 189 23q109 24 216 63q109 41 175 82q1 2 13 10l32 24q40 33 49 33q15 0 35 -14 t20 -26q0 -55 -18 -89q-24 -47 -113 -89t-162 -60q-140 -36 -261.5 -57t-243.5 -21q-146 0 -299 60q-152 60 -251 174q-98 116 -98 268q0 100 72 258q37 80 74.5 147t77.5 123q97 140 206 249.5t238 178.5q38 20 69.5 34.5t57.5 24.5q51 19 115 19q136 0 244.5 -65 t193.5 -185q53 -74 89 -181t36 -194zM1030 877q0 9 -25 30l-22 18l-14 11q-44 -3 -76 -18q-30 -15 -74 -50q-13 -11 -29 -30t-36 -48q-20 -28 -37.5 -57t-32.5 -58q-29 -60 -29 -91q0 -24 6.5 -38.5t20 -22t34 -9.5t48.5 -2q29 0 83 25q56 25 100 60t44 62q0 8 -1 21.5 t-2 28.5t-2 28t-1 21q0 30 22 73q23 44 23 46z" />
<glyph unicode="A" horiz-adv-x="1714" d="M1667 66q0 -40 -25.5 -68.5t-66.5 -28.5q-18 0 -29 8q-14 11 -31 29.5t-36 46.5q-37 57 -67.5 119.5t-49.5 110.5q-5 14 -10 25l-12 24l-11 28q-6 14 -13 35q-29 86 -42 113q-14 -14 -27 -21.5t-27.5 -11t-30 -4t-33.5 -0.5q-10 0 -25 -4l-33 -9q-17 -5 -34 -11t-32 -10 q-50 -14 -101 -25t-105 -21.5t-113 -20.5l-125 -20q-30 -5 -57 -39l-108 -150q-80 -114 -136 -167q-55 -53 -107 -53q-66 0 -110 26q-50 32 -50 68q0 19 21.5 27.5t58.5 15.5q12 1 55 49q41 46 62 76l85 117l98 141l46 69l33 49l31 45l41 56l24 34l33 45l34 46q16 20 27 36 l31 40l43 57q8 10 31 47l64 102q56 93 73 136q117 284 176 284q26 0 42 -4.5t25 -15t12 -28t3 -42.5v-30q0 -13 -1 -21q-1 -16 -2 -41t-3 -59q50 -105 95 -226l48 -134l55 -159l51 -147l36 -99l34 -87q19 -49 46 -111q10 -23 75 -111q64 -88 64 -126zM1224 657l-39 119 l-43 126q-23 64 -46.5 123t-46.5 105l-106 -146l-97 -140l-92 -145l-92 -158q11 -4 20 -4q15 0 38.5 2.5t48 6t47 7.5t36.5 7q24 6 42 10l33 8l35 8l44 11l115 31q57 15 103 29z" />
<glyph unicode="B" horiz-adv-x="1546" d="M1483 535q0 -23 -6 -66q-6 -44 -9 -51q-13 -52 -47 -113.5t-79 -118.5q-43 -55 -87 -98.5t-75 -64.5q-32 -23 -80.5 -45.5t-114.5 -42.5q-131 -41 -229 -41q-84 0 -154 30q-70 28 -70 109q0 49 25.5 71.5t91.5 22.5q73 0 127 -25q55 -24 94 -24q22 0 88 15q65 16 103 42 q42 28 87 72.5t82.5 96t60.5 104.5t22 100q0 68 -54 121q-54 54 -127 84q-74 30 -126 30q-80 0 -122 -12q-43 -11 -82 -30t-67 -19q-32 0 -66 21t-34 53q0 28 8.5 48.5t22.5 35t32 23t38 12.5q20 5 43 8.5t49 5.5q52 4 63 10q69 40 142 95q38 28 70.5 57.5t61.5 60.5 q58 61 58 100q0 53 -44 80t-145 27q-33 0 -71 -3t-78 -9.5t-80.5 -16t-79.5 -21.5t-75 -27t-67 -33t-55 -38.5t-39 -42.5q-8 -12 -11.5 -40.5t-6.5 -90.5q-1 -31 -2 -67.5t-3 -81.5l-4 -78q-1 -32 -3 -55l-5 -47l-9 -64q-10 -72 -15.5 -125t-5.5 -100q0 -16 1 -38.5t3 -51.5 t3 -51.5t1 -36.5q0 -87 -23 -127.5t-77 -40.5q-119 0 -119 203q0 24 24 161q24 136 27 170q5 46 8.5 87t7.5 78l9 87l12 115q5 40 7.5 65t2.5 35q0 24 -7 53q-4 16 -5.5 27.5t-1.5 18.5q0 74 27 127q35 70 57 71q35 5 66 12.5t59 16.5l206 69q75 25 98 32q46 15 96 21 q26 4 62 5.5t84 1.5h56h4q20 0 52 -10q34 -11 69.5 -29t65.5 -40.5t42 -45.5q14 -21 24 -64q5 -22 8 -39.5t3 -31.5q0 -81 -69.5 -166t-202.5 -193q74 -15 142.5 -48.5t121 -79t84 -99t31.5 -108.5z" />
<glyph unicode="C" horiz-adv-x="1510" d="M1721 645q0 -62 -85 -153q-21 -23 -52 -51l-64 -57l-68 -56l-65 -51q-96 -74 -201 -140t-212 -116t-213.5 -79t-205.5 -29q-108 0 -188 31t-132.5 88t-78.5 137.5t-26 179.5v9q0 86 18 174q20 93 55 183t84 173.5t107 154.5q35 43 79 87.5t92.5 86.5t98.5 78.5t98 64.5 q31 18 79 42t101 45t105 35.5t90 14.5q61 0 97.5 -8.5t64.5 -28.5q13 -10 30.5 -30.5t33 -45t26 -49t10.5 -41.5t-16 -51t-37 -70.5t-42 -68t-32 -43.5q-41 -45 -88 -45q-40 0 -62.5 24.5t-22.5 61.5q0 13 15 40.5t50 62.5t54.5 64.5t24.5 39.5q-20 14 -49 22t-54 8 q-36 0 -89 -16.5t-108.5 -42.5t-108 -57.5t-88.5 -60.5q-103 -85 -190 -183t-144 -217q-23 -49 -43.5 -102.5t-35.5 -108.5t-23.5 -109.5t-8.5 -104.5q0 -59 13.5 -110t44.5 -88t81.5 -58t124.5 -21q80 0 164 22t167.5 59.5t165.5 86t157.5 101.5t143.5 106l124 100l49 42 l50 46l48 46l42 42q45 -23 45 -66z" />
<glyph unicode="D" horiz-adv-x="1778" d="M1694 907q0 -127 -95 -246q-96 -120 -241 -218q-73 -49 -148.5 -91.5t-154.5 -77.5t-148.5 -61.5t-130.5 -44.5q-74 -23 -180 -72l-20 -10l-29 -16q-33 -19 -53 -23q-89 -20 -115 -20q-48 0 -82 29t-45 77q-10 42 -14.5 70t-4.5 43q0 14 6 41q7 27 7 47q0 15 2 34.5 t6 44.5l6 41q3 15 4 23l15 95l28 184q10 61 23 129t30 145q2 7 4.5 18t6.5 26q8 30 12 51t4 40q0 20 -12 34t-34 29q-21 16 -29.5 26.5t-8.5 31.5q0 40 34 80q35 41 73 41q46 0 123 -9q76 -9 106 -9q51 0 155 6q103 6 154 6q145 0 273 -23t231 -82q28 -16 82 -57 q54 -38 107 -150t53 -182zM1520 907q0 139 -102 213q-101 73 -240 96q-69 11 -140.5 17t-146.5 6q-23 0 -48 -1.5t-53 -3.5q-55 -5 -104 -10t-106 -7l-28 -137l-28 -150q-3 -19 -9 -50l-15 -75q-8 -45 -15.5 -82t-12.5 -69l-10 -66q-5 -35 -9 -70.5t-6.5 -70t-2.5 -64.5 q0 -73 23 -119q75 10 153 33q39 11 81.5 25t88.5 31l82 29q36 13 62 21q307 101 401 189q15 14 34 36t42 53q46 62 78 125q31 61 31 101z" />
<glyph unicode="E" horiz-adv-x="1536" d="M1571 1422q0 -9 -4.5 -22t-11 -26.5t-15 -25t-17.5 -15.5q-28 -13 -50.5 -19.5t-53.5 -12.5q-95 -18 -185.5 -30.5t-171 -20t-147.5 -10.5t-114 -3h-45q-20 0 -38 -1h-35q-17 -1 -36 -1q-45 0 -77.5 1t-55.5 3q-15 -35 -21 -86t-9 -105.5t-4.5 -106.5t-6.5 -91 q20 -14 34.5 -21.5t29 -11t30.5 -4t39 -0.5h56q30 0 60.5 1.5t59.5 4t52 8.5q39 10 69 11t58.5 1t57.5 3.5t65 17.5q26 10 47 19t40 15t36.5 9.5t37.5 3.5q16 0 27 -11.5t17 -29t8.5 -39t2.5 -41.5q0 -22 -16 -37t-37.5 -25t-43.5 -16t-35 -9q-23 -5 -60.5 -8t-78.5 -5.5 t-79.5 -4t-63.5 -4.5q-69 -8 -144 -11.5t-152 -3.5q-39 0 -66.5 -5t-61.5 -15q-7 -2 -15 -26.5t-17 -61.5t-18 -81l-19 -84q-14 -61 -20.5 -111t-8.5 -71q6 -6 15 -13t20 -7q26 0 62.5 0.5t75.5 1.5t76 2.5t64 3.5l138 13q72 6 140 14t128.5 17.5t104.5 21.5q-1 0 14 4 l37 11l50 14l50 13q23 6 38.5 10.5t14.5 4.5q15 0 29 -8t25 -21.5t17.5 -31.5t6.5 -39q0 -8 -8 -22.5t-22 -29.5t-32.5 -28t-40.5 -17l-95 -17q-44 -7 -90.5 -13t-98.5 -11.5t-116 -11.5l-155 -16q-77 -9 -144 -18l-120 -16q-53 -8 -78 -13q-23 -5 -51 -13l-55 -14 l-52 -12.5t-39 -5.5q-27 0 -48 7.5t-35 26.5t-21 51t-7 81q0 43 12 96l29 128q11 62 25 123.5t26.5 123t21 123t9.5 124.5q1 45 7 91l10 93q6 47 10.5 94t4.5 92q0 8 -2 22t-2 21q0 43 31 95q8 13 26.5 27t41 25.5t44.5 18.5t38 7q10 0 34.5 -4t51.5 -9.5t51.5 -9.5t34.5 -4 q17 0 45.5 -0.5t62 -1t70.5 -0.5t70 2q76 4 144.5 9t143.5 18q45 7 83 19l73 23q35 10 69.5 18t70.5 8q13 0 26 -6.5t23.5 -17t17 -24.5t6.5 -28z" />
<glyph unicode="F" horiz-adv-x="1193" d="M1227 1315q-13 -9 -38 -10t-53 2l-54 6q-25 3 -40 1h-11q-21 0 -55 -2q-45 -4 -101 -11t-116 -16.5t-112 -20.5t-89 -22.5t-47 -21.5q-4 -5 -13.5 -32.5t-20.5 -71t-22 -99t-19.5 -115.5t-13.5 -121q-3 -38 -3 -74q0 -21 1 -42q69 20 140 35l155 31q39 7 84 21l89 28 q45 13 85 23t70 10q27 0 45 -5t30 -15.5t19 -27t13 -39.5q1 -7 -5 -16.5t-15.5 -20t-19 -19.5t-14.5 -15q-11 -11 -39.5 -20.5t-60.5 -16.5t-62.5 -12t-45.5 -8l-106 -20l-110 -22l-102 -23q-48 -11 -86 -22t-61.5 -21t-27.5 -19q-8 -18 -13 -46.5t-8.5 -63t-4.5 -72.5 t-1 -75q-1 -12 -1 -24q0 -24 1 -47q1 -34 2 -59q0 -34 1.5 -66t-5.5 -63q-7 -22 -24 -34q-15 -10 -42 -10q-6 0 -14 1q-5 1 -23 7.5t-37.5 21t-35 36t-15.5 52.5v18q0 111 11 211l26 213q10 85 23 177l27 185l27 185l26 176q2 16 -1 32.5t-8 33t-10.5 33t-8.5 32.5 q-2 15 7 32t23 31.5t30 24t30 8.5q20 -2 36.5 -5t31.5 -5t30 -3.5t32 -1.5q29 0 66.5 5t78 12.5t82.5 16.5l77 15q111 20 204 33.5t171 13.5q12 0 29.5 -6t34.5 -15t29.5 -20.5t13.5 -23.5v-7q0 -24 -11 -52q-12 -34 -55 -63z" />
<glyph unicode="G" horiz-adv-x="1645" d="M1616 1376q0 -45 -24.5 -76.5t-69.5 -31.5q-17 0 -37.5 15.5t-37.5 30.5q-16 16 -37 28t-46 12q-123 0 -317 -82q-97 -42 -181 -95.5t-165 -120.5t-153.5 -148.5t-127.5 -162.5q-51 -73 -80 -177q-27 -102 -27 -199q0 -46 47 -96q47 -48 97 -62q61 -16 145 -16h7 q60 0 128 15q72 17 144 45.5t140 65t124 76.5q20 16 42.5 37.5t45.5 50.5q24 29 40.5 54t26.5 47q7 10 7 26q0 15 -6.5 37.5t-6.5 36.5q0 37 90 37q28 0 84 -42t56 -65q0 -3 -62 -127l-48 -96q-16 -34 -19 -41q-17 -39 -34 -87.5t-34 -107.5q-35 -119 -35 -169 q-2 -11 2.5 -21.5t10 -19t11 -15t5.5 -8.5q0 -24 -8.5 -44.5t-23 -36t-35 -24.5t-44.5 -9q-52 0 -70 35.5t-18 95.5q0 16 1.5 31t3.5 30q6 31 15 69l9 33q4 15 6 25q14 56 14 76q0 10 -4 10q-21 0 -131 -55l-90 -43q-33 -16 -45 -21q-174 -71 -328 -71q-99 0 -209 40 q-112 41 -188 117q-76 77 -76 178q0 296 273 613q120 139 234 235q112 93 274 176q26 14 59 28.5t73 29.5q81 31 161 54t149 32q43 6 129 6h5q28 0 56 -12q30 -12 53 -34.5t37 -51.5t13 -60z" />
<glyph unicode="H" horiz-adv-x="1687" d="M1606 1553v-16q0 -31 -6 -73q-7 -54 -19.5 -122.5t-28.5 -148t-31.5 -167t-28.5 -180t-20 -185.5q-1 -7 -4 -40l-6 -81l-7 -108q-4 -60 -7 -121t-4 -119q-1 -26 -1 -48q0 -30 1 -56t-12.5 -50t-33 -43.5t-40 -31t-34.5 -11.5q-12 0 -27 5.5t-28.5 16t-23 27t-11.5 37.5 q-1 16 3 55.5t11 92.5l16 114q8 60 14.5 117t9.5 106q2 29 2 52q0 15 -1 27q-2 24 -19 36.5t-41 12.5q-32 0 -85 -4l-108 -9l-110 -7.5t-87 -3.5q-7 0 -38 -1.5t-74 -4.5l-91 -7q-48 -3 -90.5 -7t-73 -8.5t-36.5 -7.5q-6 -4 -12.5 -24.5t-12.5 -50t-11.5 -66t-10 -72 t-7.5 -68t-4 -54.5l-4 -116q-2 -58 -11 -103t-28.5 -73t-55.5 -28q-13 0 -32 13.5t-36.5 33.5t-30.5 42t-14 40q-1 6 -1 13q0 14 3 31q4 25 10 51l12 50q6 24 9 41q14 65 28.5 149.5t28.5 181.5l28 205q14 107 27 217l25 221l23 214q1 12 8 25.5t18.5 24t27 16t32.5 2.5 q48 -9 71 -31.5t27 -62.5q2 -22 2 -45q0 -49 -9 -102q-13 -79 -30.5 -159t-31.5 -158q-13 -65 -13 -123q0 -12 1 -24q1 -14 14 -21.5t31 -11.5t37 -5t33 -1q21 0 80.5 2t138 6.5t165 12t161.5 18t127.5 24.5t63.5 32q7 11 15.5 45.5t18 86.5t18.5 117.5t16.5 138.5t12 149.5 t4.5 150.5q0 9 8.5 23t23 27t33 22.5t39.5 9.5q14 0 31.5 -4.5t33.5 -13.5t27 -23t12 -34z" />
<glyph unicode="I" d="M543 1291q0 -27 -39 -125q-20 -50 -31 -82.5t-13 -47.5q-20 -119 -38.5 -256t-35.5 -296q-6 -43 -10 -74.5t-7 -51.5q-2 -20 -5 -43.5t-5 -51.5t-2.5 -51t0.5 -43q0 -12 13 -36q12 -22 13 -38v-3q0 -34 -49 -67q-25 -17 -46.5 -25.5t-40.5 -10.5q-29 0 -46 14 q-19 20 -32 50t-14 51q-2 42 -2 84q0 21 1 42q1 63 9 128q8 64 19.5 145t28.5 180l25 129l22 114l25 124l31 153q5 30 9 51t7 33q2 14 6 37l12 58q1 12 7.5 27.5t16 29.5t21 24.5t22.5 10.5h4q18 0 41 -10q24 -10 39 -27q20 -20 30 -42.5t12 -47.5q1 -16 1 -28 q0 -4 0.5 -13.5t0.5 -14.5z" />
<glyph unicode="J" horiz-adv-x="1255" d="M1139 1071q0 -187 -10.5 -324t-32.5 -227q-5 -23 -18.5 -56.5t-34.5 -79.5t-40 -82t-36 -62l-22 -29q-14 -18 -36 -43q-77 -89 -163 -131q-87 -41 -203 -41q-84 0 -174 12q-88 12 -172 44q-83 32 -131 83q-17 17 -17 41q0 22 9 40.5t24 32t35 20.5t43 7q24 0 126 -43 l88 -35l57 -23q42 -15 83 -15q134 0 217.5 60t134.5 186q74 180 74 479q0 42 -3.5 135t-10.5 240q-2 52 -4 91.5t-2 65.5q-2 6 5 15t17 18t20 16.5t15 12.5q13 12 39 12q29 0 51 -14.5t29 -38.5q1 -2 4 -29t10 -79q14 -103 21.5 -172t7.5 -87z" />
<glyph unicode="K" horiz-adv-x="1599" d="M1581 270q0 -18 -15 -38t-36.5 -37t-44.5 -28t-39 -11q-57 0 -178 42q-60 21 -120 45l-122 50l-112 51l-93 45q-123 62 -336 92q-19 -12 -31 -32t-18.5 -47t-9 -59.5t-2.5 -68.5q0 -47 8 -82t25 -71q35 -73 35 -101q0 -32 -37 -53q-36 -21 -80 -33q-80 45 -105 129 q-26 86 -26 193q0 100 4 200l6 182q3 82 7.5 181.5t8.5 231.5q1 24 2 59t3 81q2 47 3 81t1 57q0 5 -1 14.5t-2.5 20.5t-2.5 20.5t-1 14.5q0 35 27 61q28 27 61 27q28 0 65 -19q38 -18 38 -45q0 -13 -3.5 -32.5t-6.5 -34.5q-5 -37 -8 -77t-5 -85q-5 -105 -9 -223.5t-7 -255.5 q0 -25 5 -32t22 -7q26 0 60 21l69 42q175 106 342 297l92 112l75 90l39 46l43 46l43 42q21 21 39 37l16 14q10 9 21.5 17.5t22 15t18.5 6.5q10 0 24 -11t26.5 -26t21 -31.5t8.5 -27.5q0 -12 -13 -38l-18 -36q-8 -15 -11 -26t-7 -19t-11 -15.5t-22 -14.5q-9 -6 -23 -11 t-28 -11t-25.5 -13t-15.5 -17l-58 -89q-24 -36 -38 -54q-62 -78 -141 -151q-38 -36 -76 -67l-72 -59l-80 -59l-102 -74q114 -54 253 -110l296 -117q10 -3 24 -9l28 -11l27 -11q14 -6 23 -9q20 -5 41.5 -9t46.5 -4q12 0 30 1.5t39 4.5l42 6l41 6q20 -32 20 -80z" />
<glyph unicode="L" horiz-adv-x="1386" d="M1327 119q-20 -25 -51 -40.5t-55 -15.5q-14 0 -35 -1h-44l-43 -2h-35q-64 0 -133.5 -10.5t-138.5 -27t-136 -34.5l-128 -36q-60 -16 -111.5 -26.5t-88.5 -10.5q-60 0 -93.5 27.5t-35.5 65.5q-1 12 -1 26t1 31q2 33 8 72t14 82.5t18 88.5l15 78q10 48 19 100l17 102l13 82 l21 132l18 112l16 110q8 55 15 124q6 75 8.5 134t13 99.5t34 62t72.5 21.5q28 0 46.5 -11t30.5 -29t18 -41t8 -46q1 -7 -6 -45l-20 -95l-27 -125l-29 -140l-28 -137q-12 -67 -19 -117q-6 -44 -15 -95l-17 -102l-18 -102q-9 -51 -16 -95.5t-10.5 -80t-1.5 -56.5q2 -18 15 -33 t35 -15q24 0 60.5 6.5t78 17l84.5 22.5l82 24q9 3 34 8l60 13q33 7 71 14l71 13q34 6 60 10t36 4q13 0 36.5 3t53.5 5t65 2t70 -7q18 -4 27 -17.5t10 -31.5v-6q0 -15 -4 -30q-5 -18 -15 -31z" />
<glyph unicode="M" horiz-adv-x="2058" d="M1907 1516q0 -12 -4 -20t-13 -20l-14 -21q-6 -9 -6 -17q0 -2 -1.5 -7t-3.5 -15q-5 -18 -9 -29.5t-5 -16.5q-10 -35 -14 -68t-4 -73q0 -74 -6 -150q-2 -38 -7 -79l-9 -88l-9 -88l-10 -81q-7 -70 -10.5 -145.5t-3.5 -157.5q0 -55 2 -140.5t4 -197.5q12 -12 37 -30 q28 -18 40.5 -30.5t12.5 -33.5q0 -38 -40 -74q-41 -36 -79 -36q-101 0 -135 136q-35 138 -35 279q0 45 6 90t11 91q3 32 10 92l16 151l15 137q5 48 6 56q1 7 2.5 23t4.5 42q7 52 10 90t3 60q1 7 1.5 13t0.5 16q0 7 -10 26l-40 -54l-52 -70l-96 -129l-37 -50l-38 -50l-44 -57 l-54 -75l-129 -183q-3 -5 -10 -15l-18 -26q-22 -33 -25 -36q-70 -92 -129 -109q-96 28 -131 88l-16 28l-12 22l-12 22l-13 22l-36 64l-29 52q-25 46 -49 98.5t-44 109.5l-20 62q-8 25 -12 36q-4 12 -10 32l-14 48l-17 57l-20 59q-20 63 -22 68q-7 -28 -20 -71l-26 -91 l-26 -98q-13 -49 -22 -88l-18 -76l-17 -67l-51 -195q-22 -84 -22 -166q0 -17 3 -45.5t10 -69.5q7 -40 10 -72t3 -56q0 -26 -27 -65q-27 -38 -53 -38q-9 0 -27 2t-28 2q-56 0 -81 67q-25 66 -25 138q0 20 10 59l12 48l16 64q10 35 15 55l6 24l40 153l32 119l29 109l32 119 l35 121q14 50 23 98q8 55 12 74q5 25 14 51t20 52q22 54 56 54q74 0 118 -14q43 -13 72 -65q14 -23 24 -46.5t17 -48.5q7 -24 15 -55.5t16 -71.5q4 -21 12 -41t17 -45q77 -235 231 -467q5 5 32 24q13 10 22.5 18t15.5 16q14 17 29 38.5t29 47.5l57 97q26 45 59 81 q16 17 37 43l50 63l50 63l35 44q17 19 31 37l28 35l30 39l36 49l29 35l17 21q8 10 13 17l39 57q22 32 47 74l46 72l34 51q6 9 21 9h3q13 0 34 -8q23 -9 44.5 -22.5t36.5 -28.5t13 -27z" />
<glyph unicode="N" horiz-adv-x="1715" d="M218 296q12 47 28.5 118.5t33.5 155.5l36 176q18 91 33 177t26 161t15 128q1 21 -0.5 44.5t1.5 46t14 43t39 34.5q30 15 56 15h6q28 -2 61 -20q7 -4 14 -22t13.5 -42t12 -50.5t10.5 -45.5q12 -46 42.5 -115t75.5 -151.5t101.5 -175t119.5 -185.5l128 -180 q65 -88 129 -163q27 104 47 198t36 185l32 180l30 185l17 109q9 61 17 122.5t13.5 119t6.5 99.5v34q0 17 1.5 32.5t7 30t17.5 25.5q32 29 58 35t55 6q14 0 26 -16t21 -38t14 -46q7 -28 7 -42q0 -13 -4 -36q-5 -29 -13 -62l-15 -65q-8 -32 -13 -50q-23 -91 -46.5 -200.5 l-45.5 -221.5l-40 -219q-19 -107 -33 -193t-21 -143q-7 -49 -7 -64q0 -6 0.5 -18.5t0.5 -18.5q1 -19 1 -37v-36q0 -16 1 -25q2 -24 -4.5 -41.5t-17 -29.5t-23.5 -19.5t-24 -11.5q-13 -4 -30 -7t-33.5 -3t-31 2.5t-21.5 10.5q-38 36 -63.5 69.5t-33.5 65.5q-2 10 -10 24.5 t-18 28.5l-18 28q-9 12 -15 19l-128 170q-63 86 -126.5 183t-128.5 208t-135 243q-28 -100 -50 -213t-40 -222t-32 -206l-24 -167q-3 -20 -3 -49v-60q0 -30 -2 -56.5t-8 -41.5q-5 -11 -15.5 -26t-24 -29t-29 -23.5t-30.5 -9.5q-29 0 -45.5 9t-25.5 26.5t-13 43.5t-7 60v7 q0 12 2 34q4 29 10.5 63.5t14.5 71.5t17 69z" />
<glyph unicode="O" horiz-adv-x="1646" d="M968 1318q-74 0 -138.5 -28t-121.5 -74t-107.5 -104t-96.5 -118q-41 -53 -78.5 -119.5t-66.5 -140t-46.5 -152t-17.5 -156.5q0 -74 25 -134.5t65.5 -103.5t93 -67t108.5 -24q83 0 161.5 22.5t150.5 62t136 92t118.5 113.5t97 127t72.5 131q14 31 25.5 72t19 86t12 91 t5.5 87v23q0 27 -1 50q-3 32 -9 50q-11 31 -42 68.5t-82 69.5t-121.5 54t-161.5 22zM1582 927q0 -65 -19.5 -143.5t-56.5 -161t-91 -164.5t-122 -153q-109 -114 -200.5 -187t-181 -115t-183.5 -58.5t-207 -16.5q-57 0 -109.5 21.5t-98 58t-82.5 85.5t-63.5 103t-41 111 t-14.5 110q0 96 28 210t80.5 229t127.5 222.5t168 190t202.5 132.5t231.5 50q22 0 54 -0.5t70 -3.5t80 -8.5t82.5 -16t78 -26t66.5 -37.5q70 -53 110 -101.5t60.5 -99.5t25.5 -107.5t5 -123.5z" />
<glyph unicode="P" horiz-adv-x="1599" d="M1575 1239q0 -34 -29 -106q-14 -35 -27 -61t-26 -44q-71 -101 -232 -210q-162 -109 -323 -191q-106 -55 -211.5 -98.5t-212.5 -77.5q-6 -8 -6 -39v-33q0 -28 3 -77.5t8 -121.5t8 -127.5t3 -97.5q0 -38 -23 -60t-61 -22q-110 0 -110 477v29q0 56 7 121t19 157l10 60l9 66 q10 69 19 119t22 97l7 31l9 41q10 46 21 81q11 34 28 66t43 60q16 6 35 6q37 0 55.5 -22.5t18.5 -61.5q0 -5 -7.5 -30.5t-17.5 -54.5l-18 -55l-10 -32q-8 -21 -15 -57l-11 -59l-11 -65q-6 -33 -10.5 -66.5t-7.5 -64.5l-5 -56q-3 -27 -4 -46l78 33l105 44q118 49 210 93 q93 44 181 97q58 35 112.5 79t106.5 96q104 106 104 197q0 42 -82 64q-41 11 -83 17.5t-83 10t-79.5 4.5t-71.5 1q-197 0 -418 -43q-107 -23 -303 -90q-23 -9 -35 -9q-22 0 -36.5 13.5t-14.5 35.5q0 49 28.5 79t82.5 53q58 25 180 51q61 13 122.5 22.5t124.5 17.5 q126 15 189 15q54 0 104.5 -1t99 -4.5t97 -11t98.5 -19.5q100 -24 168 -78q68 -53 68 -142z" />
<glyph unicode="Q" horiz-adv-x="1701" d="M1596 724q0 -57 -16.5 -111.5t-44 -105t-62.5 -96t-72 -85.5q-32 -32 -63.5 -58t-64 -49.5t-67.5 -44.5l-70 -46q16 -22 44 -54l58 -70l64 -74q32 -38 57.5 -71.5t42 -59.5t16.5 -39q0 -17 -14.5 -35t-34 -32.5t-38.5 -24t-27 -9.5q-23 0 -40 12t-26 22q-16 33 -41 71.5 t-53 77.5l-58 75l-53 64l-39 45q-16 17 -17 17q-11 0 -42.5 -9t-80.5 -19.5t-113 -19.5t-140 -9q-55 0 -113.5 10.5t-113.5 32t-104 55.5t-86 80.5t-58.5 106.5t-21.5 135q0 122 42 251t113 252t165.5 232t198.5 191t212 130t207 48q25 0 56 -16t58.5 -42t47.5 -59t22 -67 q70 -54 136.5 -127.5t118.5 -154.5t83.5 -164t31.5 -156zM971 1326q-35 0 -68.5 -5.5t-62.5 -20.5q-72 -40 -141 -100t-130.5 -133.5t-113.5 -156t-89.5 -166.5t-58.5 -166.5t-21 -155.5q0 -81 29.5 -136t74.5 -88.5t99 -47.5t103 -14q10 0 39 1.5t67 5.5t80 11t80 18 q-5 21 -27 49.5t-47 55.5l-45 49q-20 23 -20 33q0 19 14 36t32 30t33.5 20.5t18.5 7.5q12 0 26.5 3.5t29 2.5t26.5 -10.5t18 -34.5q7 -31 23.5 -59t36 -49t38 -33.5t30.5 -12.5q32 0 74 23t85.5 61t85.5 87t75 100t53 101t20 91q0 66 -28.5 136.5t-73 137.5t-99 127 t-106.5 104.5t-95 71t-65 26.5z" />
<glyph unicode="R" horiz-adv-x="1794" d="M1825 35q-1 -40 -42 -61t-83 -21q-55 0 -110.5 24.5t-121.5 67.5q-35 23 -86 61l-120 91l-66 51l-130 102q-162 127 -183 135q-33 11 -105 11q-15 0 -48.5 -1.5t-86.5 -5.5q-37 25 -37 91q0 56 39 67q5 1 16.5 2.5t26.5 3t32.5 3t35.5 3.5q134 21 237 74q37 19 73 41 l73 45q73 49 130 109q58 59 58 116q1 42 -24.5 80.5t-65 69.5t-86.5 53.5t-88 34.5q-74 21 -152 21q-23 0 -54.5 -2t-71.5 -6q-39 -4 -73.5 -8t-63.5 -9l-62 -11q-34 -6 -72 -14q23 -37 40 -116t17 -129q0 -30 -1.5 -58t-3.5 -54t-5.5 -53t-8.5 -55q-9 -56 -24 -141 q-26 -148 -36 -232q-5 -43 -8 -83t-3 -78q0 -68 12 -121.5t46 -107.5q-14 -21 -40 -36.5t-50 -15.5q-67 0 -98 27q-32 29 -39 71q-7 41 -7 122q0 51 6 107t14 102l17 98q5 23 10 56l12 78q14 88 22.5 169t8.5 145q0 61 -4 126t-12 136q-110 -32 -123 -32q-31 0 -41 19 t-10 52q0 38 71 73q36 17 71.5 31t70.5 25q81 26 214 45q133 21 222 21q152 0 295 -36q141 -34 241 -125q99 -90 99 -241q0 -96 -72 -186q-72 -89 -169.5 -155t-211.5 -126l180 -126l107 -75l93 -66l97 -66l117 -80l112 -74z" />
<glyph unicode="S" horiz-adv-x="1253" d="M1190 1270q0 -13 -3 -32t-8.5 -38.5t-13 -37t-16.5 -27.5q-24 -29 -86 -29q0 68 -19 113q-9 21 -32.5 35.5t-52.5 24.5t-58.5 14.5t-50.5 4.5q-48 0 -92.5 -2t-87 -8.5t-86 -18t-90.5 -30.5q-36 -15 -75 -35.5t-72 -46.5t-57 -57t-30 -68v-5q0 -26 17 -59 q19 -36 51.5 -70t75 -62t88.5 -41q8 -3 37 -13l63 -21l62 -21q28 -9 36 -11q226 -58 335.5 -137.5t109.5 -194.5q0 -37 -16.5 -73.5t-41.5 -70t-54 -61.5t-54 -47q-29 -23 -66 -47.5t-79 -47.5t-87 -43t-91 -35q-45 -15 -94.5 -27.5t-98 -21.5t-93 -14.5t-79.5 -5.5 q-26 0 -67.5 7.5t-81.5 21t-68.5 32t-28.5 39.5q0 13 3.5 32t10 37t15 30.5t19.5 12.5q20 0 41.5 -6.5t51 -14.5t70 -14.5t98.5 -6.5q60 0 124.5 12.5t126.5 33.5t118.5 48t101.5 56l47 33q25 18 47 40t37 47t15 52q0 38 -56 73q-55 34 -112.5 53t-102.5 30 q-55 14 -123.5 37t-150.5 55q-136 52 -230 152t-94 241v6q0 63 40 121q43 61 115 113t164.5 92.5t190.5 63.5q20 4 48.5 9t59 8.5t59 6t48.5 2.5q24 0 60.5 -3.5t75 -9.5t73 -15t55.5 -21q51 -27 80 -65t29 -74z" />
<glyph unicode="T" horiz-adv-x="1436" d="M1585 1337q0 -30 -6.5 -45.5t-17 -21.5t-24 -6.5t-26.5 -0.5q-34 0 -61.5 0.5t-55 1.5t-58 1.5t-70.5 0.5q-42 0 -100 -7.5t-114.5 -18.5t-102.5 -23.5t-63 -22.5q-8 -5 -15 -14.5t-12 -21t-8.5 -23.5t-3.5 -21q-10 -106 -22.5 -210t-23 -206.5t-18 -203t-7.5 -199.5 q0 -17 4.5 -50.5l9.5 -67.5l10 -62q5 -27 5 -31q0 -20 -6 -40.5t-16.5 -37t-26 -27t-33.5 -10.5q-12 0 -26 7t-27.5 19t-24.5 28.5t-17 35.5q-8 25 -13 57.5t-8 67.5t-4 69.5t-1 63t0.5 48.5t0.5 26q0 30 6 95t15 145.5t20 165.5l19 157l15 117q6 46 6 47q0 16 -7 23t-16 9 t-16.5 1t-8.5 -1q-38 0 -98 -7l-128 -16q-68 -8 -138.5 -15t-130.5 -7h-28q-14 0 -28.5 3t-29 11t-29.5 23q-2 16 -2 30t4 29q3 16 13.5 29.5t31.5 18.5q45 10 102.5 16t116.5 10l116 8q57 4 101 10l77 10q46 6 94 13l94 14q46 7 75 13q60 12 127.5 28t136.5 30.5t137 24 t130 9.5q7 0 24.5 -0.5t39.5 -2.5t47 -6t47 -11q11 -3 19.5 -13t14.5 -22t9.5 -24t3.5 -20z" />
<glyph unicode="U" horiz-adv-x="1582" d="M1403 485q-11 -59 -31.5 -111.5t-52.5 -102t-77 -96t-105 -91.5q-30 -23 -78.5 -42.5t-103 -33t-110.5 -21t-102 -7.5q-42 0 -96.5 12t-108 31.5t-100 43.5t-71.5 47q-50 47 -85.5 106t-58.5 125t-33.5 135.5t-10.5 137.5q0 57 9 126.5t22 141.5l26 140q14 70 22 127 l10 59l14 88l14 86q8 42 13 60q12 40 39 66t63 26q14 0 28 -15t25 -35t18 -40t7 -31q0 -6 -4.5 -25.5t-11.5 -45.5l-15 -55l-16 -55l-12 -44q-5 -19 -6 -25q-4 -22 -10 -63l-15 -92l-16 -106q-8 -56 -14.5 -108.5t-10.5 -97t-4 -71.5q0 -154 55 -289q14 -34 53.5 -68.5 t88.5 -62t98 -44.5t81 -17q85 0 153.5 7.5t123.5 30t96.5 62.5t73.5 105q25 52 38.5 104t20.5 102t10 97.5t8 89.5q9 77 13 158l8 156q4 77 11 145t21 121q22 82 49 115q26 35 73 35q20 0 33 -9t21 -24.5t11 -35.5t3 -42q0 -39 -6.5 -92.5t-15 -109t-17.5 -107.5l-16 -85 q-8 -49 -9.5 -103.5t-3.5 -115t-7 -127.5t-19 -140z" />
<glyph unicode="V" horiz-adv-x="1495" d="M1503 1257q0 -81 -135 -327q-38 -68 -81 -135l-41 -64l-40 -59l-38 -56l-40 -59l-60 -87l-62 -89l-102 -153q-39 -63 -70 -124.5t-43 -115.5q-59 0 -119 16q-25 7 -85 126l-63 130q-33 70 -68 154l-70 168l-70 171q-67 170 -72 181l-86 203l-72 163q-32 71 -45 164 q25 54 74 54q28 0 69 -29q1 -2 22 -55l65 -157l92 -221l104 -250l100 -234l77 -178q67 -149 81 -156q57 61 141 187l86 132l87 143l80 137q35 62 61 113l46 94l56 118l54 119l40 93q12 33 37 33q38 0 63 -55q27 -56 27 -95z" />
<glyph unicode="W" horiz-adv-x="2074" d="M2061 1518q0 -54 -13 -144.5t-37 -205.5q-23 -114 -49 -212t-51 -170q-48 -146 -93 -252l-50 -116l-60 -136l-59 -132l-45 -105q-8 -19 -37 -32t-45 -13q-48 0 -88 47t-77 125q-19 38 -49 108l-75 173l-81 187l-68 151q-32 -47 -117 -207l-83 -158l-81 -154 q-80 -152 -147 -261q-66 -109 -88 -109q-48 0 -82.5 41t-59.5 104q-13 32 -26.5 76t-28.5 101l-23 88q-8 31 -10 36q-38 146 -79 322t-84 387q-3 14 -12 46l-23 84q-29 105 -29 148q0 27 24 53q24 25 48 25q23 0 60 -58q37 -56 61 -136q8 -27 19 -71l27 -108l35 -150 l46 -196l45 -196l38 -150q16 -65 29 -110t23 -72l132 224l93 159l63 115q27 51 44 88l47 106l73 166q4 9 12.5 18.5t19 17t22.5 12.5t24 5q36 0 89 -116l69 -157l102 -240q119 -283 156 -331q93 157 164 334t122 362t77 343t32 291q0 13 25 38t45 25q47 0 65 -37 q19 -35 19 -71z" />
<glyph unicode="X" horiz-adv-x="1503" d="M1470 119q0 -41 -45 -81q-43 -40 -86 -40q-47 0 -235 158q-56 48 -111.5 109.5t-124.5 146.5l-27 33l-38 43l-73 86q-32 36 -58 75q-48 -37 -102 -86.5t-102 -103.5q-97 -105 -181 -211l-33 -41l-44 -55l-46 -58l-37 -53q-5 -8 -13 -22t-17 -28t-19 -24q-7 -8 -13 -8h-2 q-24 0 -44 41q-19 39 -19 98q0 74 75 172q76 97 191 206l110 104l98 94q93 88 93 117q0 23 -104 210l-87 157l-54 99q-37 70 -37 109q0 40 25 94q26 56 57 56q34 0 57 -56q8 -16 18 -38l22 -52l24 -55l22 -51q19 -45 40.5 -86.5t44.5 -81.5l55 -87l67 -102q56 63 116 122 l135 135q74 74 103 106l33 38q20 22 41 49l19 25q8 11 15 19l17 23l25 30q42 53 118 53q21 0 37 -9.5t27 -25t16.5 -36.5t5.5 -43q0 -62 -86 -62q-16 0 -35 -16t-38.5 -39.5t-37.5 -49.5l-32 -44q-38 -52 -75.5 -94.5t-73.5 -77.5l-44 -41l-74 -67l-77 -73q-34 -33 -57 -59 l91 -112l90 -106l92 -102q47 -50 98 -99t97.5 -85t90.5 -61q22 -13 48 -23l23 -8q9 -3 11 -4q34 -12 34 -51z" />
<glyph unicode="Y" horiz-adv-x="1395" d="M1440 1679q0 -5 -2 -17t-4 -22q-8 -43 -57.5 -109.5t-131.5 -166.5l-63 -77l-84 -105l-44 -56l-40 -54l-37 -54l-39 -60q-2 -5 -15.5 -26.5t-36.5 -61.5q-45 -76 -77 -114q-2 -35 -3.5 -73t-3.5 -80t-3.5 -77.5t-3.5 -65.5l-6 -120q-3 -60 -9 -156q-8 -155 -12 -174 q-5 -20 -46 -44q-40 -25 -63 -25q-29 0 -59 36q-29 35 -29 64q0 58 18 193q19 134 27 212q21 204 21 273q0 45 -19 82q-48 26 -97.5 71t-94.5 96l-50 58l-62 74l-50 62q-18 22 -20 24q-12 15 -32 36l-45 48l-45 49l-34 35q-29 29 -29 49q0 19 54 48q55 30 75 30q22 0 47 -16 t55.5 -47.5t69.5 -78.5l88 -110l89 -111q40 -47 73 -78.5t60.5 -47t52.5 -15.5q1 0 33 35q16 17 24.5 27t10.5 12l72 88l50 62l49 63l67 87l70 93l57 75l52 71l54 75q24 37 41.5 54.5t46.5 17.5q32 0 61 -15q29 -14 29 -43z" />
<glyph unicode="Z" horiz-adv-x="1737" d="M1851 365q0 -37 -22 -43q-10 -2 -46.5 -8t-99.5 -15l-143 -25l-131 -22l-133 -22l-147 -25q-76 -13 -143.5 -23.5t-128.5 -18.5q-121 -17 -242 -28.5t-242 -15.5q-23 -14 -60 -42q-36 -28 -66.5 -42.5t-68.5 -14.5q-12 0 -22.5 11t-18 26t-12 30.5t-4.5 25.5 q0 12 12.5 30t34.5 41t53 50l68 58l109 86l90 68l80 66q38 32 79 74q17 18 46 52l64 76l72 88l71 90l64 76l44 54q64 76 145 141q-12 29 -100 29q-34 0 -98 -6q-42 -3 -91 -9l-97 -11q-49 -6 -96 -10.5t-85 -4.5q-94 0 -177.5 9.5t-156.5 37.5q-18 6 -29 12t-18 13 t-9.5 16.5t-2.5 24.5q0 7 2.5 23t6.5 33l10 32q4 16 9 22q15 21 65 21q82 -33 149.5 -49.5t131.5 -16.5q34 0 76 2t86.5 4.5t88 5.5t80.5 5q58 4 92 4.5t64 2t67 5.5t101 15q65 11 110.5 16.5t72.5 5.5q18 0 37 -7.5t34.5 -19.5t25 -28t9.5 -33q0 -15 -12 -27l-33 -33 l-28 -27l-26 -26l-32 -31l-208 -223l-197 -221l-96 -109l-99 -110l-98 -108l-96 -99q73 3 142 11.5t138 19.5t140.5 24.5t148.5 26.5q356 61 653 61q43 -18 43 -71z" />
<glyph unicode="[" horiz-adv-x="831" d="M836 1452q0 -27 -39 -51.5t-115 -24.5q-31 1 -59 1h-53q-25 1 -54 1h-63q-20 0 -30.5 -14.5t-10.5 -26.5q0 -2 1.5 -9.5t3.5 -21.5q5 -28 5 -42q-5 -246 -12 -357q-4 -56 -12 -189l-23 -347q-14 -214 -21 -340t-7 -169q0 -6 1 -29t3 -65q4 -83 8 -86q19 -18 70 -18 q11 0 19 0.5t20 0.5q33 0 96 16q64 15 67 15q82 0 82 -78q0 -51 -27 -72t-81 -30q-27 -5 -99 -12q-72 -8 -100 -15q-35 -8 -74 -20.5t-71 -12.5t-54 28t-22 60q0 14 2 35.5t6 50.5t6 49.5t2 34.5t-1 34.5t-3 48.5t-3 48t-1 33q0 18 1 45t3 63t7 106l13 174q8 105 12 170.5 t6 91.5l9 132q2 22 4.5 56t5.5 82t5 84.5t3 64.5q3 55 3 119q0 51 -9 137q-8 87 -30 148q-21 63 -21 87q0 58 37 83t137 25h29q18 0 41 1l93 3q23 1 41 1h30q13 1 27 1h28q168 0 168 -100z" />
<glyph unicode="\" horiz-adv-x="1124" d="M1096 -133q0 -35 -21 -51q-10 -9 -45 -17t-51 -8q-26 0 -33 12l-46 93l-43 87l-89 181l-115 229l-41 83l-39 82l-41 85l-46 92q-48 97 -92.5 177.5t-90.5 150.5l-44 69l-45 68l-18 28l-14 21q-5 9 -12.5 21t-17.5 26q-42 66 -68.5 114t-40.5 77q-16 35 -16 61q0 28 37 49 t69 21q33 0 60 -37q26 -35 60 -104t46 -84q48 -64 94 -138t88 -155l24 -45q11 -20 19 -36l38 -69l40 -73l54 -113l53 -113l52 -101l60 -113l125 -229l117 -224q33 -68 33 -117z" />
<glyph unicode="]" horiz-adv-x="858" d="M780 1513q0 -56 -32 -112q-14 -23 -24 -57q-9 -36 -18 -92l-18 -107l-35 -209q-31 -176 -45 -281q-2 -20 -4 -44.5t-4 -53.5t-4 -87.5t-4 -148.5t-3.5 -144t-3.5 -74q-3 -40 -6 -88.5t-5 -105.5q-2 -58 -3 -91t-1 -43q0 -16 2 -37.5t6 -47.5q9 -53 9 -85q0 -84 -88 -84 q-28 0 -80 9q-26 4 -47.5 6t-38.5 2q-23 0 -58 -3t-84 -8q-96 -12 -133 -12q-21 0 -49 15t-28 34q0 53 18 95q17 41 62 41q15 0 35 -1t39.5 -2.5t35.5 -2.5t25 -1q20 0 76 9q28 4 48.5 6t34.5 2q8 1 15 1.5t17 0.5q16 0 24 -6q8 2 20 20v369q0 43 6 207t12 224q3 30 7.5 64 t8.5 69t8.5 69.5t7.5 66.5q2 9 10 69l23 169q15 110 25.5 175.5t15.5 87.5q2 7 7 19l13 30q17 37 17 52q0 28 -25 28q-100 0 -172 -12l-84 -21q-60 -16 -94 -16q-28 0 -67 19q-41 20 -41 43q0 34 36 82q36 49 68 49q8 0 19 -1t26 -3t25.5 -3t17.5 -1t26 2t51 6q32 5 61 8.5 t55 7.5q27 4 55.5 7.5t57.5 7.5q30 4 49.5 6t27.5 2q33 0 65 -32q31 -31 31 -63z" />
<glyph unicode="^" horiz-adv-x="1178" d="M1120 643q0 -10 -6 -25t-15 -28.5t-20.5 -23t-23.5 -9.5q-22 0 -50 34q-14 17 -25 33t-19 31q-9 17 -33 51l-62 85q-162 226 -264 348l-14 -2q-20 -17 -40 -38.5t-40 -47.5l-62 -85l-51 -67q-29 -38 -57 -92l-88 -152q-23 -38 -44 -62t-50 -24q-32 0 -55 29 q-23 31 -23 64q0 23 39 71l69 91q32 40 56 77l42 65l40 58l34 46l35 46q8 10 22 32l35 54l40 60l34 49q21 27 38 37t44 10q23 0 38.5 -15.5t33.5 -54.5q15 -30 43 -71t70 -95l27 -32q16 -18 34 -44l38 -46l36 -44q62 -68 127 -164q67 -95 67 -149z" />
<glyph unicode="_" horiz-adv-x="854" d="M915 -154q0 -30 -12.5 -40.5t-48.5 -10.5q-25 0 -104 9q-40 4 -66 6t-39 2q-47 0 -110 -4l-129 -8l-129 -9q-63 -4 -111 -4q-8 0 -29 1t-54 3t-54 3t-29 1q-31 0 -46 19.5t-15 46.5q0 24 17.5 41.5t43.5 17.5q5 0 22 1.5t46 3.5l50 3q22 2 36 2q18 0 43.5 -1t57.5 -3 t62.5 -3t59.5 -1q45 0 134 9q45 4 79.5 6t58.5 2q15 0 101 -9q43 -5 69 -7.5t35 -2.5q26 0 43.5 -19t17.5 -55z" />
<glyph unicode="`" horiz-adv-x="643" d="M591 1111q0 -26 -22 -47.5t-53 -21.5q-4 0 -20 7t-34 22l-34 27l-46 40l-48 38l-33 26l-33 23l-61 41q-140 89 -140 139q0 9 7 19t16.5 19t20.5 15t19 6q15 0 36.5 -8.5t47.5 -27.5q32 -24 55 -43l45 -38l47 -39q25 -20 61 -45l68 -47l50 -34q51 -35 51 -71z" />
<glyph unicode="a" horiz-adv-x="1343" d="M1650 681q0 -12 -3 -28.5t-8.5 -33.5t-12 -32.5t-13.5 -24.5l-17 -22l-26 -29l-30 -33q-17 -18 -35 -34l-121 -110q-60 -54 -123 -95t-131 -65q-66 -24 -143 -24h-6q-37 0 -74.5 13.5t-70.5 38.5t-57 60t-34 77l-61 -63l-66 -65q-35 -33 -72 -64t-76 -57 q-22 -14 -52.5 -30t-64 -29.5t-67 -22t-60.5 -8.5q-41 0 -70.5 25.5t-49 62.5t-29 79t-9.5 75q0 66 19 135t49.5 134.5t68 124.5t73.5 105q38 48 90 95.5t108 85t110 60.5t96 23h44q24 0 47 -2.5t45 -8t40 -16.5q9 -6 21 -23t22.5 -38t17.5 -42t7 -33q0 -33 -15 -88 l-29 -126q-14 -56 -14 -116q0 -34 11 -69.5t31.5 -64.5t50 -47.5t66.5 -18.5q61 0 125 25.5t129.5 70t130.5 103t128 124.5l18 21l26 28q13 15 26 26.5t19 11.5q21 0 21 -41zM760 764q0 17 -2 42t-13 41t-26 16q-1 0 -1 -1h-32q-35 0 -67.5 -11t-63.5 -30.5t-59.5 -45 t-55.5 -53.5q-23 -23 -48.5 -57t-50 -74.5t-47.5 -85t-40 -88t-27 -84t-10 -73.5q0 -10 2.5 -26.5t8 -32t15 -26.5t23.5 -11q46 0 115 29q94 40 170.5 109.5t130.5 160.5q78 141 78 301z" />
<glyph unicode="b" horiz-adv-x="1389" d="M1716 727q0 -31 -28 -65q-19 -23 -52 -50.5t-82 -60.5l-104 -68l-118 -72l-124 -73l-124 -71l-104 -60l-65 -39q-22 -14 -47 -38l-57 -58q-81 -81 -180 -154q-53 -39 -121 -39q-37 0 -68 15q-32 15 -32 47q0 20 16 36q30 30 55.5 51t52.5 40t59 39l75 49l80 54 q28 18 32 21q61 45 108.5 90.5t82.5 92.5q71 95 71 215q0 21 -8.5 56t-24.5 68.5t-38.5 58t-50.5 24.5q-30 0 -59 -11.5t-58 -30.5t-57 -44l-54 -49q-53 -51 -102.5 -113t-104.5 -140q-27 -39 -47 -80t-33.5 -79.5t-20.5 -72.5t-8 -58l-4 -82q-2 -29 -23.5 -45.5 t-52.5 -16.5q-45 0 -64.5 34.5t-19.5 105.5q0 10 1 34t2 55t2.5 65t2.5 64t2 52.5t2 30.5q3 63 7.5 121t10 118t12.5 124l17 138l17 141l18 129t20.5 122t27.5 120l8 27q6 20 15 40t19.5 36t22.5 16q8 0 18 1h7q7 0 14 -1q12 -1 23 -5t20 -14t14.5 -22.5t7.5 -25t2.5 -24 t0.5 -19.5q0 -14 -10 -52.5t-24 -102.5q-25 -112 -48.5 -230t-37.5 -234q-5 -39 -10 -85.5t-9.5 -96t-8 -100.5t-4.5 -98q31 48 64 108.5t81 117.5t95 102t102 85q110 80 204 80h8q52 0 99 -26q50 -28 87.5 -74t57.5 -103q20 -53 20 -106v-5q0 -36 -29 -129q-14 -46 -28 -70 l-25 -44l81 52l89 56l88 56l80 49l24 15l49 32l58 38l50 32q46 30 54 30q18 0 25.5 -15t7.5 -32z" />
<glyph unicode="c" horiz-adv-x="1075" d="M1417 688q0 -36 -26 -65q-9 -10 -28 -26.5t-34 -31.5l-92 -92l-49 -47l-39 -35l-69 -57l-94 -78q-104 -86 -192 -141q-88 -54 -188.5 -86.5t-212.5 -32.5h-10q-63 0 -113 24q-55 26 -92.5 70.5t-57.5 104.5q-18 57 -18 120v7q0 133 56.5 266t150.5 262q51 68 123 130 q71 62 129 62q31 0 71 -52q20 -26 38 -55.5t33 -62.5q30 -65 30 -94t-18 -75t-43 -46q-36 0 -60 49q-12 25 -17.5 42.5t-12.5 37.5q-23 60 -39 86q-66 -12 -110 -65q-21 -26 -43.5 -62.5t-47.5 -82.5q-20 -36 -37 -81t-29 -92.5t-19 -95t-7 -88.5q0 -58 50 -113 q51 -53 110 -53q128 0 243 45t221 120q105 73 213 171l103 93l92 83q73 64 121 64q14 0 14 -27z" />
<glyph unicode="d" horiz-adv-x="1448" d="M1749 690q0 -25 -12 -49q-22 -44 -101 -135q-38 -45 -81 -88l-91 -89q-48 -45 -93 -81t-88 -65q-85 -58 -136 -58q-20 0 -51 14q-63 29 -100 106q-36 77 -51 161t-25 188q-125 -233 -324 -414q-200 -182 -414 -182q-59 0 -90 63q-31 62 -31 129q0 90 15 134 q42 128 96.5 240t132.5 220q51 70 116 140q66 70 124 100q72 39 207 39q47 0 80 -52t50 -121q17 -73 17 -114q15 49 27 99.5t21 104.5t16.5 113.5t13.5 127.5q2 18 4 46t5 66q6 78 12 131.5t16 69.5q24 41 84 41q30 0 59 -13q31 -12 31 -34q0 -12 -4.5 -39t-12.5 -70 t-21.5 -106.5t-29.5 -151.5q-1 -10 -6 -40l-11 -63l-11 -62q-5 -29 -6 -36q-13 -81 -21 -152t-8 -144q0 -58 3 -137q3 -80 15 -155t35 -75q82 0 198 75q115 76 222 174t190 187q6 6 11 6q11 0 14.5 -16.5t3.5 -32.5zM817 627q-26 6 -39.5 26t-13.5 45q0 20 6 59t6 60 q0 18 -9.5 40.5t-24.5 42t-33.5 33t-36.5 13.5q-53 0 -144 -111l-84 -109q-39 -52 -71 -103q-35 -55 -59.5 -101t-41.5 -82q-59 -127 -59 -200q0 -93 63 -93q56 0 154 65q101 69 156 124l95 101l60 66q22 25 40.5 56t35.5 68z" />
<glyph unicode="e" horiz-adv-x="1078" d="M1395 690q0 -15 -22 -53q-52 -75 -116.5 -150t-137 -142.5t-151 -126t-158.5 -101t-160 -65.5q-76 -22 -147 -22h-6q-160 0 -248.5 93t-88.5 281q0 157 48.5 305t165.5 285q22 24 49.5 46t58 39t63 27t65.5 12q8 0 22 -2t30 -7t31 -12.5t24 -18.5q28 -32 44.5 -66 t18.5 -75v-13q0 -39 -10 -78q-13 -44 -42.5 -90.5t-77.5 -96t-116 -106.5l-96 -79q-52 -44 -126 -92q0 -97 58.5 -147.5t160.5 -50.5q57 0 115 15t114 39.5t108.5 56t98.5 64.5q85 62 154 123.5t137 129.5l54 54q49 43 71 43q12 0 12 -19zM626 918q-3 15 -10 26t-16 17.5 t-21 6.5q-53 -3 -106 -64.5t-100 -162.5q-11 -22 -19.5 -49.5t-16 -56t-13.5 -56.5l-9 -50l96 72q44 33 82 68q24 22 49 47.5t45.5 53.5t32.5 58q11 28 11 56q0 16 -5 34z" />
<glyph unicode="f" horiz-adv-x="816" d="M1174 770q0 -19 -25 -56t-43 -46q-8 -5 -49 -15q-118 -28 -287 -45q-85 -8 -158 -12t-136 -4l-10 -79q-6 -41 -11 -82t-10.5 -80.5t-9.5 -73.5q-8 -69 -18.5 -150.5t-26.5 -192.5q-20 -117 -48 -192q-40 -107 -112 -185q-72 -81 -166 -81q-29 0 -66 20q-36 19 -36 49 q0 13 4.5 31t12.5 34.5t18.5 28t23.5 11.5q16 0 46 -6t46 -6q24 15 41.5 38t30.5 53t22.5 65t16.5 73q14 72 25.5 137t20.5 125.5t16 118.5t13 117q4 31 9 84q6 52 6 92q2 15 -9 27.5t-24.5 24.5t-24 24.5t-8.5 27.5q0 18 54 86q55 67 61 107q4 20 8.5 51.5t11.5 73.5 q13 84 24 138q12 55 33 114t50 110q45 75 117 138t145 63q75 0 129 -54q55 -52 55 -129q0 -97 -73 -206q-42 -64 -78 -64h-4q18 70 18 148q0 56 -16 114q-15 60 -51 60q-43 0 -79 -47q-36 -46 -61 -101q-34 -76 -63 -203q-14 -63 -23.5 -118t-13.5 -103v-43q0 -41 100 -41 q84 0 154.5 1.5t130.5 5.5t123 12t129 22q8 1 16 1.5t17 0.5q12 0 12 -12z" />
<glyph unicode="g" horiz-adv-x="999" d="M903 768q-8 -69 -13 -153t-13 -187q-3 -38 -8 -86t-11 -99l-12 -101q-6 -49 -12 -89q-9 -58 -23 -120.5t-35 -123.5t-51.5 -116t-72.5 -96.5t-97.5 -66t-126.5 -24.5q-45 0 -91 11t-90.5 29.5t-86 44t-76.5 54.5q-39 32 -69 65.5t-50 68.5q-20 34 -20 67q0 31 20 31 q7 0 15 -7q4 -3 10 -9l10 -11l9 -10q4 -5 5 -6q193 -178 412 -178q73 0 119.5 33.5t74 87t42 119t24.5 129.5q6 40 10.5 80t8.5 83l8 92l9 104q-41 -44 -103.5 -93.5t-134 -91.5t-144 -69.5t-133.5 -27.5q-26 0 -48 12t-38 34.5t-25.5 55t-9.5 72.5q0 58 20 124t51 131.5 t69 127t74 110.5q36 48 87 100.5t109.5 96t121.5 71.5t123 28q53 0 99 -23.5t71 -70.5q6 -11 7 -33v-15q0 -15 -1 -33q-2 -28 -6 -60zM739 586q4 30 8 72l10 106q3 33 7 66q1 12 1 23q0 18 -4 31q-8 29 -31 37t-75 8q-48 -30 -95.5 -74t-91 -95t-80.5 -105.5t-65 -106.5 q-31 -57 -49 -113.5t-18 -95.5q0 -17 6.5 -28t17 -17.5t24 -9t27.5 -2.5q35 0 75.5 15t80.5 37t76 46.5t62 44.5q11 8 29 25t36 39.5t32 47.5t17 49z" />
<glyph unicode="h" horiz-adv-x="1632" d="M1948 657q0 -21 -30 -66q-11 -18 -28 -40l-36 -45l-36 -42q-18 -20 -32 -34q-58 -59 -123 -113t-134.5 -96.5t-144 -68.5t-151.5 -27q-59 0 -104.5 22t-71.5 71t-39 110t-21 131l-3 33l-4 48q-3 27 -7 55t-9 51t-11.5 37.5t-14.5 14.5q-31 0 -85 -41.5t-118 -109 t-131 -152.5t-125 -173q-51 -76 -93 -152l-72 -134q-17 -26 -36 -36.5t-26 -10.5q-16 0 -32.5 7.5t-30 19.5t-22 27.5t-8.5 30.5q0 13 5 42l10 67l12 77q6 39 10 73l16 145q9 79 17 160l15 157q7 77 11 139q1 20 3 53t4 72.5t4 83.5l4 85q2 42 4 78l2 62q1 28 3.5 52t7 47.5 t13 47t21.5 51.5q4 9 13 20t20.5 20t25 15.5t27.5 6.5q29 0 52.5 -23t23.5 -64q0 -13 -4.5 -35t-10.5 -46l-12 -44q-5 -22 -7 -33q-8 -41 -14 -94t-11.5 -108t-9.5 -109l-7 -95q-3 -48 -7 -90l-10 -83l-8 -84.5t-8 -91.5q-7 -74 -16 -130.5t-9 -96.5q0 -6 6.5 -14t11.5 -8h4 q9 11 23 33l32 48l38 54q19 29 38 53l42 53l46 57l50 58l50 54q31 31 69 65t79.5 62t83.5 46t80 18q7 0 18.5 -4t23 -11.5t21.5 -18t15 -24.5q20 -54 29 -108t16 -114q6 -51 13 -105t18 -98t28.5 -72t44.5 -28q123 0 236 55q60 29 103.5 56t81 56t74.5 64l86 81 q97 89 113 89q15 0 15 -41z" />
<glyph unicode="i" horiz-adv-x="954" d="M600 1464q0 -65 -34 -111q-33 -46 -97 -46q-40 0 -89 12q-48 12 -48 39q0 49 30.5 93.5t73.5 72.5q34 20 45 20q57 0 88 -15.5t31 -64.5zM1255 649q0 -21 -19 -55q-19 -36 -52.5 -81.5t-78 -97.5t-93.5 -104q-56 -60 -118.5 -115.5t-133.5 -107.5q-140 -104 -250 -104 q-121 0 -188 81q-67 82 -91 198q-24 115 -24 237q0 51 12 159q6 54 12 93t13 63q14 47 59 82q46 37 96 37q27 0 27 -51q0 -34 -6.5 -77t-13.5 -85q-13 -79 -19 -141.5t-6 -108.5q0 -101 28 -204q28 -105 101 -105q74 0 172 54q49 28 98 62t98 76l96 84l90 88l79 84 q35 39 61 72q1 2 3.5 6.5t5.5 9t6 7.5t6 2q14 0 21 -22q9 -21 9 -36z" />
<glyph unicode="j" horiz-adv-x="623" d="M666 1440q0 -8 -11 -31t-26.5 -48.5t-31 -45t-24.5 -19.5q-23 0 -38 5t-27.5 16.5t-24.5 29.5l-28 44q-11 17 -17 29t-6 22q0 16 10 33.5t26 32t34 23.5t35 9q22 0 45 -7t41.5 -20t30.5 -31.5t12 -41.5zM489 922q0 -8 -6 -24.5t-13 -33.5l-15 -34q-7 -17 -9 -25 q-8 -29 -11.5 -80t-3.5 -123q0 -24 1 -59.5t1.5 -74t1.5 -74.5t1 -60q0 -90 -1.5 -163.5t-7 -137.5t-15.5 -122t-26 -117q-17 -63 -43 -115t-62.5 -89.5t-84.5 -58t-109 -20.5q-35 0 -70 8t-67 21t-59.5 29.5t-48 33.5t-32 32.5t-11.5 26.5q0 29 17 29q6 0 29.5 -6.5 t56.5 -14t73 -14t80 -6.5q137 0 177 148q40 147 40 351q0 27 -0.5 62.5t-1.5 74.5l-2 78l-2 76q-1 37 -1.5 67t-0.5 50q0 231 47 339q39 89 111 89q29 0 48 -17t19 -46z" />
<glyph unicode="k" horiz-adv-x="1400" d="M1740 683q0 -5 -18.5 -39t-52 -85.5t-79.5 -115.5t-101 -129.5t-116.5 -128t-126.5 -111.5t-131 -78.5t-129 -29.5q-41 0 -77.5 11t-69 30.5t-62 45.5t-56.5 55l-69 78l-62 74q-29 35 -57 62.5t-55 42.5l-12 -12l-21 -23l-23 -24l-18 -20q-26 -31 -43 -56.5t-22 -45.5 q-5 -17 -6.5 -40t-1.5 -46q0 -40 -5 -67t-16.5 -43t-31 -22.5t-48.5 -6.5q-36 0 -45.5 17.5t-9.5 56.5q0 28 3.5 60t9.5 65l10 64q6 32 10 61q12 80 22 156l20 152l18 153l19 161q16 129 25 262.5t15 247.5q0 20 6.5 41t19.5 38.5t31 29t41 11.5q30 0 48.5 -10t28.5 -24.5 t13.5 -29.5t3.5 -26q0 -17 -5 -51.5t-12.5 -76.5t-16.5 -87l-17 -84l-14 -66q-5 -27 -6 -34q-22 -121 -34 -196t-17 -115l-26 -206q-11 -85 -19 -134l83 94l87 99l86 102l81 100l57 76q32 44 69.5 86.5t79 75.5t83.5 41q24 4 42 -4t29.5 -22.5t17 -31t5.5 -29.5 q0 -21 -24 -49.5t-58.5 -60t-73.5 -63.5t-69 -60l-81 -78l-68 -69l-59 -66l-56 -66q32 -21 60 -46t57 -54l60 -62l66 -68q65 -64 113 -87t87 -23q44 0 96 26.5t107 70t111 99t108 112.5l98 114l81 98l57 70q22 27 26 27q9 0 15 -7t9.5 -17t4.5 -21t1 -19z" />
<glyph unicode="l" horiz-adv-x="909" d="M1160 606q0 -47 -57 -147q-11 -19 -30.5 -45.5t-43.5 -55.5l-50 -58q-26 -29 -51 -54q-38 -38 -83.5 -74t-96 -65t-104 -46.5t-105.5 -17.5q-69 0 -129 25t-104.5 77t-70 130.5t-25.5 185.5q0 73 7 152.5t18 159.5t24.5 158.5t27.5 151.5q9 50 15.5 82t11.5 59t9 54 l10 69q4 28 7.5 49.5t5.5 35.5q4 24 13.5 46t24 39t33.5 27t42 10q48 0 71 -45q-6 -31 -12.5 -59.5t-11.5 -60.5l-41 -204l-23 -110l-26 -136q-13 -73 -24.5 -149t-18.5 -150t-7 -138q0 -69 11 -125.5t35.5 -96.5t63 -62t93.5 -22q60 0 118 26.5t111.5 67.5t101.5 90.5 t88 95.5l56 66l40 46q13 15 29.5 31t30.5 16q16 0 16 -29z" />
<glyph unicode="m" horiz-adv-x="2084" d="M2390 697q0 -9 -3.5 -23t-9 -30t-13 -32.5t-16.5 -29.5q-17 -26 -44.5 -60t-60.5 -70.5t-70.5 -73t-73.5 -66.5l-67 -53q-38 -29 -80 -54t-86 -41.5t-83 -16.5q-35 0 -63.5 10t-52 37.5t-41.5 75.5t-31 124q-6 32 -11 68l-8 73l-9 69q-4 34 -9.5 59.5t-12 40.5t-14.5 15 q-13 0 -36.5 -22t-55 -63.5t-69 -99.5t-78.5 -130q-81 -144 -137 -219t-102 -75q-69 0 -93 65q-22 66 -27 221q-3 151 -21.5 232.5t-47.5 81.5q-18 0 -52.5 -32.5t-78 -89.5t-94.5 -134.5t-102 -168.5l-32 -55l-37 -62l-36 -60q-17 -28 -30 -46q-29 -42 -70 -42 q-76 0 -100 78l-10 32q-3 13 -5 25.5t-2.5 27.5t-0.5 39q0 40 2.5 73.5t6.5 67.5t10 73t12 91q5 43 9 92l8 95q3 47 6.5 86t9.5 62q3 12 14 28t25.5 30.5t30.5 25t28 10.5q21 0 34.5 -9.5t22 -25.5t12 -37.5t3.5 -44.5q0 -24 -4.5 -60t-11.5 -78t-16 -87l-16 -86l-14 -76 q-7 -34 -10 -56q-9 -55 -12 -87.5t-3 -52.5q13 13 33 39t44 61l50 77l54 86l42 70l50 79q25 39 50 74t46 59q42 48 87 73t94 25q48 0 83.5 -37.5t47.5 -97.5q6 -28 9.5 -64.5t6.5 -76.5t5.5 -80t5.5 -76q3 -35 8.5 -58t11.5 -36.5t11 -19t8 -5.5q19 0 64 79l51 89l62 108 q34 58 73 112t76.5 95.5t70.5 66t56 24.5q15 0 31 -3t31 -9t26.5 -14.5t17.5 -18.5q15 -24 21.5 -54.5t9.5 -70t5.5 -88t8.5 -107.5q14 -125 43.5 -186.5t84.5 -61.5q21 0 53 14t68 36.5t73 51t69 56.5t61 57l60 58l62 61l67 68q12 12 22 12q15 0 15 -26z" />
<glyph unicode="n" horiz-adv-x="1553" d="M1888 715q0 -19 -6.5 -38.5t-16 -39t-21.5 -37.5l-23 -36q-29 -45 -68 -91.5t-83.5 -90.5t-91.5 -83t-92 -69l-68 -45q-33 -21 -66 -36t-69 -24t-79 -9q-83 0 -135 42q-26 21 -45.5 54.5t-34 74.5t-25 87t-17.5 91q-9 56 -17 100.5t-18.5 75t-25.5 47t-39 16.5 q-19 0 -36 -4t-35.5 -16t-40.5 -34t-51.5 -58t-67.5 -88l-89 -124q-25 -35 -59 -77t-69.5 -80t-69.5 -67t-60 -37q-88 19 -88 219q0 53 12 161q6 49 14 102.5t20 107t27.5 104t36.5 93.5q10 20 21 31.5t22.5 17t24 7t25.5 1.5q16 0 28.5 -22t12.5 -61q0 -24 -4 -45t-11 -43 l-15 -48q-8 -25 -16 -58l-13 -60q-8 -33 -14.5 -67t-11 -66.5t-4.5 -58.5q0 -18 6 -37q28 3 92 84l72 90l86 108q34 44 67.5 82t69.5 66.5t76.5 45t89.5 16.5q52 0 86.5 -22.5t55.5 -62t32.5 -94.5t18.5 -121l12 -111q5 -55 21 -98.5t46 -70.5t86 -27q43 0 90 20t99 55.5 t107.5 83.5t114.5 105q23 22 50 56l54 64q27 31 50 53t37 22q6 0 19.5 -6t13.5 -20z" />
<glyph unicode="o" horiz-adv-x="1184" d="M1565 838q0 -17 -7.5 -34.5t-19.5 -34t-26.5 -31t-29.5 -23.5q-35 -23 -99.5 -40.5t-159.5 -17.5q-76 0 -153 19.5t-148 64.5q23 -35 29.5 -67t6.5 -76q0 -79 -40 -168q-39 -90 -101 -167t-131 -128q-39 -29 -85.5 -50.5t-97.5 -35t-106 -20t-111 -6.5q-39 0 -76 25 t-66 61t-46.5 77t-17.5 74q0 81 21.5 155.5t58 144t84.5 136t102 132.5q30 37 68.5 72.5t80.5 63.5t85 45.5t82 17.5q32 0 55 -9t43.5 -25.5t41.5 -41.5l50 -56q9 -9 49.5 -26.5t96 -34t116.5 -29t111 -12.5t92 3.5t81.5 11.5t78.5 22t84 34q4 -15 4 -26zM818 598v10 q0 24 -4 54q-5 35 -17.5 66.5t-33 51.5t-50.5 16q-46 18 -76 38t-46 20q-12 0 -26 -7.5t-29 -20.5t-30.5 -30.5t-30.5 -36.5l-55 -71q-26 -32 -48.5 -63.5t-43.5 -66t-42 -77.5q-9 -18 -16 -43t-12 -51.5t-7.5 -53t-2.5 -47.5q0 -13 9 -31.5t23.5 -36t33 -29.5t36.5 -12 q51 0 87 4.5t66.5 16t61.5 31.5t72 52q20 15 39.5 35t38.5 42.5t36 46t32 46.5q10 15 17 37t11 44t5.5 40t1.5 26z" />
<glyph unicode="p" horiz-adv-x="1376" d="M1735 768q0 -31 -21 -74q-5 -11 -17.5 -23.5t-26 -24.5t-26.5 -21.5t-19 -14.5q-33 -27 -85 -60l-116 -72l-134 -76l-142 -75l-138 -70l-122 -58q-40 -18 -76 -40.5t-70.5 -42t-69.5 -32.5t-74 -13q-23 0 -44.5 5.5t-38.5 17.5t-27.5 30.5t-10.5 44.5q0 14 9.5 26 t24.5 21.5t33 17.5t35 14q18 7 43 14l49 16q25 7 48.5 15t40.5 16q32 17 60 43t52 57t45 65l39 64q12 21 23 47t19.5 52t13 49.5t4.5 39.5q0 69 -30 110t-75 41q-28 0 -64.5 -18.5t-73 -44.5t-68 -54.5t-50.5 -48.5q-46 -49 -86.5 -106.5t-76.5 -118t-68 -121.5l-59 -117 q-12 -47 -23.5 -104t-17.5 -125q-11 -135 -16.5 -241t-22.5 -194q-6 -32 -29 -56.5t-60 -24.5q-11 0 -26 5.5t-28.5 15.5t-23 22.5t-9.5 27.5q0 33 4.5 81.5t10.5 97.5t11.5 89t7.5 56q14 103 25 222.5t18 260.5q1 30 2 79l4 100q1 51 2.5 94.5t3.5 61.5q14 191 100 191 q17 0 32.5 -8.5t27.5 -22t19 -30.5t7 -33q0 -35 -7.5 -75.5t-16.5 -83t-16.5 -83.5t-7.5 -75q0 -29 6 -29q70 126 137 221.5t134 158.5q43 40 85 73.5t84.5 58t88 38t96.5 14.5h4q33 0 69 -17q37 -18 67 -54t49 -88q19 -48 19 -110v-6v-6q0 -47 -15 -94q-17 -50 -44.5 -98.5 t-63.5 -93.5t-75 -83q82 31 168.5 76t173 97t169.5 108l160 109q23 16 37 27t31 11q14 0 16.5 -13.5t2.5 -27.5z" />
<glyph unicode="q" horiz-adv-x="1331" d="M1642 659q0 -41 -32 -94q-45 -69 -113 -145q-69 -76 -147 -152l-166 -164l-96 -94l-136 -133q-104 -99 -153 -153l-29 -33l-18 -22q-11 -16 -25 -56q-30 -88 -65 -105q-18 4 -40.5 14.5t-42.5 26t-33 34.5t-11 40q0 44 25 134q25 91 63 204q37 112 51 150l56 166l44 137 q-5 -1 -8 -4q-13 -9 -36 -29l-46 -39q-26 -21 -59.5 -45.5t-75.5 -52.5q-81 -56 -165 -96q-84 -39 -144 -39q-71 0 -105 32q-35 35 -35 164q0 108 69 251q35 72 79.5 139t99.5 133q56 66 115 118t122 94q125 82 238 82q49 0 90 -39q42 -40 52 -88q-7 -22 -7 -45 q0 -25 20 -73q21 -47 21 -76q0 -8 -12 -57l-22 -86q-10 -37 -15 -54l-24 -85l-42 -141l-44 -148l-33 -109l-34 -108l-46 -144l77 67l105 89l111 95l96 87l180 172q83 82 154 160l58 65l79 92q15 15 25 15q16 0 23 -16.5t7 -35.5zM850 821q-20 -20 -47 -20q-31 0 -31 47 q-2 12 3.5 23.5t12 22t11.5 20t4 18.5q0 19 -14 29t-33 10q-77 0 -262 -170q-44 -41 -106 -129q-31 -44 -56.5 -87.5t-47.5 -88.5q-42 -89 -42 -144q0 -94 32 -94q31 0 112 38q79 37 132 69q66 41 152 109q85 67 116 112q64 85 64 235z" />
<glyph unicode="r" horiz-adv-x="1048" d="M1128 807q0 -6 -1 -17.5t-5 -23t-9.5 -20.5t-14.5 -9q-6 0 -20 0.5t-29.5 1.5t-29.5 1.5t-20 0.5q-191 -12 -318 -140q-125 -125 -216 -334l-33 -89q-17 -46 -32 -97q-8 -28 -11.5 -49.5t-11.5 -45.5q-2 -8 -17 -15.5t-33.5 -13.5t-35.5 -10t-23 -4h-4q-65 0 -74 143 q-3 34 -3 63q0 5 1 9q0 33 2 63.5t6 64.5l7 75l12 120q7 68 16 137t19 131.5t21 103.5q11 47 30.5 70t57.5 25q10 0 21.5 -5.5t21 -14.5t16 -19t7.5 -18q1 -25 -1 -54.5t-7 -61t-12 -63.5l-14 -61q-14 -57 -21.5 -97.5t-12.5 -78.5t-10 -81.5t-13 -107.5l30 65l22 47l18 37 l19 33l22 39l30 51q70 116 150 189.5t154 105.5q84 40 138 43q26 1 62 -3t69 -15t56.5 -28.5t23.5 -42.5z" />
<glyph unicode="s" horiz-adv-x="854" d="M1205 723q0 -16 -9 -35.5t-24 -40.5t-34 -43l-38 -42q-15 -17 -32 -34l-38 -40l-51 -50l-68 -66l-77 -72l-86 -73l-85 -69l-71 -58l-137 -112q-65 -52 -128 -94q-125 -84 -198 -84q-25 0 -58 13q-34 13 -34 36q0 65 49 102q48 35 150 76q100 40 150 78t50 104 q0 33 -69 134l-61 93l-45 77q-38 70 -38 147q0 67 25 141q12 42 38.5 84.5t57.5 76t63 53.5q30 19 54 19h2q88 0 88 -104q0 -40 -29 -78q-14 -18 -34 -37.5t-46 -41.5q-25 -21 -42.5 -37t-28.5 -27q0 -52 32 -122q17 -34 39 -74t51 -86t49 -83l30 -53q1 -4 11 -4 q14 0 48.5 20.5t82 55t103.5 80t112 96.5q58 52 96 91l72 73q34 34 50.5 52.5t18.5 18.5q8 0 15 -6t12.5 -15.5t8.5 -20t3 -19.5z" />
<glyph unicode="t" horiz-adv-x="764" d="M1214 881q0 -37 -20 -56.5t-46 -34.5q-33 -15 -73.5 -27t-83 -21.5t-85.5 -16t-82 -10.5q-42 -4 -89 -8t-91 -8.5t-81.5 -10.5t-60.5 -15q-21 -91 -44.5 -173.5t-39.5 -164.5q-4 -19 -10.5 -57t-12.5 -79.5t-10.5 -78t-4.5 -52.5q0 -41 13 -61.5t29 -32.5l28 -24 q13 -11 13 -33q0 -14 -13.5 -27t-32.5 -23t-40.5 -15.5t-37.5 -5.5q-29 0 -52 16t-39 41.5t-25 58.5t-9 68q0 46 8 98.5t20 107.5l26 112l25 115l11 49l10 48l7 38q3 15 3 18q0 16 -11.5 24.5t-27.5 8.5q-12 0 -36 -2t-50.5 -5t-50.5 -5t-35 -2q-36 0 -61 4.5t-40.5 16.5 t-23 33.5t-7.5 55.5q0 14 13 22t31.5 11.5t39.5 4t37 0.5q13 0 42 3l62 5l62 5q30 3 43 3q6 0 14 1t16.5 5.5t15.5 15t12 29.5l17 72l20 86l21 84l17 69q9 28 15.5 60t12 64t12.5 62t18 55q22 52 71 52q74 0 74 -82q0 -51 -22 -117q-48 -152 -71 -250.5t-23 -132.5 q0 -37 37 -37q45 0 84.5 1.5t80 5t85.5 8.5l101 11q40 5 77 12l67 13q31 7 55 13t40 8q11 1 21.5 3t18 0.5t12 -8t4.5 -21.5z" />
<glyph unicode="u" horiz-adv-x="1565" d="M1934 809q0 -38 -19 -86.5t-52 -90.5q-42 -54 -94.5 -107t-109.5 -101.5t-116 -90t-114.5 -72t-104.5 -48t-86 -17.5q-47 0 -82 16t-60.5 43.5t-42.5 64.5t-29.5 78t-20.5 84l-15 85l-56 -85l-66 -97l-70.5 -94.5t-66.5 -79.5q-35 -37 -76.5 -71t-88 -59.5t-97.5 -41 t-105 -15.5q-79 0 -124 65q-44 65 -44 150q0 40 6.5 83.5t15.5 86.5l16 85q8 41 11 78q1 15 1.5 37.5t0.5 52.5v50q0 22 1 42.5t3 40.5t6 42q6 34 27 59t66 25q92 0 92 -127q0 -22 -4.5 -48.5t-10.5 -55.5l-13 -58q-6 -29 -11 -57l-20 -78q-10 -39 -18.5 -76t-13.5 -71.5 t-5 -63.5q0 -15 4 -33.5t12 -35t21.5 -27.5t31.5 -11q53 0 107 29.5t103.5 73t93 93t76.5 90.5q32 41 63.5 97t59.5 116l55 121l47 108q47 110 84 110q27 0 36 -8.5t9 -34.5q0 -20 -4.5 -54t-10.5 -71t-10.5 -71t-4.5 -53q0 -17 0.5 -41.5t1.5 -50.5t3.5 -51.5t6.5 -43.5 q4 -21 14 -51.5t25.5 -59.5t37.5 -49.5t51 -20.5q54 0 122.5 32t140.5 82.5t143 113t132 123.5l49 48q24 24 44.5 40t33 21t12.5 -8z" />
<glyph unicode="v" horiz-adv-x="1194" d="M1605 791q0 -13 -6 -24.5t-15.5 -22t-21.5 -20.5l-23 -20q-31 -27 -71 -50.5t-83.5 -40.5t-87.5 -27t-81 -10q-25 0 -57 5t-64.5 14t-63.5 20.5t-53 24.5l-14 -30l-29 -63l-39 -87l-46 -103q-49 -109 -94 -198l-82 -159q-18 -35 -35 -57t-31.5 -35t-26.5 -17.5t-21 -4.5 q-22 0 -42 13t-42 42q2 12 3 21.5t1 17.5q0 44 -27.5 126.5t-84.5 200.5q-28 58 -54.5 120.5t-46.5 122t-32.5 111.5t-12.5 90q0 27 6.5 56.5t19.5 54t33.5 40.5t48.5 16q42 0 68 -25.5t26 -68.5q0 -14 -4 -30l-6 -32l-8 -32q-3 -16 -3 -31t3.5 -45.5t11 -69t20.5 -81.5 t31 -83q17 -37 37 -86l38 -93q18 -44 32.5 -74.5t21.5 -30.5q5 0 17.5 19.5t28.5 52.5l36 76l38 88l37 90l32 83l24 61l23 60l23 53q11 25 22 44q15 27 36 40.5t51 13.5q14 0 26.5 -6t24.5 -14t22.5 -17.5t21.5 -15.5q8 -5 26.5 -14.5t41 -19t47.5 -16.5t47 -7 q43 0 77.5 6.5t64.5 16t56.5 21.5t53.5 23l62 25q22 9 43 9q25 0 25 -17z" />
<glyph unicode="w" horiz-adv-x="1837" d="M2269 835q0 -23 -10.5 -44t-28 -39t-39 -33.5t-43.5 -26.5q-51 -26 -115 -43t-144 -17q-40 0 -74.5 5.5t-65.5 14.5t-58 20l-51 20q-43 -64 -80 -144.5t-74 -183.5l-31 -88l-25 -72l-25 -70l-31 -83q-5 -14 -18.5 -33.5t-31 -37.5t-36.5 -30.5t-35 -12.5q-43 0 -80.5 32 t-64.5 77q-58 102 -99.5 209t-67.5 214q-26 111 -32 111q-7 0 -20.5 -24.5t-31 -62t-36.5 -82.5l-35 -85l-28 -70l-15 -37q-88 -228 -186 -323q-8 -9 -22 -9q-36 0 -67 24t-50 58q-5 9 -14 31l-19 52l-23 63l-21 63l-17 52l-11 32q-16 53 -32 123t-29 143t-21.5 141 t-8.5 117q0 62 31.5 89.5t88.5 27.5q19 0 31.5 -18.5t19 -47.5t9.5 -64.5t4.5 -68.5t2.5 -61t4 -41q6 -50 16 -104t22.5 -106t26 -99t26 -82.5t23.5 -56.5t18 -21q11 0 38.5 41t62.5 128l56 142l50 122l50 116l56 123q6 15 17.5 29.5t26 26t30 19t29.5 7.5q45 0 53 -68 q36 -284 102 -474q66 -189 125 -189q17 0 34.5 22t34.5 57.5t32 79.5l30 87l26 83l19 64q13 40 28.5 82.5t33.5 85t39 82.5t45 75q31 46 63 46q22 -2 36.5 -6t24.5 -10.5t18 -15.5l18 -23q12 -17 36.5 -31.5t52.5 -26t56 -18t47 -6.5q79 0 157 14.5t150 58.5q5 3 10 7t13 4 q10 0 17 -5t7 -27z" />
<glyph unicode="x" horiz-adv-x="1386" d="M1724 727q0 -27 -41 -100q-20 -35 -38.5 -63.5t-34.5 -49.5q-128 -164 -212 -257q-83 -92 -186 -157q-102 -63 -217 -63q-81 0 -175.5 59.5t-212.5 167.5q-42 -33 -75 -68.5t-58.5 -69t-43 -65t-27.5 -56.5l-21 -55l-23 -64q-22 -69 -44 -99q-66 3 -101.5 35t-35.5 96 q0 27 8 55t22.5 56t33 55.5t39.5 52.5l81 91q53 59 131 130q-18 19 -40.5 46t-44.5 56.5t-41 58t-31 49.5q-44 79 -62 131.5t-18 95.5q0 22 7.5 42t23 35.5t38.5 25t54 9.5q27 0 42 -17t22 -39q3 -12 5.5 -28.5t4.5 -34t4.5 -34.5t5.5 -29q19 -82 52 -137q34 -55 97 -115 q84 79 150 156q34 38 61 84.5t49 101.5q12 26 21 42.5t18.5 26.5t20.5 13.5t26 3.5q17 0 36 -8t34.5 -21.5t26 -32t10.5 -40.5q0 -29 -37 -84q-30 -39 -59.5 -70t-63.5 -72q-35 -45 -79 -94l-97 -106q27 -27 67.5 -57.5t86 -57t91 -44t83.5 -17.5q79 0 157.5 55t174.5 158 q43 46 89 101l96 119q99 128 112 128q17 0 27.5 -8.5t10.5 -22.5z" />
<glyph unicode="y" horiz-adv-x="1289" d="M1167 893q0 -17 -1 -39.5t-3 -51.5q-2 -28 -4.5 -58t-5.5 -62t-5 -56.5t-3 -41.5q-7 -137 -29 -281.5t-55 -275.5q-53 -217 -154 -371q-102 -156 -282 -156q-118 0 -238 47q-119 46 -201 129q-49 58 -49 80q0 25 15 57q16 31 36 31q11 0 19 -12q34 -48 65 -76 q133 -118 346 -118q84 0 147 80q32 39 56.5 84t43.5 94t34 100t27 104l16 78q5 29 6 39q5 42 7 81t8 77q-28 -13 -115 -66l-93 -56l-75 -44q-66 -39 -149 -74q-84 -35 -138 -35q-94 0 -145 75t-51 173q0 70 15 156q8 43 16.5 80.5t18.5 70.5l23 79l33 106q10 33 22 57.5 t27.5 41t36.5 24.5t51 8q29 0 46 -33q16 -31 16 -64q0 -20 -9 -36l-14 -23l-23 -37q-14 -22 -22 -36.5t-10 -22.5l-14 -42q-6 -18 -11 -30q-4 -12 -9 -29l-12 -38q-13 -43 -18.5 -78.5t-5.5 -75.5t16 -97q17 -59 46 -59q88 0 213 51q125 52 226 135t122 167q4 12 6 36 t3.5 53.5t2.5 61.5t2.5 61.5t3.5 53t6 35.5q26 92 84 92q55 0 68 -28q14 -30 14 -95z" />
<glyph unicode="z" horiz-adv-x="1236" d="M1189 203q24 0 30 -17q8 -22 8 -41q0 -21 -25 -51q-27 -33 -71 -64t-98 -53t-104 -22q-12 0 -43 5l-70 14q-40 7 -85 16.5t-87.5 17t-77.5 13t-54 5.5q-49 0 -81 -9.5t-58 -24.5q-24 -13 -42.5 -27t-36.5 -25.5t-37 -19t-43 -7.5q-13 0 -23 8t-17.5 20.5t-12.5 28 t-7 30.5q55 66 111 122l112 109l111 110q56 56 112 122q67 79 119.5 149t89.5 136q-21 10 -43.5 8.5t-54.5 -4.5q-28 -3 -47 -4l-38 -2q-18 -1 -39 -3t-52 -6q-35 -5 -61.5 -7.5t-45.5 -2.5q-219 0 -219 115q0 32 23 52.5t55 20.5q9 0 20.5 -2.5t24 -6t23.5 -7.5t18 -6 q51 -14 108 -14q52 0 110 6.5t118 14t121 14t118 6.5q16 0 34.5 -3.5t34.5 -11.5t27 -21t11 -32v-4q-29 -55 -56 -97.5t-56.5 -82t-62.5 -79.5l-75 -90q-33 -41 -77 -88l-88 -94q-43 -47 -77.5 -89.5t-47.5 -73.5q1 -2 16 -3t33 -1h35h22q30 0 69 -5l86 -11q47 -7 101.5 -12 t115.5 -5q33 0 63.5 13.5t55.5 29.5l46 30q20 13 31 13z" />
<glyph unicode="{" horiz-adv-x="866" d="M873 -313q0 -15 -22 -50l-19 -31q-8 -14 -16 -23q-17 -20 -74 -33q-29 -7 -53.5 -10.5t-44.5 -3.5q-11 0 -32 2t-33 2q-51 0 -93.5 23.5t-76.5 61t-57.5 85.5t-35.5 98q-8 33 -11.5 77.5t-2.5 101.5v33l2 31v34v41q0 136 -15 199t-50 63q-15 0 -75 -26t-75 -26 q-24 0 -49 30q-25 29 -25 52q0 37 56 81q55 45 96 54q7 1 33 9q56 23 122 82q68 62 68 108q0 14 -4 33q-5 23 -9 70q-5 49 -12 77q-27 117 -27 201q2 209 157 341q24 20 101 54q78 34 105 34q42 0 75 -16q36 -15 36 -49q0 -31 -12 -73t-37 -42q-17 0 -48 6q-32 6 -48 6 q-38 0 -89 -45t-67 -82q-14 -32 -15 -165q0 -30 15 -91q15 -62 15 -98q1 -115 -10 -183.5t-30 -98.5q-14 -23 -35.5 -44.5t-50.5 -41.5q-53 -32 -53 -43t29 -26q35 -21 52 -75t17 -108q0 -39 -6 -160q-6 -120 -6 -160q-2 -140 42.5 -211t131.5 -71q43 0 77 8q31 7 81 27 q18 8 25 8q83 0 83 -47z" />
<glyph unicode="|" horiz-adv-x="662" d="M399 1919q0 -424 -6 -849.5t-6 -850.5v-200q1 -38 1 -77t1 -77q1 -77 1.5 -169.5t0.5 -215.5q0 -90 -0.5 -155.5t-1.5 -110.5q-9 -228 -80 -228q-14 0 -27 6.5t-22.5 17t-15.5 23.5t-6 27q0 154 3.5 309t7.5 310t7.5 310t3.5 308q0 29 -1 81l-2 110l-2 109q-1 52 -1 81 q0 67 0.5 128.5t1.5 118.5q1 112 6 291q4 180 6 313.5t2 223.5q0 20 -2 45l-3 56q-2 32 -3.5 51t-1.5 26q0 36 5 58t22 39q12 9 27 17.5t24 8.5q37 0 49 -43q12 -44 12 -92z" />
<glyph unicode="}" horiz-adv-x="825" d="M811 531q0 -13 -10 -28t-24.5 -28t-31 -21.5t-28.5 -8.5q-91 0 -146 23q-7 -6 -15.5 -18.5t-15.5 -27t-11.5 -28.5t-4.5 -23q0 -20 36 -210l18 -81l10.5 -47.5t6.5 -37.5t4 -50q3 -38 -0.5 -83t-13.5 -89.5t-26.5 -85t-40.5 -68.5q-42 -51 -100 -78.5t-133 -27.5 q-19 0 -37.5 0.5t-36.5 3.5t-34.5 9.5t-32.5 19.5q-35 29 -35 64q0 18 16 32t37.5 23.5t44 14.5t35.5 5q5 0 15.5 -1.5t22.5 -3t22.5 -3t14.5 -2.5q113 43 115 276q0 31 -4 68t-10 76t-12.5 77t-11.5 73q-7 45 -10 78.5t-3 56.5q0 62 22 84q23 23 70 38q-4 1 -14 5.5 t-21.5 9t-21 9t-13.5 7.5q-19 13 -36.5 30t-30.5 36.5t-21 41.5t-8 46q-5 74 24 167q13 46 27 84l26 74l24 72q12 38 23 85q13 48 13 115q0 34 -15.5 61t-40.5 45.5t-55 28.5t-59 10q-52 0 -107.5 -12.5t-96.5 -43.5l-24 -19q-10 -8 -16 -8q-15 0 -21.5 6.5t-6.5 16.5 q0 102 82.5 156.5t247.5 54.5q28 0 59 -9.5t60.5 -26.5t54.5 -39.5t41 -49.5q21 -35 34 -80.5t13 -105.5q0 -72 -16 -124l-14 -44l-22 -65l-22 -65q-10 -30 -16 -42q-14 -36 -23.5 -68t-15.5 -63.5t-9 -65t-3 -72.5q43 -49 88 -49q10 0 31.5 1.5t45 3.5t45 3.5t31.5 1.5 q49 0 83 -22t34 -68z" />
<glyph unicode="~" horiz-adv-x="1593" d="M1522 938q0 -18 -39 -111q-7 -16 -27 -40l-37 -46q-42 -56 -108 -111q-65 -55 -131 -71q-122 -27 -181 -27q-53 0 -99 33q-23 17 -53 43l-67 61q-37 35 -69 61.5t-60 45.5q-55 37 -121 37q-11 0 -22.5 3t-22.5 3q-41 0 -99 -53q-57 -53 -93 -129q-17 -38 -54 -92 q-36 -56 -55 -56q-34 0 -60 20.5t-26 53.5q0 67 11 113.5t49 79.5q7 6 19 18l29 32q34 39 66 60q22 15 53 32.5t71 37.5q80 41 118 41q26 0 109 -21q28 -6 82 -45l59 -45l68 -53q70 -57 88 -70l45 -33q18 -13 26 -18q17 -10 60 -10q8 0 18.5 1t24.5 3q30 4 52 9l44 10 q31 6 52 37q11 16 24 38t27 51q31 60 38 70q68 92 129 92q26 0 44 -15t18 -40z" />
<glyph unicode="&#xa1;" horiz-adv-x="586" d="M479 1206q0 -11 -5 -20t-5 -12q0 -7 2 -20t2 -21q0 -44 -49 -78q-48 -33 -94 -33q-37 0 -50 39q-14 40 -14 82q0 10 -0.5 16.5t-1.5 14.5q0 9 64 79q13 15 69 15q42 0 62 -11t20 -51zM416 641q0 -25 -1.5 -49.5t-5.5 -47.5q-3 -23 -7.5 -53t-11.5 -65l-10 -62 q-4 -27 -7 -45q-5 -33 -12 -67l-13 -66q-6 -32 -11 -61.5t-5 -54.5q0 -14 -1 -36.5t-3 -53.5t-3 -53.5t-1 -37.5q0 -13 -2.5 -35.5t-7.5 -56.5q-11 -68 -27 -129t-31 -74q-25 -20 -45 -20q-16 0 -33 20l-38 48q-19 25 -19 51q0 33 9 86l9 47q4 22 8 41q11 42 11 57 q0 35 2 74.5t6 83.5t9 86l10 84l13 92l15 107q2 10 7 30.5t15 52.5q19 64 36.5 115t29.5 72q10 16 32.5 25.5t43.5 9.5q22 0 26 -13q13 -30 13 -102z" />
<glyph unicode="&#xa2;" horiz-adv-x="1042" d="M940 930q0 -39 -13.5 -55.5t-52.5 -16.5q-21 0 -38 10t-41 30t-40.5 30t-33.5 10t-38 -87q-11 -44 -20.5 -91t-17.5 -99q-8 -51 -12 -83t-4 -46q0 -28 18 -28q35 0 64 15q29 14 65 38q35 23 45 23q32 0 58 -10q28 -10 28 -21q0 -67 -45 -98q-14 -11 -40 -21t-64 -20 q-74 -18 -94 -27q-50 -21 -60 -78q-20 -100 -20 -194q0 -121 -66 -121q-35 0 -61 32q-25 32 -25 68q0 28 22 117q22 90 27 121q-14 4 -87 12q-36 4 -57.5 6t-29.5 4q-64 14 -126 101q-62 89 -62 155q0 73 16 124q16 52 55 122q17 28 95 81q40 28 68.5 44.5t45.5 23.5 q27 7 55 13l57 14q59 14 64 25q12 18 29 164q5 40 7.5 70.5t2.5 51.5q0 64 82 64q15 0 27 -7.5t20.5 -19t13.5 -25.5t5 -28q0 -18 -3.5 -39t-4.5 -33q-3 -23 -18 -81q-15 -57 -15 -83q7 -4 27 -13.5t52 -23.5q66 -28 103 -55.5t37 -64.5zM573 932q-143 -47 -238 -124 q-95 -78 -95 -196q-2 -20 14.5 -47t40.5 -51.5t51 -41.5t45 -15q6 0 19 2t33 6q42 9 46 16q15 13 19 37q7 71 33 218q13 73 21 122t11 74z" />
<glyph unicode="&#xa3;" horiz-adv-x="1370" d="M1309 180q0 -74 -60 -126q-60 -51 -141 -75q-80 -24 -127 -24q-79 0 -260 65q-23 8 -57 22l-76 30l-77 30l-60 24q-51 19 -105 30q-188 -131 -203 -131q-26 0 -58 16q-32 17 -32 43q0 23 28 67q29 47 64 85q38 40 60 47q10 2 13 2q8 0 14 -0.5t12 -1.5q13 0 18 6 q37 42 90 129q52 88 78 147q-6 1 -14 1h-20q-16 0 -45.5 -1t-55.5 -2q-51 0 -115 18q-63 19 -63 54q0 86 63 86q23 0 62 -11q37 -10 59 -10q129 0 152 15q5 78 9.5 137.5t9.5 102.5t18.5 86t33.5 88q41 90 125 155q116 88 219 88q67 0 135 -42t68 -109q0 -13 -14 -46 q-14 -32 -25 -36q-27 -11 -49 -11q-26 -2 -43.5 13t-33 33.5t-33 33t-42.5 13.5q-43 0 -89 -41q-45 -41 -68 -86q-78 -143 -78 -293q0 -17 0.5 -28t1.5 -17q4 1 22 5l53 12q35 8 69 17l69 18l55 14q20 5 25 7q74 25 129 25q23 0 56 -15q34 -13 34 -34q0 -20 -8 -43t-25 -31 q-21 -10 -77 -23q-28 -8 -62 -14l-71 -13l-61 -11q-22 -4 -30 -6q-107 -25 -164 -48q-13 -6 -20 -28q-4 -11 -7 -24t-6 -30q-6 -34 -12 -47q-17 -45 -68 -109q-51 -65 -69 -102q1 -3 89 -32l80 -25l65 -20l56 -21l65 -25q36 -14 67 -24.5t60.5 -18t59 -11t62.5 -3.5 q64 0 111 54q15 16 15 50q0 11 -0.5 17.5t-0.5 13.5q0 21 2 27q6 14 32 28q26 13 42 13q24 0 36.5 -16.5t24.5 -36.5q13 -19 13 -66z" />
<glyph unicode="&#xa4;" horiz-adv-x="1493" d="M1415 1354q0 -18 -16 -43.5t-39 -53.5l-50 -55l-46 -49q-48 -56 -72 -109q24 -37 38 -122q7 -42 10 -80.5t3 -75.5q0 -57 -7 -105.5t-22 -93.5t-37.5 -89t-52.5 -91q4 -5 10.5 -18.5t17.5 -33.5q21 -40 40 -68.5t41 -43.5l33 -19q18 -10 32 -21t23.5 -24t9.5 -28 q0 -3 2.5 -10t6 -15t6 -16.5t2.5 -15.5q-2 -13 -9 -24.5t-17 -23.5t-22 -22l-22 -20q-38 4 -96 56q-29 26 -56 54l-53 56q-19 23 -31.5 40.5t-25.5 30.5t-29 22.5t-41 18.5q-31 -11 -118 -27q-86 -16 -107 -16q-49 0 -107 15.5t-106 39.5q-38 -4 -90 -38.5t-124 -95.5 l-60 -52l-42 -33q-30 -24 -49 -24q-24 0 -49 34q-26 35 -26 62q1 14 6.5 24t14 18t19 15.5t19.5 16.5q25 24 108 78q84 57 107 88q9 11 14 55q-75 136 -75 323q0 43 4 81t14 71.5t26.5 64t41.5 60.5q-15 61 -52 121q-36 61 -84 96l-24 17q-14 10 -26.5 22.5t-20.5 25.5 t-6 27q0 25 35 48q34 24 59 24q41 0 83 -56q43 -57 87 -130q16 -26 32 -49.5t33 -45.5q130 90 179 97q29 4 60 6t66 2q58 0 136 -22q82 -23 133 -48q19 15 48 45l71 78q6 6 15 18l19 24l22 26l23 24q22 23 43 38t39 15q21 0 49 -25q29 -24 29 -46zM1061 803q0 39 -2.5 72 t-9.5 59t-20.5 46.5t-35.5 35.5q-37 28 -122 49q-82 22 -144 22q-75 0 -136 -66q-60 -65 -97 -158q-35 -93 -35 -161q0 -37 10 -93q10 -57 27 -89q18 -34 111 -83q95 -50 134 -50q95 0 157 31t98 86.5t50.5 131.5t14.5 167z" />
<glyph unicode="&#xa5;" horiz-adv-x="1325" d="M1282 1305q0 -29 -29 -52l-120 -91l-115 -91q-112 -91 -186.5 -166.5t-98.5 -124.5q-5 -6 -9 -16l-10 -22q-12 -26 -12 -31q34 0 105 12q73 14 140 30q70 18 97 31t31 13q22 0 47 -40t25 -65q0 -24 -62 -41q-31 -8 -73 -16.5t-97 -17.5q-110 -18 -135 -27 q-42 -12 -69 -12q-11 -24 -11 -94v-25q0 -38 13 -74q26 1 72 14q42 13 79 13q13 0 78 15q64 15 94 15q15 0 29.5 -4t26 -11t19 -18t7.5 -24q0 -9 -2.5 -19t-7 -20t-10 -17t-11.5 -10q-23 -7 -101 -21q-77 -13 -140.5 -21.5t-93.5 -8.5q-45 0 -45 -41v-34q0 -78 36 -123 q-16 -37 -40 -53.5t-72 -16.5q-26 0 -44.5 24t-23.5 66q-2 11 -3 27.5t-2 37.5q-2 42 -5 59t-14 17q-16 0 -89 -12q-72 -11 -96 -18q-69 -23 -131 -23q-29 0 -53 27q-23 29 -23 59q0 31 28 47q29 17 61 17q58 0 162 12t134 27q5 2 9 12.5t6.5 26t4 34.5t1.5 39q0 54 -8 68 t-31 14t-58.5 -3t-84.5 -8l-81 -8q-32 -3 -46 -3q-52 0 -77.5 18.5t-25.5 71.5q0 39 21 53t61 14q8 0 27.5 -2.5t49.5 -7.5t49.5 -7.5t27.5 -2.5q118 0 160 16q-1 8 -14 34l-11 22q-4 9 -8 14l-24 33q-12 17 -26 34l-30 35l-34 39q-33 39 -54 55q-28 26 -53 56l-49 62 l-48 63q-24 31 -51 55q-31 29 -48 64.5t-17 72.5t28 52.5t64 15.5q16 0 36 -26t44 -62l38 -59q14 -22 21 -31q90 -121 201 -238l48 -51l75 -76q19 7 54 48l37 42l41 46q21 24 36.5 39t25.5 22q42 27 85 73l46 49l51 55q56 60 93 89q24 18 66 35q43 18 67 18q17 0 36 -25 t19 -42z" />
<glyph unicode="&#xa6;" horiz-adv-x="662" d="M406 1946q0 -22 -1 -162l-3 -400l-3 -401q-1 -140 -2 -162q-2 -36 -18 -58t-41 -22q-28 0 -50 17.5t-22 42.5v43q0 30 1 80t1.5 102t1.5 107t1 96v69q1 28 1 56v55v47q0 24 -1 48v63q0 38 -1 90q-2 103 -3 195q-1 46 -1 74v38q0 12 3.5 25t9.5 24t14.5 18t19.5 7 q39 0 66 -31q27 -30 27 -61zM397 209q-1 -60 -2 -114l-2 -105q-1 -51 -2 -111.5t-2 -133.5t-1.5 -145t-1.5 -144v-152q0 -80 -1 -172q0 -95 -19 -120q-20 -26 -57 -26q-31 0 -51 23t-20 35q0 103 2 195.5t6 176.5t6 176.5t2 196.5q0 15 -0.5 66.5t-1.5 141.5t-1.5 141.5 t-0.5 66.5q0 21 4.5 41t13.5 35.5t24 24.5t36 9q37 0 53 -34q16 -32 16 -72z" />
<glyph unicode="&#xa7;" horiz-adv-x="858" d="M760 1395q0 -37 -31 -77t-67 -40q-12 0 -30 42q-16 42 -18 44q-13 24 -49 43q-35 20 -65 20q-44 0 -99 -30q-55 -28 -55 -68q0 -26 2 -48t8 -40.5t18.5 -34.5t33.5 -30q73 -53 131 -84q40 -20 86 -63q48 -44 73 -83q30 -48 45 -86t15 -82q2 -38 -18.5 -80.5t-53 -80 t-72 -63.5t-75.5 -30q43 -29 71 -50l43 -32q29 -23 51.5 -67.5t22.5 -116.5q0 -75 -29.5 -128.5t-79 -88t-115 -51t-136.5 -15.5q-81 0 -147 34.5t-103 101.5q-23 40 -23 77q0 25 7 60q7 39 24 39q56 0 76 -18t33 -58q13 -41 32 -59l34 -32q16 -16 27 -20q6 -2 12 -3 t14.5 -2t20.5 -1h32q24 -1 58.5 10.5t66 31t52.5 44.5t19 51q0 48 -20 79t-60 57q-24 17 -64 35l-77 36q-63 34 -166 113q-65 50 -88 95q-23 48 -23 124q0 57 34 115q35 59 87 92q11 8 23.5 16t26.5 18q29 20 52 31t48 17q-9 9 -27 25l-44 38q-52 44 -72 80q-21 37 -21 101 q0 18 23 75q11 28 20 46l14 30q20 36 104 56q86 20 146 20q33 1 75 -8t79.5 -26t63 -42.5t24.5 -58.5zM618 766q0 53 -26 103q-26 51 -72 67q-54 22 -57 22q-37 1 -74.5 -11t-67 -35t-47.5 -55.5t-16 -72.5q0 -26 6.5 -51t18.5 -46.5t29 -38t38 -25.5q23 -9 59 -32l30 -18 q12 -7 18 -10q2 16 35 36q34 22 38 26q33 25 60 66q28 40 28 75z" />
<glyph unicode="&#xa8;" horiz-adv-x="721" d="M631 1317q0 -100 -99 -100q-33 0 -57 24t-24 57q0 43 22 56t82 30q17 5 23 5q26 0 39.5 -21t13.5 -51zM258 1227q0 -41 -90 -41q-21 0 -61 14q-39 13 -39 35q0 24 2.5 44.5t9 36t19 24t32.5 8.5q58 0 92.5 -32t34.5 -89z" />
<glyph unicode="&#xa9;" horiz-adv-x="1958" d="M1923 866q0 -50 -15 -95t-42.5 -89t-67 -88t-88.5 -90q-35 -34 -90 -70t-131 -74q-149 -76 -317 -138q-84 -31 -148.5 -50.5t-112.5 -28.5q-31 -6 -109 -24l-66 -14l-49 -10q-38 -7 -87 -7q-30 0 -111 18q-40 10 -78 20.5t-73 23.5q-72 26 -90 47q-34 37 -71 111 q-38 78 -38 114q0 43 17 128q16 84 42 174q25 90 48 138q40 87 99 180t133 176q37 42 73.5 73.5t71.5 54.5q37 24 87 51t103 49t105.5 36t95.5 13q34 0 85 -25q55 -26 96 -64q42 -38 42 -69q0 -12 -16 -43q-8 -16 -12 -25t-5 -12l24 3q10 2 19 2q44 0 264 -41q46 -7 120 -38 q36 -15 70.5 -33t64 -37.5t52.5 -40.5t37 -42q17 -22 42 -82q26 -63 26 -82zM1796 885q0 42 -73 109q-75 70 -154 98q-84 29 -169 48t-173 29q-6 1 -21.5 2t-41.5 2t-47 3t-38 4l-25 5q-10 2 -15 6t-7 11.5t-2 20.5q0 16 2 26q22 11 56 11h49q-29 61 -48 80q-20 20 -75 20 q-50 0 -119 -31q-72 -32 -140 -75q-34 -22 -60 -40.5t-44 -35.5q-40 -38 -81.5 -90.5t-85.5 -121.5q-87 -135 -144 -279t-57 -251q-2 -50 30 -89t81 -66t106.5 -41t105.5 -13q216 0 472 91q128 45 261.5 114t264.5 160q59 41 125 135q67 94 67 158zM1382 727q0 -4 -2 -16 t-2 -17q0 -24 -48 -73q-47 -48 -119 -99q-69 -47 -126 -61l-77 -17q-34 -8 -63.5 -12.5t-56.5 -7t-54 -2.5q-88 0 -151 65q-62 67 -62 154q0 26 15 67q8 20 12.5 35t6.5 23q8 29 15 52t13 40q12 34 35.5 65t57.5 56q36 28 69 50.5t64.5 38t62.5 24t64 8.5q31 0 59.5 -13.5 t51 -36t36 -51.5t13.5 -61q0 -16 -4 -31q-5 -15 -41 -32t-53 -17q-22 0 -29 22q-4 11 -6.5 25t-4.5 30q-3 32 -5 34q-6 2 -19 2q-42 0 -57 -5q-12 -4 -26 -20.5t-33 -32.5q-37 -29 -64.5 -58t-45.5 -60.5t-27 -66.5t-9 -77q2 -33 5 -50.5t12.5 -25.5t28.5 -9.5t54 -2.5 q100 0 166 23q27 8 60 21.5t72 31.5q80 39 126 70q11 7 23 25q14 20 43 20q20 0 20 -27z" />
<glyph unicode="&#xaa;" horiz-adv-x="1069" d="M1053 1112q0 -33 -31 -88q-42 -71 -119 -122q-77 -50 -153 -50q-56 0 -99 55q-43 54 -67 123q-6 -8 -39 -63q-55 -92 -127 -167q-70 -73 -146 -73q-72 0 -108 56q-35 56 -35 130q0 88 47 214q48 124 126 225q79 100 165 123q10 2 22 5.5t24 6.5l22 5q10 2 16 3 q48 0 80 -53q24 10 31 10q49 0 49 -80q0 -28 -10 -87q-9 -60 -9 -83q0 -84 10 -121q11 -31 32 -66q20 -32 42 -32q115 0 203 133q24 33 39 33q10 0 22.5 -12.5t12.5 -24.5zM569 1348q0 22 -13.5 27t-41.5 5q-62 0 -121 -89q-29 -45 -53.5 -96t-43.5 -109q-38 -117 -38 -177 q0 -5 2.5 -11.5t6.5 -13.5t8.5 -11.5t9.5 -4.5q29 0 54 15t46 38t39 51l33 52q69 106 104 268q8 40 8 56z" />
<glyph unicode="&#xab;" horiz-adv-x="1497" d="M1458 920q0 -17 -16 -40q-16 -24 -29 -28q-17 -8 -48.5 -14.5t-59.5 -16.5l-58 -22l-132 -50q-168 -65 -177 -69q-10 -7 -10 -18q2 -2 23 -21l59 -54l127 -118q25 -23 47 -47l45 -48q43 -46 43 -65q0 -24 -18 -39.5t-42 -15.5q-18 0 -37 18l-36 35q-51 51 -129 121 l-187 164q-5 4 -14 12l-21 18q-12 10 -20 18l-14 13q-17 17 -17 35q0 32 17 41q55 39 133 68q75 29 155 53l179 55q22 7 81 45q58 37 97 37q12 0 22.5 -6t18.5 -15.5t13 -21.5t5 -24zM725 973q2 -22 -12.5 -40t-37 -34t-48.5 -29t-45 -24q-29 -16 -74 -48q-23 -17 -44 -30 t-40 -23q-13 -7 -62 -21q-47 -14 -59 -24q-3 -3 -8 -16q33 -19 127 -95q98 -78 171 -151q75 -74 75 -104q0 -9 -4.5 -18.5t-12 -17t-17 -12.5t-18.5 -5q-13 0 -24 8l-62 53l-81 64l-79 62l-57 48q-26 23 -62.5 48t-82.5 52q-18 9 -33 18t-22 15q-12 8 -18.5 27.5t-6.5 30.5 q0 27 8 40.5t22 20t34.5 9t46.5 7.5q98 27 217 103q247 157 260 157q11 0 20 -6.5t15.5 -16.5t10 -23t3.5 -25z" />
<glyph unicode="&#xac;" horiz-adv-x="1475" d="M1288 635q2 -6 2 -24q0 -16 -1 -41.5t-3 -62.5l-3 -55q-1 -18 -1 -20q0 -31 -1 -75t-3 -103q-5 -119 -8 -125q-7 -14 -30 -31q-22 -16 -42 -16q-19 0 -41 21q-23 23 -24 38q-1 5 -1 13v19q0 20 3 58.5t8 96.5q12 117 12 147q0 27 -9 43.5t-16 16.5q-132 0 -243 -15 q-96 -12 -193 -12q-32 0 -71.5 -0.5t-87.5 -1.5t-87 -1.5t-71 -0.5q-28 0 -33 1q-7 1 -52 3q-22 1 -34 1.5t-16 0.5h-107q-24 0 -30.5 19t-6.5 55q0 12 18 35q20 23 29 24q54 8 100 9t91 3q5 1 13 1h19q38 0 97 -9q29 -4 52.5 -6t41.5 -2q20 0 48 2.5t65 7.5t65 7.5t47 2.5 q60 0 165 12q53 7 95.5 10t75.5 3q22 0 45.5 -2.5t48.5 -7.5q35 -7 51 -14q12 -4 23 -25z" />
<glyph unicode="&#xad;" horiz-adv-x="1313" d="M1241 567q0 -15 -5.5 -32t-16.5 -27q-11 -8 -58 -8q-20 0 -62 13t-67 13q-8 0 -20.5 -1t-26.5 -2t-26.5 -2t-20.5 -1q-32 0 -99 6q-68 6 -100 6q-46 0 -139 -6t-141 -6t-77.5 10.5t-29.5 47.5q0 22 17 40t41 23q106 21 159 21q14 0 41 -6q14 -2 22.5 -3.5t12.5 -1.5h73 q91 0 159.5 3t117.5 10q43 6 88 6q19 0 67 -19q49 -20 69 -30q9 -6 15.5 -23t6.5 -31z" />
<glyph unicode="&#xae;" horiz-adv-x="1915" d="M1821 905q0 -191 -60 -272q-38 -53 -91 -103t-120 -99q-67 -48 -141.5 -91t-156.5 -81q-161 -74 -330 -118q-165 -43 -293 -43q-10 0 -27 1t-36 2l-36 2q-18 1 -28 1q-54 0 -138 48q-84 50 -155 117q-71 68 -92 122q-6 15 -12 35t-11 46q-10 49 -10 75q0 69 55 180 q28 57 61 110.5t72 104.5q79 103 136 137q55 34 93 62t58 51q0 26 6 53q4 20 60 76q28 28 56.5 53t57.5 48q59 47 80 51q75 18 125 28t86 10q142 0 270 -39t199 -100q50 -42 128 -134q79 -91 136 -184q58 -92 58 -149zM1698 862q0 98 -62 195q-60 96 -161 175 q-98 78 -210 123q-111 46 -204 46q-81 0 -179 -34t-145 -87q190 80 279 80q20 0 61 -30q42 -29 73 -68q32 -40 32 -62q0 -17 -21 -51q-54 40 -73 51q-20 13 -42 14q-23 3 -79 3q-27 0 -61.5 -9t-73 -24t-79 -34.5t-79 -41t-72.5 -43.5t-59 -41q-99 -76 -186 -172 q-87 -95 -121 -182q-12 -32 -12 -70q1 -19 2 -41.5t1 -36.5q0 -36 11.5 -68.5t32.5 -60t49.5 -50t62.5 -38.5q69 -33 144 -48t147 -15q46 0 80 3.5t67.5 10t72 16t93.5 21.5q48 9 160 58q58 25 112.5 51t107.5 54q107 56 146 89q45 37 79.5 73t58 73.5t35.5 79.5t12 91z M1419 586q0 -16 -28 -34q-29 -17 -45 -17q-51 0 -127 36l-75 36l-76 35q-75 36 -126 36q-8 0 -14.5 6t-11.5 15.5t-8 20.5t-3 21q0 34 29 52q14 9 37.5 20.5t55.5 25.5q65 29 65 48q0 43 -115 43q-15 0 -48 -10q-17 -4 -33 -10l-28 -11q0 -42 4.5 -95t14.5 -120 q1 -8 4.5 -27t3.5 -34t-4.5 -36t-14 -40t-23 -32t-30.5 -11q-23 0 -49 23t-29 48q-1 8 -1.5 20t-0.5 28q0 15 1 42.5t2.5 57.5t2.5 57.5t1 42.5q0 51 -7 72q0 2 -25 26q-24 24 -24 46q0 20 22 39q24 21 42 22q12 2 34.5 4.5t54.5 6.5q66 9 103 11.5t64 2.5q28 0 61 -10.5 t55 -26.5q27 -20 68 -70q41 -49 41 -74q0 -28 -53 -57q-26 -14 -54.5 -26.5t-60.5 -22.5q17 -11 34.5 -20.5t34.5 -17.5l46 -17l64 -24q38 -13 65.5 -24.5t46.5 -21.5q57 -30 57 -55z" />
<glyph unicode="&#xaf;" horiz-adv-x="854" d="M915 1370q0 -30 -12.5 -40.5t-48.5 -10.5q-25 0 -104 9q-40 4 -66 6t-39 2q-47 0 -110 -4l-129 -8l-129 -9q-63 -4 -111 -4q-8 0 -29 1t-54 3t-54 3t-29 1q-31 0 -46 19.5t-15 46.5q0 24 17.5 41.5t43.5 17.5q5 0 22 1.5t46 3.5l50 3q22 2 36 2q18 0 43.5 -1t57.5 -3 t62.5 -3t59.5 -1q45 0 134 9q45 4 79.5 6t58.5 2q15 0 101 -9q43 -5 69 -7.5t35 -2.5q26 0 43.5 -19t17.5 -55z" />
<glyph unicode="&#x305;" horiz-adv-x="854" d="M915 1370q0 -30 -12.5 -40.5t-48.5 -10.5q-25 0 -104 9q-40 4 -66 6t-39 2q-47 0 -110 -4l-129 -8l-129 -9q-63 -4 -111 -4q-8 0 -29 1t-54 3t-54 3t-29 1q-31 0 -46 19.5t-15 46.5q0 24 17.5 41.5t43.5 17.5q5 0 22 1.5t46 3.5l50 3q22 2 36 2q18 0 43.5 -1t57.5 -3 t62.5 -3t59.5 -1q45 0 134 9q45 4 79.5 6t58.5 2q15 0 101 -9q43 -5 69 -7.5t35 -2.5q26 0 43.5 -19t17.5 -55z" />
<glyph unicode="&#xb0;" horiz-adv-x="1038" d="M887 1135q0 -94 -57 -169q-56 -75 -147 -117q-90 -42 -179 -42q-64 -1 -120.5 18t-99.5 55.5t-67.5 88.5t-23.5 118q0 49 45 129q23 40 51 74.5t60 65.5q64 61 118 61q24 0 68 6q41 7 75 7q30 0 81 -14q50 -14 71 -30q21 -15 51 -68q17 -26 29 -53l23 -53q22 -51 22 -77z M760 1110q1 34 -9 69t-25.5 62t-35 43.5t-37.5 15.5q-13 0 -27 -5t-24.5 -11t-17 -11t-4.5 -5q-4 0 -12.5 1.5t-22.5 3.5l-25 3q-12 2 -20 2q-32 1 -60.5 -18.5t-50 -49t-34 -64.5t-11.5 -65q0 -56 57 -101q58 -44 115 -44q95 0 154 27q26 12 58 65t32 82z" />
<glyph unicode="&#xb1;" horiz-adv-x="1169" d="M1075 758q0 -20 -15 -47t-32 -27q-5 0 -19.5 1.5t-37.5 3.5l-41 3q-18 2 -33 2h-75q-32 0 -58 -1h-54q-28 0 -59 -1q-14 -54 -14 -92q0 -10 1 -29.5t2 -41.5l2 -42q1 -20 1 -30q1 -15 1 -29v-28q0 -14 1 -30v-38q0 -13 -8.5 -26t-21.5 -23t-28 -16.5t-28 -6.5 q-16 0 -36 17q-19 16 -19 34q0 9 1.5 26.5t3.5 36.5l4 36q2 18 3 26q5 47 7.5 88t2.5 78q0 30 -1 52.5t-3 37.5q-8 2 -19 2h-20q-27 0 -62.5 -1.5t-80.5 -5.5t-74 -5.5t-45 -1.5h-55q-30 1 -47.5 4t-27 14t-13 33.5t-4.5 63.5q21 26 92 26q23 1 44 1h40q20 1 44 1h56 q22 1 47.5 2t46.5 2q12 1 20 1h16q8 0 18 1h24q21 39 21 129q0 10 -1 24l-2 30l-2 30q-1 14 -1 23l2 31l2 30q1 15 1.5 24t0.5 28q0 34 10.5 48.5t46.5 14.5q53 0 68 -17q16 -16 16 -71q0 -61 -12 -170q-11 -110 -15 -166q19 -1 49 -3l70 -4q79 -3 119 -3q12 0 50 9 q37 9 61 9q28 0 48.5 -19.5t20.5 -47.5zM1059 55q-2 -24 -15.5 -37.5t-36.5 -20.5t-53.5 -9t-66.5 -2q-34 0 -131 9q-96 9 -152 9q-22 0 -54.5 -0.5t-77.5 -1.5t-77.5 -1.5t-54.5 -0.5h-68q-109 0 -145 6q-9 2 -22 24t-13 31q0 24 19 49t43 25q11 0 30.5 2.5t45.5 7.5 q27 5 48 8t37 3q23 0 63 -2l84 -6l83 -4q40 -2 63 -3q11 0 26 -1t35 -3t35 -3t25 -1q14 0 35.5 0.5t49.5 1.5t49.5 1.5t35.5 0.5q7 0 19 -0.5t24 -1.5t23.5 -1.5t19.5 -0.5q74 0 74 -78z" />
<glyph unicode="&#xb2;" horiz-adv-x="901" d="M895 756q0 -30 -27 -52q-25 -22 -57 -22q-9 0 -19 2l-22 6l-23 6q-11 2 -18 2q-82 0 -185.5 -24t-238.5 -64q-8 -2 -22 -6l-34 -11q-39 -12 -67.5 -19t-52.5 -7q-35 0 -61.5 19t-26.5 55q0 58 124 200l128 143l135 142q14 15 34.5 40.5t39 52.5t30.5 51.5t11 38.5 q0 16 -23 16q-59 0 -170 -47q-12 -5 -31 -14.5t-28 -12.5q-10 -4 -23 -20q-12 -15 -19.5 -23t-17.5 -8q-30 0 -43 30q-12 30 -12 62q0 34 15.5 51t52.5 27q10 2 26 8l40 14l85 32q37 14 70 22q60 16 80 16q47 0 86 -36q39 -35 39 -83q0 -25 -18 -82q-16 -55 -31 -71 l-88 -101l-85 -102l-88 -108l-96 -121l2 -4q1 -6 13 -6q14 0 68 17q52 18 71 21l80 12q35 6 63 10q28 6 58 10l63 9q14 2 44 9q60 16 89 16q18 0 33 -8t25.5 -21t16 -30.5t5.5 -36.5z" />
<glyph unicode="&#xb3;" horiz-adv-x="795" d="M776 1008q0 -52 -53 -129q-39 -58 -110 -118q-66 -58 -132 -85q-242 -103 -375 -103q-11 0 -21 6.5t-17.5 16.5t-12 22t-4.5 23q0 66 27 86q27 21 94 21q7 0 17.5 -3.5t15.5 -3.5q21 0 38 2.5t35 6.5l36 10q20 6 44 12q19 4 45.5 14.5t61.5 29.5q72 38 123 82 q53 47 53 81q0 35 -68 35q-17 0 -61.5 -6t-118.5 -17q-17 -2 -45 -12q-26 -10 -43 -10q-31 0 -51.5 18t-20.5 51q0 10 7 24t17.5 27t23.5 22t24 9q7 0 15 -3t24 -3t78 36q63 37 111 85q49 49 49 82q0 13 -19 16q-12 4 -51 4q-42 0 -80 -15.5t-80 -39.5l-44 -24l-33 -18 q-27 -13 -60 -13q-22 0 -41 27q-18 27 -18 49q0 38 63 65q16 6 38 12l45 12l46 10q22 5 35 11q35 14 62.5 23.5t47.5 14.5q42 11 95 11q55 0 92 -27t37 -81q0 -80 -92 -164q-88 -67 -88 -80q0 -4 8 -4q12 0 40 16q29 17 42 17q23 0 49.5 -11t48.5 -29t36.5 -41.5t14.5 -49.5 z" />
<glyph unicode="&#xb4;" horiz-adv-x="762" d="M652 1371q0 -11 -17 -31q-7 -8 -35 -26l-66 -42l-76 -48q-40 -24 -67 -43l-89 -63q-44 -31 -88 -59q0 -1 -8 -5l-17 -10l-17 -10q-8 -4 -9 -5q-13 0 -24.5 6.5t-20 16t-13.5 21.5t-5 23q0 43 127 133q126 89 224 144q34 19 53 31.5t34 23.5q14 11 29 17t29 6q4 0 13.5 -7 t19 -18.5t16.5 -25.5t7 -29z" />
<glyph unicode="&#xb5;" horiz-adv-x="1518" d="M1438 170q0 -22 -24 -55q-12 -16 -23.5 -28.5t-22.5 -20.5q-19 -19 -70 -28q-48 -9 -81 -9q-52 0 -93 62q-39 61 -64 143q-12 42 -20 76.5t-12 64.5q-85 -121 -215 -225q-127 -103 -201 -103q-15 0 -36.5 3.5t-43.5 10t-41 14.5t-30 17q-26 24 -53 119q0 -70 -27 -182 q-11 -42 -23 -100t-26 -136q-6 -35 -10.5 -66t-12.5 -63q-5 -24 -22 -41.5t-39 -17.5q-43 0 -64 45q-20 46 -20 92q0 22 6 58q4 17 6 29t4 32q7 66 19.5 129t25.5 120l25 114q12 57 18 95l8 47l10 71l12 73q5 30 9 51l9 40q4 18 8 34q5 22 11 51t11 67l11 67q5 29 9 49 q9 43 27 85t40 60t61 18q38 0 53 -36q16 -33 16 -81q0 -29 -11 -67l-12 -39q-7 -22 -17 -48q-9 -26 -15 -45t-8 -30q-23 -100 -35 -178t-12 -141q0 -31 36 -89q38 -59 64 -59q127 0 248 91q61 46 108.5 98.5t81.5 113.5q14 22 26 65t22 88q5 23 11 48t11 52q5 28 9.5 48.5 t8.5 34.5q2 13 7 36t13.5 44.5t20.5 36.5t27 12q29 0 77 -16q52 -15 52 -37q0 -34 -21 -98q-4 -14 -10.5 -40t-17.5 -65q-21 -78 -32 -130.5t-11 -82.5q0 -45 4.5 -96.5t14.5 -112.5q19 -121 69 -121q28 0 75 19q52 20 48 20q19 0 31 -18t12 -39z" />
<glyph unicode="&#xb6;" horiz-adv-x="1370" d="M1253 1290q0 -20 -9 -29t-20 -15.5t-21.5 -14t-14.5 -23.5q-5 -36 -6.5 -60t-5.5 -56q-5 -43 -9 -82.5t-9 -74.5l-10 -74l-13 -81q-10 -57 -16.5 -102t-9.5 -79q-2 -34 -3.5 -80.5t-1.5 -106.5q0 -193 31 -357q5 -25 22 -69q19 -48 21 -54q-7 -12 -35 -24 q-26 -12 -39 -12q-53 0 -86 94q-8 25 -15 55.5t-14 67.5q-14 76 -21 151q-4 38 -5.5 68t-1.5 51q0 68 4.5 136.5t12.5 138.5t20.5 151.5t29.5 175.5q2 14 6 37.5t11 57.5q14 67 20 106t6 61q0 37 -70 37q-49 0 -128 -9t-191 -28q-77 -12 -191 -66q-112 -52 -155 -106 q-68 -86 -68 -155q0 -23 29 -81q28 -55 68 -101q39 -44 77 -44q36 0 47 66q9 63 9 192q0 70 18.5 99.5t58.5 29.5q46 0 45 -63q0 -31 -1.5 -70.5t-5.5 -88.5q-7 -96 -9 -146q12 -19 33 -19q2 0 16.5 3t24.5 3q70 0 70 -65q0 -32 -14 -43t-44 -16t-47 -13t-27 -35 q-18 -59 -18 -238v-77q0 -72 2.5 -133t7.5 -113q5 -38 7.5 -61t2.5 -33q0 -14 -6.5 -27t-17.5 -23t-24.5 -16t-26.5 -6q-28 0 -72 131q-4 11 -9.5 39.5t-12.5 76.5t-10 79.5t-3 48.5q1 16 3 39t4 54q3 31 5 57t4 46q3 42 3 95q0 48 -11 68q-6 11 -46 26q-39 17 -58 31 q-14 12 -39.5 31.5t-46.5 38.5q-26 25 -44 45l-32 35q-24 30 -38.5 71t-14.5 98q0 65 29 144q14 40 32.5 72.5t40.5 58.5q36 41 125 85q45 22 90.5 41t93.5 35q49 17 88 28t70 16l56 10q26 5 50 9t51.5 8t55.5 7t54 5t49 2q20 0 46 -4t53.5 -12.5t54 -21t47 -28.5t32.5 -35 t10 -41z" />
<glyph unicode="&#xb7;" horiz-adv-x="524" d="M393 621q0 -22 -24 -58q-15 -18 -95 -18q-25 0 -79 33t-54 57q0 20 24 64q24 45 40 61q20 20 110 20q31 0 54 -63q24 -63 24 -96z" />
<glyph unicode="&#xb8;" d="M545 -373q0 -67 -78 -116q-27 -18 -51 -30.5t-48.5 -20.5t-51.5 -11.5t-60 -3.5q-1 0 -69 20l-51 15q-18 5 -19 6q-51 21 -51 65q0 12 4.5 24t12 21.5t17.5 16t21 6.5q18 0 49 -20q30 -20 45 -27q16 -8 53 -8q64 0 113 29q49 28 49 90q0 36 -22 62t-58 26q-15 0 -45 -12 q-29 -13 -47 -13q-53 0 -53 49l67 175l29 75q8 29 66 29q7 0 14.5 -6t12.5 -15.5t8.5 -21t3.5 -23.5q0 -10 -6 -21l-13 -22q-13 -27 -20 -84q24 -21 79 -37q31 -6 50 -22q49 -40 49 -195z" />
<glyph unicode="&#xb9;" horiz-adv-x="610" d="M465 1475q0 -12 -12 -34l-9 -19q-4 -8 -4 -11q-6 -19 -10 -52l-10 -75q-7 -40 -12 -72t-9 -55l-9 -57l-13 -78q-8 -41 -9 -67q-1 -27 -3 -89q-1 -61 -3 -88q-11 -129 -88 -129q-12 0 -25 4t-23.5 11.5t-17.5 18t-7 22.5q0 23 2 54.5t6 71.5q8 90 21 203q15 115 35 213 t50 180q41 107 109 107q19 0 30 -20t11 -39z" />
<glyph unicode="&#xba;" horiz-adv-x="895" d="M793 1135q0 -44 -21 -119q-20 -75 -45 -103q-20 -25 -50 -49t-68 -48t-78 -43t-79.5 -32.5t-76.5 -20.5t-68 -7q-188 0 -188 219q0 81 43 188q11 28 39 76q14 23 23 40t14 28q27 56 59 98.5t71 70.5t87.5 42t109.5 14q39 0 53 -14q16 -14 35 -54q12 -20 43 -42 q33 -22 43 -38q54 -80 54 -206zM655 1126q0 63 -14 89q-13 26 -37 42q-24 17 -26 23q-3 9 -5.5 24t-5.5 28.5t-8.5 22.5t-15.5 7q-63 0 -115.5 -46.5t-92.5 -119.5q-40 -71 -63 -152q-22 -78 -22 -133q0 -22 39 -50q39 -27 63 -27q27 0 140 62q115 62 131 87q13 21 22 67 q10 43 10 76z" />
<glyph unicode="&#xbb;" horiz-adv-x="1493" d="M1432 602q0 -33 -32 -56q-31 -21 -86 -43q-55 -23 -69 -34l-55 -37l-68 -42l-66 -39q-30 -18 -54 -34l-48 -35q-25 -19 -51 -42l-37 -36q-18 -16 -43 -16q-29 0 -48 23.5t-19 54.5q0 29 54 73q27 22 60.5 45.5t75.5 49.5q82 52 155 90l116 60q-3 14 -121 117l-98 87 l-60 55q-41 38 -41 56q0 19 26 51q27 33 42 33q32 0 102 -88q60 -73 127.5 -132t148.5 -99q9 -5 24 -10.5t29.5 -13t25 -17t10.5 -21.5zM737 580q0 -4 -2 -11t-5 -14t-6.5 -12.5t-6.5 -7.5q-34 -27 -121 -75l-72 -41l-41 -24q-33 -19 -69 -47l-88 -65q-1 -1 -8 -7t-21 -17 q-28 -23 -42 -32.5t-22 -9.5q-24 1 -39.5 2.5t-24.5 7.5t-13.5 19t-5.5 37q0 15 20 69q34 26 119 69l159 81q73 36 97 59q16 16 16 31q0 14 -38 53t-119 115q-80 77 -113 113t-33 55q0 25 21.5 44t48.5 19t63.5 -34t97.5 -107l55 -63q24 -27 41 -44q35 -35 68 -51 q19 -8 51 -51q33 -42 33 -61z" />
<glyph unicode="&#xbc;" horiz-adv-x="1700" d="M1681 334q0 -20 -23 -43t-42 -23q-10 1 -34 2t-55 1q-173 0 -173 -44v-225q0 -10 7 -32q7 -24 7 -40q0 -25 -25 -44q-24 -21 -51 -21q-45 0 -58 49q-13 48 -13 125v186q-10 19 -35 19q-26 0 -63.5 -5.5t-88.5 -16.5q-101 -21 -135 -21q-29 0 -52.5 19.5t-23.5 49.5 q0 18 83 115l90 100l105 109q112 112 132 129q3 4 13 11l25 18q29 22 42 43l22 38q9 15 15 21q12 12 49 12q9 0 25 -13t16 -24q0 -41 -7.5 -88.5t-23.5 -121.5l-14 -67q-6 -30 -10 -55t-6.5 -47.5t-2.5 -46.5q12 -24 102 -24q23 1 40.5 1.5t35.5 0.5q127 0 127 -47z M401 1473q0 -9 -1 -20.5t-3 -25.5q-4 -27 -9 -51.5t-11 -58.5q-23 -134 -37 -225.5t-21 -143.5q-2 -15 -4 -34.5t-4 -43.5t-6.5 -45t-12 -37t-19 -25t-27.5 -9q-36 0 -61 43t-25 84q0 22 19 102q10 42 15 71t7 46q4 50 21 145q8 48 13 83t7 58q1 22 7.5 49.5t17.5 60.5 q22 67 57 67q36 0 56.5 -26t20.5 -64zM1227 1497q0 -10 -29 -51t-78 -102l-38 -48l-17 -22q-51 -66 -73 -112l-30 -66l-47 -105q-27 -63 -48.5 -107t-37.5 -71l-15 -23l-26 -38l-28 -42q-12 -19 -24 -34l-23 -34l-29 -44q-78 -121 -138.5 -228.5t-103.5 -203.5l-17 -41 l-27 -64q-16 -38 -32.5 -69.5t-34 -55t-34.5 -36.5t-35 -13q-28 0 -48.5 20.5t-20.5 47.5q0 15 19 57l21 46l24 52l30 62q25 54 53 106l56 103l66 109l79 126q5 5 23 34l53 83l59 93q24 38 35 61l74 142l73 140l20 43l29 60q32 69 58 116.5t57 84.5q15 18 32 34t34.5 28.5 t34.5 20t32 7.5q27 0 49.5 -18.5t22.5 -47.5zM1274 584l-10 6q-82 -72 -138.5 -131.5t-87.5 -108.5l6 -14q18 2 46 4l59 5q32 3 53 6.5t39 10.5q12 36 21 121q9 87 12 101z" />
<glyph unicode="&#xbd;" horiz-adv-x="1747" d="M1712 84q0 -51 -70 -51q-30 0 -101 13q-36 7 -68.5 10t-61.5 3q-51 0 -114.5 -6.5t-130.5 -15.5q-66 -9 -121.5 -15t-106.5 -6q-27 0 -78 -12t-76 -12q-32 0 -64 26q-30 27 -30 58q0 33 63 80q64 46 150 90q87 43 123 57q31 11 98 51q40 25 80.5 55.5t82.5 68.5 q83 75 83 130q0 15 -53 15q-70 0 -133 -17q-173 -45 -174 -45q-51 -16 -72 -16q-25 0 -43 28t-18 48q0 35 98 67q50 16 104.5 28t114.5 22q61 10 103 15t65 5q42 0 78 -28.5t59 -70.5q12 -18 12 -30q0 -93 -84 -195q-83 -103 -180 -164q-13 -8 -33 -18t-49 -23l-45 -15 q-28 -9 -53.5 -20t-44 -23.5t-16.5 -25.5q35 0 61 3t63 9l68 11q94 16 185 23.5t180 7.5q6 0 15.5 -1t20 -2t20 -2t15.5 -1q27 0 52 -40q26 -41 26 -69zM440 1425q0 -10 -5.5 -49.5t-16.5 -109.5q-3 -22 -11.5 -56t-22.5 -80t-25 -86t-19 -75q-16 -67 -16 -148 q0 -20 -23 -80q-8 -14 -55 -14q-38 0 -56 30.5t-18 69.5q-1 2 1 10.5t6 18.5l8 21q4 10 6 16q3 12 7 33.5t9 52.5q6 31 10 55t7.5 43t7 35t8.5 31q16 48 36 151q10 51 20 85.5t21 54.5q20 32 32 45.5t36 13.5q23 0 38 -21.5t15 -46.5zM1161 1339q0 -42 -26.5 -89t-71.5 -105 l-39 -56l-55 -84l-55 -85q-24 -36 -40 -58t-42 -52l-64 -73l-54 -60l-72 -80l-70 -79l-50 -57q-54 -63 -93 -119.5t-60 -108.5q-19 -42 -38.5 -79.5t-41.5 -70.5q-44 -65 -96 -65q-25 0 -42.5 17.5t-17.5 44.5q0 24 15 50q14 24 43 59l23 27q9 10 11 15q9 13 25 50 q8 19 16 34.5t15 26.5q69 121 186 252q21 24 58 82q38 60 69 86q39 34 102 102l54 58l34 41q7 8 15 19.5t15.5 24t13.5 23.5t10 17l30 47l37 59q42 66 78 115.5t64 74.5q8 9 41 20q35 11 49 11q24 0 24 -35z" />
<glyph unicode="&#xbe;" horiz-adv-x="1794" d="M1708 512q0 -37 -51 -53q-2 -1 -38 -7q-35 -6 -46 -10q-21 -5 -35 -14t-24 -26.5t-16.5 -43.5t-12.5 -65q-3 -22 -5 -49.5t-3 -61.5t-2 -58t-2 -40q-9 -104 -56 -104q-20 0 -35.5 9t-26 23.5t-16.5 33t-6 38.5q0 18 9 64l21 104l17 86q6 26 6 37q0 35 -26 35 q-39 0 -103 -13q-67 -12 -92 -24q-10 -4 -42 -34q-28 -28 -56 -28q-31 0 -51.5 23t-20.5 55q0 22 93 150l95 124q48 60 99 117q102 115 129 115q21 0 37 16q12 15 20 37q10 25 15 33q22 45 86 45q7 0 15.5 -5t16 -12.5t12.5 -16t5 -15.5q0 -20 -20 -62q-19 -39 -39 -67 q6 -20 6 -60q0 -22 -3 -50.5t-8 -64.5t-7.5 -63.5t-2.5 -46.5q0 -12 12 -12q7 1 50 17q39 16 65 16q13 0 25 -28q12 -29 12 -44zM1454 1583q0 -39 -139 -223l-77 -100l-97 -123q-57 -72 -109 -148t-95 -146l-48 -78l-60 -97l-59 -93l-43 -65q-126 -185 -180 -285 q-7 -12 -15 -33l-20 -50l-17 -46q-6 -16 -8 -20q-46 -115 -88 -115q-28 0 -49 26q-20 26 -20 52q0 42 37 116q19 38 41 77.5t48 81.5q26 44 58 90l67 98l55 80l23 32q20 28 42 62l47 77l102 174q50 89 102 167q30 44 85 109l56 68l57 69q29 35 49 61.5t32 44.5 q134 194 188 194q35 0 35 -57zM748 1444q0 -52 -56 -102q-57 -51 -121 -85q-5 -3 -22 -9t-27 -10t-10 -9t19 -9q19 -3 28 -3q37 -2 67.5 -7t54.5 -12q48 -14 48 -63q0 -60 -51 -112q-50 -53 -110 -89t-144 -78q-6 -2 -20 -12l-38 -28q-46 -34 -79 -34q-27 0 -49 24 q-23 26 -23 52q0 15 19.5 30.5t48 29.5l59.5 28l55 23q77 36 139 77q63 41 76 68q-12 12 -43 12q-33 0 -97 -6q-65 -6 -97 -6q-103 0 -103 72q0 20 45 49q23 15 51 31t62 33l54 27q20 10 28 15q69 39 92 62q-9 24 -33 24q-134 0 -284 -41q-7 -2 -24.5 -8t-45.5 -17 q-57 -20 -82 -20q-11 0 -20.5 6.5t-17 16t-11.5 21t-4 22.5q-2 16 32 37.5t96 41t149.5 32.5t193.5 12q64 0 128 -19q67 -19 67 -67zM1446 768q-171 -161 -215 -266q2 1 11.5 2.5t26.5 5.5t32 7t28 7q80 19 88 33q23 57 23 96q0 5 0.5 15.5t1.5 27.5t1.5 27t0.5 14 q0 11 0.5 18.5t1.5 12.5z" />
<glyph unicode="&#xbf;" horiz-adv-x="987" d="M776 1139q0 -12 -27 -40q-26 -27 -47 -42q-8 -6 -20 -6q-13 0 -23 6q-67 45 -67 92q0 61 23 110q22 48 79 48q55 0 68 -49q14 -50 14 -119zM969 -176q0 -36 -71 -101t-162 -123q-90 -59 -132 -69q-23 -5 -53 -10t-66 -9t-67.5 -6t-57.5 -2q-3 0 -19 3.5t-26 3.5 q-47 0 -92.5 22.5t-81 59.5t-56.5 83t-19 93q0 120 34 228q17 54 43.5 102.5t62.5 89t81.5 70t99.5 46.5q7 2 18.5 6t28.5 9q35 11 59 16.5t46 5.5l6 23q-23 74 -23 178q0 92 28 161q28 72 107 72q34 0 48 -24t14 -60q1 -15 -4 -28.5t-13 -26.5l-15 -27q-8 -14 -13 -32 q-8 -37 -8 -107q0 -6 35 -99q36 -90 36 -124q0 -32 -34 -60q-32 -28 -70 -28q-28 0 -76 39q-80 -8 -161 -62q-83 -54 -135 -136t-52 -161q0 -85 49.5 -126.5t134.5 -41.5q70 0 105 11q102 29 184 66.5t147 96.5q20 19 40 27t49 8q17 0 34 -20t17 -37z" />
<glyph unicode="&#xc0;" horiz-adv-x="1714" d="M1667 66q0 -40 -25.5 -68.5t-66.5 -28.5q-18 0 -29 8q-14 11 -31 29.5t-36 46.5q-37 57 -67.5 119.5t-49.5 110.5q-5 14 -10 25l-12 24l-11 28q-6 14 -13 35q-29 86 -42 113q-14 -14 -27 -21.5t-27.5 -11t-30 -4t-33.5 -0.5q-10 0 -25 -4l-33 -9q-17 -5 -34 -11t-32 -10 q-50 -14 -101 -25t-105 -21.5t-113 -20.5l-125 -20q-30 -5 -57 -39l-108 -150q-80 -114 -136 -167q-55 -53 -107 -53q-66 0 -110 26q-50 32 -50 68q0 19 21.5 27.5t58.5 15.5q12 1 55 49q41 46 62 76l85 117l98 141l46 69l33 49l31 45l41 56l24 34l33 45l34 46q16 20 27 36 l31 40l43 57q8 10 31 47l64 102q56 93 73 136q117 284 176 284q26 0 42 -4.5t25 -15t12 -28t3 -42.5v-30q0 -13 -1 -21q-1 -16 -2 -41t-3 -59q50 -105 95 -226l48 -134l55 -159l51 -147l36 -99l34 -87q19 -49 46 -111q10 -23 75 -111q64 -88 64 -126zM1224 657l-39 119 l-43 126q-23 64 -46.5 123t-46.5 105l-106 -146l-97 -140l-92 -145l-92 -158q11 -4 20 -4q15 0 38.5 2.5t48 6t47 7.5t36.5 7q24 6 42 10l33 8l35 8l44 11l115 31q57 15 103 29zM1254 1710q0 -26 -22 -47.5t-53 -21.5q-4 0 -20 7t-34 22l-34 27l-46 40l-48 38l-33 26l-33 23 l-61 41q-140 89 -140 139q0 9 7 19t16.5 19t20.5 15t19 6q15 0 36.5 -8.5t47.5 -27.5q32 -24 55 -43l45 -38l47 -39q25 -20 61 -45l68 -47l50 -34q51 -35 51 -71z" />
<glyph unicode="&#xc1;" horiz-adv-x="1714" d="M1667 66q0 -40 -25.5 -68.5t-66.5 -28.5q-18 0 -29 8q-14 11 -31 29.5t-36 46.5q-37 57 -67.5 119.5t-49.5 110.5q-5 14 -10 25l-12 24l-11 28q-6 14 -13 35q-29 86 -42 113q-14 -14 -27 -21.5t-27.5 -11t-30 -4t-33.5 -0.5q-10 0 -25 -4l-33 -9q-17 -5 -34 -11t-32 -10 q-50 -14 -101 -25t-105 -21.5t-113 -20.5l-125 -20q-30 -5 -57 -39l-108 -150q-80 -114 -136 -167q-55 -53 -107 -53q-66 0 -110 26q-50 32 -50 68q0 19 21.5 27.5t58.5 15.5q12 1 55 49q41 46 62 76l85 117l98 141l46 69l33 49l31 45l41 56l24 34l33 45l34 46q16 20 27 36 l31 40l43 57q8 10 31 47l64 102q56 93 73 136q117 284 176 284q26 0 42 -4.5t25 -15t12 -28t3 -42.5v-30q0 -13 -1 -21q-1 -16 -2 -41t-3 -59q50 -105 95 -226l48 -134l55 -159l51 -147l36 -99l34 -87q19 -49 46 -111q10 -23 75 -111q64 -88 64 -126zM1224 657l-39 119 l-43 126q-23 64 -46.5 123t-46.5 105l-106 -146l-97 -140l-92 -145l-92 -158q11 -4 20 -4q15 0 38.5 2.5t48 6t47 7.5t36.5 7q24 6 42 10l33 8l35 8l44 11l115 31q57 15 103 29zM1402 1943q0 -11 -17 -31q-7 -8 -35 -26l-66 -42l-76 -48q-40 -24 -67 -43l-89 -63 q-44 -31 -88 -59q0 -1 -8 -5l-17 -10l-17 -10q-8 -4 -9 -5q-13 0 -24.5 6.5t-20 16t-13.5 21.5t-5 23q0 43 127 133q126 89 224 144q34 19 53 31.5t34 23.5q14 11 29 17t29 6q4 0 13.5 -7t19 -18.5t16.5 -25.5t7 -29z" />
<glyph unicode="&#xc2;" horiz-adv-x="1714" d="M1667 66q0 -40 -25.5 -68.5t-66.5 -28.5q-18 0 -29 8q-14 11 -31 29.5t-36 46.5q-37 57 -67.5 119.5t-49.5 110.5q-5 14 -10 25l-12 24l-11 28q-6 14 -13 35q-29 86 -42 113q-14 -14 -27 -21.5t-27.5 -11t-30 -4t-33.5 -0.5q-10 0 -25 -4l-33 -9q-17 -5 -34 -11t-32 -10 q-50 -14 -101 -25t-105 -21.5t-113 -20.5l-125 -20q-30 -5 -57 -39l-108 -150q-80 -114 -136 -167q-55 -53 -107 -53q-66 0 -110 26q-50 32 -50 68q0 19 21.5 27.5t58.5 15.5q12 1 55 49q41 46 62 76l85 117l98 141l46 69l33 49l31 45l41 56l24 34l33 45l34 46q16 20 27 36 l31 40l43 57q8 10 31 47l64 102q56 93 73 136q117 284 176 284q26 0 42 -4.5t25 -15t12 -28t3 -42.5v-30q0 -13 -1 -21q-1 -16 -2 -41t-3 -59q50 -105 95 -226l48 -134l55 -159l51 -147l36 -99l34 -87q19 -49 46 -111q10 -23 75 -111q64 -88 64 -126zM1224 657l-39 119 l-43 126q-23 64 -46.5 123t-46.5 105l-106 -146l-97 -140l-92 -145l-92 -158q11 -4 20 -4q15 0 38.5 2.5t48 6t47 7.5t36.5 7q24 6 42 10l33 8l35 8l44 11l115 31q57 15 103 29zM1482 1688q0 -22 -17.5 -42t-39.5 -20q-14 0 -29 10.5t-29.5 26.5t-27.5 33.5t-23 32.5 q-20 31 -66 87q-46 58 -65 95l-11 21l-11 20.5t-11 15.5t-12 6q-10 0 -18 -8q-50 -50 -84 -87l-32 -35l-30 -33l-42 -46l-70 -75q-29 -29 -54 -29q-51 0 -51 86q0 39 15 51l98 91q40 38 76 69q70 60 118 117q57 69 97 69q20 0 50 -46q31 -47 71 -122t53 -90q5 -5 23 -25 l46 -51q60 -66 62 -71q14 -36 14 -51z" />
<glyph unicode="&#xc3;" horiz-adv-x="1714" d="M1667 66q0 -40 -25.5 -68.5t-66.5 -28.5q-18 0 -29 8q-14 11 -31 29.5t-36 46.5q-37 57 -67.5 119.5t-49.5 110.5q-5 14 -10 25l-12 24l-11 28q-6 14 -13 35q-29 86 -42 113q-14 -14 -27 -21.5t-27.5 -11t-30 -4t-33.5 -0.5q-10 0 -25 -4l-33 -9q-17 -5 -34 -11t-32 -10 q-50 -14 -101 -25t-105 -21.5t-113 -20.5l-125 -20q-30 -5 -57 -39l-108 -150q-80 -114 -136 -167q-55 -53 -107 -53q-66 0 -110 26q-50 32 -50 68q0 19 21.5 27.5t58.5 15.5q12 1 55 49q41 46 62 76l85 117l98 141l46 69l33 49l31 45l41 56l24 34l33 45l34 46q16 20 27 36 l31 40l43 57q8 10 31 47l64 102q56 93 73 136q117 284 176 284q26 0 42 -4.5t25 -15t12 -28t3 -42.5v-30q0 -13 -1 -21q-1 -16 -2 -41t-3 -59q50 -105 95 -226l48 -134l55 -159l51 -147l36 -99l34 -87q19 -49 46 -111q10 -23 75 -111q64 -88 64 -126zM1224 657l-39 119 l-43 126q-23 64 -46.5 123t-46.5 105l-106 -146l-97 -140l-92 -145l-92 -158q11 -4 20 -4q15 0 38.5 2.5t48 6t47 7.5t36.5 7q24 6 42 10l33 8l35 8l44 11l115 31q57 15 103 29zM1475 1893q0 -26 -26 -70q-13 -22 -28.5 -43t-34.5 -43q-38 -43 -61 -57t-55 -14 q-36 0 -65 6.5t-52 20.5q-11 7 -25.5 18t-33.5 27l-28 24q-10 8 -11 10q-15 14 -27.5 27t-24.5 23t-26 16t-33 6q-18 0 -33 -6t-30 -18t-31.5 -30t-36.5 -42l-35 -42q-15 -18 -28.5 -29.5t-27 -17t-28.5 -5.5q-20 0 -31.5 14t-11.5 35q0 42 48 107q50 65 112 114 q64 49 107 49q65 0 96 -14q16 -7 32.5 -20t35.5 -32t35 -33t30 -24l28 -20l29 -20q14 -10 27.5 -16.5t23.5 -6.5q26 0 48 20.5t43 50.5l22 30l22 29q23 29 37 29q23 0 35.5 -14.5t12.5 -38.5z" />
<glyph unicode="&#xc4;" horiz-adv-x="1714" d="M1667 66q0 -40 -25.5 -68.5t-66.5 -28.5q-18 0 -29 8q-14 11 -31 29.5t-36 46.5q-37 57 -67.5 119.5t-49.5 110.5q-5 14 -10 25l-12 24l-11 28q-6 14 -13 35q-29 86 -42 113q-14 -14 -27 -21.5t-27.5 -11t-30 -4t-33.5 -0.5q-10 0 -25 -4l-33 -9q-17 -5 -34 -11t-32 -10 q-50 -14 -101 -25t-105 -21.5t-113 -20.5l-125 -20q-30 -5 -57 -39l-108 -150q-80 -114 -136 -167q-55 -53 -107 -53q-66 0 -110 26q-50 32 -50 68q0 19 21.5 27.5t58.5 15.5q12 1 55 49q41 46 62 76l85 117l98 141l46 69l33 49l31 45l41 56l24 34l33 45l34 46q16 20 27 36 l31 40l43 57q8 10 31 47l64 102q56 93 73 136q117 284 176 284q26 0 42 -4.5t25 -15t12 -28t3 -42.5v-30q0 -13 -1 -21q-1 -16 -2 -41t-3 -59q50 -105 95 -226l48 -134l55 -159l51 -147l36 -99l34 -87q19 -49 46 -111q10 -23 75 -111q64 -88 64 -126zM1224 657l-39 119 l-43 126q-23 64 -46.5 123t-46.5 105l-106 -146l-97 -140l-92 -145l-92 -158q11 -4 20 -4q15 0 38.5 2.5t48 6t47 7.5t36.5 7q24 6 42 10l33 8l35 8l44 11l115 31q57 15 103 29zM1371 1763q0 -100 -99 -100q-33 0 -57 24t-24 57q0 43 22 56t82 30q17 5 23 5q26 0 39.5 -21 t13.5 -51zM998 1673q0 -41 -90 -41q-21 0 -61 14q-39 13 -39 35q0 24 2.5 44.5t9 36t19 24t32.5 8.5q58 0 92.5 -32t34.5 -89z" />
<glyph unicode="&#xc5;" horiz-adv-x="1778" d="M1673 82q0 -39 -28 -73q-27 -34 -66 -34q-93 0 -236 218l-29 48l-50 85q-29 52 -50 86.5t-34 52.5l-144 -13l-125 -11q-115 -11 -233.5 -30t-243.5 -51q-19 -23 -43 -55l-55 -74l-60 -81l-55 -74l-36 -44q-16 -19 -31.5 -31.5t-32 -19t-37.5 -6.5q-27 0 -61 36 q-35 37 -35 63q0 19 40 77l43 60l48 63l77 97l132 164l86 112l82 117l89 137l107 172q18 25 40 51l54 64q42 52 76 105t60 108l8 15q4 8 9 16q-55 27 -97 69q-48 48 -48 100q0 20 22 76q22 55 50 102q28 45 47 45q141 0 231 -34q93 -35 93 -146q0 -112 -31 -181 q-21 -47 -71 -62q1 -4 2 -7t2 -7q5 -20 10 -44t10 -51q10 -54 12 -69l27 -141q11 -57 18 -88t17 -70t24 -87q29 -97 64 -171q3 1 35 9q30 9 35 9q64 12 100 12q40 0 69 -13.5t29 -47.5q0 -38 -35 -61q-17 -11 -41.5 -20.5t-56.5 -17.5q-31 -8 -50 -13.5t-26 -8.5 q103 -215 174 -295l78 -81q41 -43 41 -56zM1124 627q-32 138 -39 159l-21 56q-9 24 -11 43q-10 62 -16.5 113.5t-8.5 93.5q-5 51 -12 88t-25 41l-59 -93l-84 -128l-90 -134l-75 -113q-34 -51 -64 -102l-58 -102q105 7 213 18q54 5 106 11t103 14t86 16.5t55 18.5zM1122 1632 q0 29 -11 38t-35 11t-38 8.5t-18 32.5q-5 12 -11 12q-23 0 -62 -43q-38 -44 -38 -65q0 -40 52 -73q53 -32 97 -32q41 0 52.5 27.5t11.5 83.5z" />
<glyph unicode="&#xc6;" horiz-adv-x="2255" d="M2065 844q0 -32 -153 -65q-48 -10 -80 -16t-57 -9.5t-45.5 -5.5t-45.5 -4t-57.5 -5t-80.5 -8q-79 -9 -138 -12t-116 8q-6 -10 -11.5 -35t-9 -53.5t-5.5 -54.5t-2 -37q0 -21 4.5 -54.5t11.5 -67.5t15 -61.5t13 -37.5q15 -29 34.5 -53t38 -41t34 -27t23.5 -10q111 0 218 18 q37 7 88 18l107 24l111 26l100 24q2 1 18 11l34 22l35 23q16 10 18 10q30 0 45.5 -24.5t15.5 -57.5q0 -24 -12 -43t-31 -32t-44 -24t-38 -18q-26 -12 -63 -23t-80 -22t-90 -21l-92 -18l-86 -16q-40 -8 -71 -12q-140 -25 -185 -25q-40 0 -72 3t-59.5 12.5t-52.5 27.5t-50 49 q-20 24 -35.5 58.5t-28.5 76t-24 88.5l-22 96q-96 -17 -166 -21t-117 -4h-49q-32 0 -66.5 0.5t-66.5 0.5h-50q-11 0 -26 -7t-35.5 -24t-46.5 -45t-59 -70l-117 -144q-57 -70 -120 -136l-35 -34q-16 -16 -34.5 -26t-41 -16t-50.5 -6q-16 0 -32.5 9t-30 22.5t-22.5 30t-9 32.5 q0 10 7.5 25t19 28.5t25 23t24.5 9.5q29 0 72 35q28 25 66 65l78 85l82 95l78 96l67 84l48 60l124 158l109 152q52 75 98 149.5t88 151.5q21 38 39 74l33 65q16 29 29 48.5t23 25.5q18 10 37 19t35.5 16t29.5 11.5t19 4.5t26 -3q21 -2 47 -6l56 -8l56 -9q26 -4 46.5 -6.5 t27.5 -2.5q40 0 72 -2l65 -2q33 -2 70.5 -2.5t85.5 2.5q29 1 61.5 6.5t66 13t65.5 15.5l60 15q58 14 83 14q14 0 34.5 -6t39 -16.5t32 -25.5t13.5 -32q0 -4 -12 -18l-26 -32l-28 -30q-13 -14 -16 -14q-11 -4 -27.5 -5.5t-39.5 -2.5q-27 -1 -58 -4.5t-63 -8.5l-64 -10l-58 -9 q-38 -5 -62 -9l-40 -7q-18 -3 -33 -4.5t-36 -2.5t-51.5 -1.5t-78.5 -0.5q-7 0 -34 2t-57.5 4t-57.5 4t-34 2q-14 -28 -14 -109q0 -11 1 -35t3 -55l4 -65q2 -34 3.5 -65t2 -56t0.5 -36q17 -14 197 -14q76 0 147 16q70 16 132 36l116 36q54 16 95 17q55 0 76.5 -26.5 t21.5 -86.5zM1104 638q-1 37 3.5 79.5t3.5 85.5q0 43 -1.5 98.5t-3.5 111.5t-6 105.5t-10 81.5q-10 -15 -24 -33l-26 -37l-28 -38q-14 -19 -23 -36l-41 -66l-36 -54l-37 -52l-43 -60l-54 -70l-61 -76q-29 -38 -49 -68t-20 -42q0 -5 13.5 -6.5t33.5 -0.5t44 2t45 3l36 4 q14 2 16 1q50 0 150 20q98 21 118 47z" />
<glyph unicode="&#xc7;" horiz-adv-x="1510" d="M681 -416q0 -67 -78 -116q-27 -18 -51 -30.5t-48.5 -20.5t-51.5 -11.5t-60 -3.5q-1 0 -69 20l-51 15q-18 5 -19 6q-51 21 -51 65q0 12 4.5 24t12 21.5t17.5 16t21 6.5q18 0 49 -20q30 -20 45 -27q16 -8 53 -8q64 0 113 29q49 28 49 90q0 36 -22 62t-58 26q-15 0 -45 -12 q-29 -13 -47 -13q-53 0 -53 49l38 99l29 74q-136 26 -204.5 118t-68.5 258q-1 90 15.5 189t48 195.5t77 186t103.5 160.5q35 43 81.5 89.5t97.5 90t103.5 82t100.5 66.5q31 18 81 42t104.5 45t108 35.5t91.5 14.5q61 0 97.5 -8.5t64.5 -28.5q13 -10 30.5 -30.5t33 -45 t26 -49t10.5 -41.5t-16 -51t-37 -70.5t-42 -68t-32 -43.5q-41 -45 -88 -45q-40 0 -62.5 24.5t-22.5 61.5q0 13 15 40.5t50 62.5t54.5 64.5t24.5 39.5q-20 14 -49 22t-54 8q-36 0 -90.5 -16.5t-112 -42.5t-111.5 -57.5t-90 -60.5q-103 -85 -190 -183t-144 -217 q-23 -49 -43 -108t-34 -121t-22 -122t-8 -110q0 -122 60.5 -175.5t181.5 -53.5q46 0 107.5 13t130 35.5t139 54t133.5 69.5q155 92 302 197t270 208q46 38 87 76t78 76q45 -23 45 -66q0 -62 -85 -153q-83 -90 -203 -183t-230.5 -165.5t-200.5 -124.5q-342 -195 -592 -195h-9 q-5 -13 -9 -31.5t-7 -44.5q24 -21 79 -37q31 -6 50 -22q49 -40 49 -195z" />
<glyph unicode="&#xc8;" horiz-adv-x="1536" d="M1571 1422q0 -9 -4.5 -22t-11 -26.5t-15 -25t-17.5 -15.5q-28 -13 -50.5 -19.5t-53.5 -12.5q-95 -18 -185.5 -30.5t-171 -20t-147.5 -10.5t-114 -3h-45q-20 0 -38 -1h-35q-17 -1 -36 -1q-45 0 -77.5 1t-55.5 3q-15 -35 -21 -86t-9 -105.5t-4.5 -106.5t-6.5 -91 q20 -14 34.5 -21.5t29 -11t30.5 -4t39 -0.5h56q30 0 60.5 1.5t59.5 4t52 8.5q39 10 69 11t58.5 1t57.5 3.5t65 17.5q26 10 47 19t40 15t36.5 9.5t37.5 3.5q16 0 27 -11.5t17 -29t8.5 -39t2.5 -41.5q0 -22 -16 -37t-37.5 -25t-43.5 -16t-35 -9q-23 -5 -60.5 -8t-78.5 -5.5 t-79.5 -4t-63.5 -4.5q-69 -8 -144 -11.5t-152 -3.5q-39 0 -66.5 -5t-61.5 -15q-7 -2 -15 -26.5t-17 -61.5t-18 -81l-19 -84q-14 -61 -20.5 -111t-8.5 -71q6 -6 15 -13t20 -7q26 0 62.5 0.5t75.5 1.5t76 2.5t64 3.5l138 13q72 6 140 14t128.5 17.5t104.5 21.5q-1 0 14 4 l37 11l50 14l50 13q23 6 38.5 10.5t14.5 4.5q15 0 29 -8t25 -21.5t17.5 -31.5t6.5 -39q0 -8 -8 -22.5t-22 -29.5t-32.5 -28t-40.5 -17l-95 -17q-44 -7 -90.5 -13t-98.5 -11.5t-116 -11.5l-155 -16q-77 -9 -144 -18l-120 -16q-53 -8 -78 -13q-23 -5 -51 -13l-55 -14 l-52 -12.5t-39 -5.5q-27 0 -48 7.5t-35 26.5t-21 51t-7 81q0 43 12 96l29 128q11 62 25 123.5t26.5 123t21 123t9.5 124.5q1 45 7 91l10 93q6 47 10.5 94t4.5 92q0 8 -2 22t-2 21q0 43 31 95q8 13 26.5 27t41 25.5t44.5 18.5t38 7q10 0 34.5 -4t51.5 -9.5t51.5 -9.5t34.5 -4 q17 0 45.5 -0.5t62 -1t70.5 -0.5t70 2q76 4 144.5 9t143.5 18q45 7 83 19l73 23q35 10 69.5 18t70.5 8q13 0 26 -6.5t23.5 -17t17 -24.5t6.5 -28zM1142 1735q0 -26 -22 -47.5t-53 -21.5q-4 0 -20 7t-34 22l-34 27l-46 40l-48 38l-33 26l-33 23l-61 41q-140 89 -140 139 q0 9 7 19t16.5 19t20.5 15t19 6q15 0 36.5 -8.5t47.5 -27.5q32 -24 55 -43l45 -38l47 -39q25 -20 61 -45l68 -47l50 -34q51 -35 51 -71z" />
<glyph unicode="&#xc9;" horiz-adv-x="1536" d="M1571 1422q0 -9 -4.5 -22t-11 -26.5t-15 -25t-17.5 -15.5q-28 -13 -50.5 -19.5t-53.5 -12.5q-95 -18 -185.5 -30.5t-171 -20t-147.5 -10.5t-114 -3h-45q-20 0 -38 -1h-35q-17 -1 -36 -1q-45 0 -77.5 1t-55.5 3q-15 -35 -21 -86t-9 -105.5t-4.5 -106.5t-6.5 -91 q20 -14 34.5 -21.5t29 -11t30.5 -4t39 -0.5h56q30 0 60.5 1.5t59.5 4t52 8.5q39 10 69 11t58.5 1t57.5 3.5t65 17.5q26 10 47 19t40 15t36.5 9.5t37.5 3.5q16 0 27 -11.5t17 -29t8.5 -39t2.5 -41.5q0 -22 -16 -37t-37.5 -25t-43.5 -16t-35 -9q-23 -5 -60.5 -8t-78.5 -5.5 t-79.5 -4t-63.5 -4.5q-69 -8 -144 -11.5t-152 -3.5q-39 0 -66.5 -5t-61.5 -15q-7 -2 -15 -26.5t-17 -61.5t-18 -81l-19 -84q-14 -61 -20.5 -111t-8.5 -71q6 -6 15 -13t20 -7q26 0 62.5 0.5t75.5 1.5t76 2.5t64 3.5l138 13q72 6 140 14t128.5 17.5t104.5 21.5q-1 0 14 4 l37 11l50 14l50 13q23 6 38.5 10.5t14.5 4.5q15 0 29 -8t25 -21.5t17.5 -31.5t6.5 -39q0 -8 -8 -22.5t-22 -29.5t-32.5 -28t-40.5 -17l-95 -17q-44 -7 -90.5 -13t-98.5 -11.5t-116 -11.5l-155 -16q-77 -9 -144 -18l-120 -16q-53 -8 -78 -13q-23 -5 -51 -13l-55 -14 l-52 -12.5t-39 -5.5q-27 0 -48 7.5t-35 26.5t-21 51t-7 81q0 43 12 96l29 128q11 62 25 123.5t26.5 123t21 123t9.5 124.5q1 45 7 91l10 93q6 47 10.5 94t4.5 92q0 8 -2 22t-2 21q0 43 31 95q8 13 26.5 27t41 25.5t44.5 18.5t38 7q10 0 34.5 -4t51.5 -9.5t51.5 -9.5t34.5 -4 q17 0 45.5 -0.5t62 -1t70.5 -0.5t70 2q76 4 144.5 9t143.5 18q45 7 83 19l73 23q35 10 69.5 18t70.5 8q13 0 26 -6.5t23.5 -17t17 -24.5t6.5 -28zM1269 1931q0 -11 -17 -31q-7 -8 -35 -26l-66 -42l-76 -48q-40 -24 -67 -43l-89 -63q-44 -31 -88 -59q0 -1 -8 -5l-17 -10 l-17 -10q-8 -4 -9 -5q-13 0 -24.5 6.5t-20 16t-13.5 21.5t-5 23q0 43 127 133q126 89 224 144q34 19 53 31.5t34 23.5q14 11 29 17t29 6q4 0 13.5 -7t19 -18.5t16.5 -25.5t7 -29z" />
<glyph unicode="&#xca;" horiz-adv-x="1536" d="M1571 1422q0 -9 -4.5 -22t-11 -26.5t-15 -25t-17.5 -15.5q-28 -13 -50.5 -19.5t-53.5 -12.5q-95 -18 -185.5 -30.5t-171 -20t-147.5 -10.5t-114 -3h-45q-20 0 -38 -1h-35q-17 -1 -36 -1q-45 0 -77.5 1t-55.5 3q-15 -35 -21 -86t-9 -105.5t-4.5 -106.5t-6.5 -91 q20 -14 34.5 -21.5t29 -11t30.5 -4t39 -0.5h56q30 0 60.5 1.5t59.5 4t52 8.5q39 10 69 11t58.5 1t57.5 3.5t65 17.5q26 10 47 19t40 15t36.5 9.5t37.5 3.5q16 0 27 -11.5t17 -29t8.5 -39t2.5 -41.5q0 -22 -16 -37t-37.5 -25t-43.5 -16t-35 -9q-23 -5 -60.5 -8t-78.5 -5.5 t-79.5 -4t-63.5 -4.5q-69 -8 -144 -11.5t-152 -3.5q-39 0 -66.5 -5t-61.5 -15q-7 -2 -15 -26.5t-17 -61.5t-18 -81l-19 -84q-14 -61 -20.5 -111t-8.5 -71q6 -6 15 -13t20 -7q26 0 62.5 0.5t75.5 1.5t76 2.5t64 3.5l138 13q72 6 140 14t128.5 17.5t104.5 21.5q-1 0 14 4 l37 11l50 14l50 13q23 6 38.5 10.5t14.5 4.5q15 0 29 -8t25 -21.5t17.5 -31.5t6.5 -39q0 -8 -8 -22.5t-22 -29.5t-32.5 -28t-40.5 -17l-95 -17q-44 -7 -90.5 -13t-98.5 -11.5t-116 -11.5l-155 -16q-77 -9 -144 -18l-120 -16q-53 -8 -78 -13q-23 -5 -51 -13l-55 -14 l-52 -12.5t-39 -5.5q-27 0 -48 7.5t-35 26.5t-21 51t-7 81q0 43 12 96l29 128q11 62 25 123.5t26.5 123t21 123t9.5 124.5q1 45 7 91l10 93q6 47 10.5 94t4.5 92q0 8 -2 22t-2 21q0 43 31 95q8 13 26.5 27t41 25.5t44.5 18.5t38 7q10 0 34.5 -4t51.5 -9.5t51.5 -9.5t34.5 -4 q17 0 45.5 -0.5t62 -1t70.5 -0.5t70 2q76 4 144.5 9t143.5 18q45 7 83 19l73 23q35 10 69.5 18t70.5 8q13 0 26 -6.5t23.5 -17t17 -24.5t6.5 -28zM1379 1709q0 -22 -17.5 -42t-39.5 -20q-14 0 -29 10.5t-29.5 26.5t-27.5 33.5t-23 32.5q-20 31 -66 87q-46 58 -65 95l-11 21 l-11 20.5t-11 15.5t-12 6q-10 0 -18 -8q-50 -50 -84 -87l-32 -35l-30 -33l-42 -46l-70 -75q-29 -29 -54 -29q-51 0 -51 86q0 39 15 51l98 91q40 38 76 69q70 60 118 117q57 69 97 69q20 0 50 -46q31 -47 71 -122t53 -90q5 -5 23 -25l46 -51q60 -66 62 -71q14 -36 14 -51z " />
<glyph unicode="&#xcb;" horiz-adv-x="1536" d="M1571 1422q0 -9 -4.5 -22t-11 -26.5t-15 -25t-17.5 -15.5q-28 -13 -50.5 -19.5t-53.5 -12.5q-95 -18 -185.5 -30.5t-171 -20t-147.5 -10.5t-114 -3h-45q-20 0 -38 -1h-35q-17 -1 -36 -1q-45 0 -77.5 1t-55.5 3q-15 -35 -21 -86t-9 -105.5t-4.5 -106.5t-6.5 -91 q20 -14 34.5 -21.5t29 -11t30.5 -4t39 -0.5h56q30 0 60.5 1.5t59.5 4t52 8.5q39 10 69 11t58.5 1t57.5 3.5t65 17.5q26 10 47 19t40 15t36.5 9.5t37.5 3.5q16 0 27 -11.5t17 -29t8.5 -39t2.5 -41.5q0 -22 -16 -37t-37.5 -25t-43.5 -16t-35 -9q-23 -5 -60.5 -8t-78.5 -5.5 t-79.5 -4t-63.5 -4.5q-69 -8 -144 -11.5t-152 -3.5q-39 0 -66.5 -5t-61.5 -15q-7 -2 -15 -26.5t-17 -61.5t-18 -81l-19 -84q-14 -61 -20.5 -111t-8.5 -71q6 -6 15 -13t20 -7q26 0 62.5 0.5t75.5 1.5t76 2.5t64 3.5l138 13q72 6 140 14t128.5 17.5t104.5 21.5q-1 0 14 4 l37 11l50 14l50 13q23 6 38.5 10.5t14.5 4.5q15 0 29 -8t25 -21.5t17.5 -31.5t6.5 -39q0 -8 -8 -22.5t-22 -29.5t-32.5 -28t-40.5 -17l-95 -17q-44 -7 -90.5 -13t-98.5 -11.5t-116 -11.5l-155 -16q-77 -9 -144 -18l-120 -16q-53 -8 -78 -13q-23 -5 -51 -13l-55 -14 l-52 -12.5t-39 -5.5q-27 0 -48 7.5t-35 26.5t-21 51t-7 81q0 43 12 96l29 128q11 62 25 123.5t26.5 123t21 123t9.5 124.5q1 45 7 91l10 93q6 47 10.5 94t4.5 92q0 8 -2 22t-2 21q0 43 31 95q8 13 26.5 27t41 25.5t44.5 18.5t38 7q10 0 34.5 -4t51.5 -9.5t51.5 -9.5t34.5 -4 q17 0 45.5 -0.5t62 -1t70.5 -0.5t70 2q76 4 144.5 9t143.5 18q45 7 83 19l73 23q35 10 69.5 18t70.5 8q13 0 26 -6.5t23.5 -17t17 -24.5t6.5 -28zM1245 1846q0 -100 -99 -100q-33 0 -57 24t-24 57q0 43 22 56t82 30q17 5 23 5q26 0 39.5 -21t13.5 -51zM872 1756 q0 -41 -90 -41q-21 0 -61 14q-39 13 -39 35q0 24 2.5 44.5t9 36t19 24t32.5 8.5q58 0 92.5 -32t34.5 -89z" />
<glyph unicode="&#xcc;" d="M543 1291q0 -27 -39 -125q-20 -50 -31 -82.5t-13 -47.5q-20 -119 -38.5 -256t-35.5 -296q-6 -43 -10 -74.5t-7 -51.5q-2 -20 -5 -43.5t-5 -51.5t-2.5 -51t0.5 -43q0 -12 13 -36q12 -22 13 -38v-3q0 -34 -49 -67q-25 -17 -46.5 -25.5t-40.5 -10.5q-29 0 -46 14 q-19 20 -32 50t-14 51q-2 42 -2 84q0 21 1 42q1 63 9 128q8 64 19.5 145t28.5 180l25 129l22 114l25 124l31 153q5 30 9 51t7 33q2 14 6 37l12 58q1 12 7.5 27.5t16 29.5t21 24.5t22.5 10.5h4q18 0 41 -10q24 -10 39 -27q20 -20 30 -42.5t12 -47.5q1 -16 1 -28 q0 -4 0.5 -13.5t0.5 -14.5zM754 1717q0 -26 -22 -47.5t-53 -21.5q-4 0 -20 7t-34 22l-34 27l-46 40l-48 38l-33 26l-33 23l-61 41q-140 89 -140 139q0 9 7 19t16.5 19t20.5 15t19 6q15 0 36.5 -8.5t47.5 -27.5q32 -24 55 -43l45 -38l47 -39q25 -20 61 -45l68 -47l50 -34 q51 -35 51 -71z" />
<glyph unicode="&#xcd;" d="M543 1291q0 -27 -39 -125q-20 -50 -31 -82.5t-13 -47.5q-20 -119 -38.5 -256t-35.5 -296q-6 -43 -10 -74.5t-7 -51.5q-2 -20 -5 -43.5t-5 -51.5t-2.5 -51t0.5 -43q0 -12 13 -36q12 -22 13 -38v-3q0 -34 -49 -67q-25 -17 -46.5 -25.5t-40.5 -10.5q-29 0 -46 14 q-19 20 -32 50t-14 51q-2 42 -2 84q0 21 1 42q1 63 9 128q8 64 19.5 145t28.5 180l25 129l22 114l25 124l31 153q5 30 9 51t7 33q2 14 6 37l12 58q1 12 7.5 27.5t16 29.5t21 24.5t22.5 10.5h4q18 0 41 -10q24 -10 39 -27q20 -20 30 -42.5t12 -47.5q1 -16 1 -28 q0 -4 0.5 -13.5t0.5 -14.5zM875 2004q0 -11 -17 -31q-7 -8 -35 -26l-66 -42l-76 -48q-40 -24 -67 -43l-89 -63q-44 -31 -88 -59q0 -1 -8 -5l-17 -10l-17 -10q-8 -4 -9 -5q-13 0 -24.5 6.5t-20 16t-13.5 21.5t-5 23q0 43 127 133q126 89 224 144q34 19 53 31.5t34 23.5 q14 11 29 17t29 6q4 0 13.5 -7t19 -18.5t16.5 -25.5t7 -29z" />
<glyph unicode="&#xce;" d="M543 1291q0 -27 -39 -125q-20 -50 -31 -82.5t-13 -47.5q-20 -119 -38.5 -256t-35.5 -296q-6 -43 -10 -74.5t-7 -51.5q-2 -20 -5 -43.5t-5 -51.5t-2.5 -51t0.5 -43q0 -12 13 -36q12 -22 13 -38v-3q0 -34 -49 -67q-25 -17 -46.5 -25.5t-40.5 -10.5q-29 0 -46 14 q-19 20 -32 50t-14 51q-2 42 -2 84q0 21 1 42q1 63 9 128q8 64 19.5 145t28.5 180l25 129l22 114l25 124l31 153q5 30 9 51t7 33q2 14 6 37l12 58q1 12 7.5 27.5t16 29.5t21 24.5t22.5 10.5h4q18 0 41 -10q24 -10 39 -27q20 -20 30 -42.5t12 -47.5q1 -16 1 -28 q0 -4 0.5 -13.5t0.5 -14.5zM840 1582q0 -22 -17.5 -42t-39.5 -20q-14 0 -29 10.5t-29.5 26.5t-27.5 33.5t-23 32.5q-20 31 -66 87q-46 58 -65 95l-11 21l-11 20.5t-11 15.5t-12 6q-10 0 -18 -8q-50 -50 -84 -87l-32 -35l-30 -33l-42 -46l-70 -75q-29 -29 -54 -29 q-51 0 -51 86q0 39 15 51l98 91q40 38 76 69q70 60 118 117q57 69 97 69q20 0 50 -46q31 -47 71 -122t53 -90q5 -5 23 -25l46 -51q60 -66 62 -71q14 -36 14 -51z" />
<glyph unicode="&#xcf;" d="M543 1291q0 -27 -39 -125q-20 -50 -31 -82.5t-13 -47.5q-20 -119 -38.5 -256t-35.5 -296q-6 -43 -10 -74.5t-7 -51.5q-2 -20 -5 -43.5t-5 -51.5t-2.5 -51t0.5 -43q0 -12 13 -36q12 -22 13 -38v-3q0 -34 -49 -67q-25 -17 -46.5 -25.5t-40.5 -10.5q-29 0 -46 14 q-19 20 -32 50t-14 51q-2 42 -2 84q0 21 1 42q1 63 9 128q8 64 19.5 145t28.5 180l25 129l22 114l25 124l31 153q5 30 9 51t7 33q2 14 6 37l12 58q1 12 7.5 27.5t16 29.5t21 24.5t22.5 10.5h4q18 0 41 -10q24 -10 39 -27q20 -20 30 -42.5t12 -47.5q1 -16 1 -28 q0 -4 0.5 -13.5t0.5 -14.5zM749 1830q0 -100 -99 -100q-33 0 -57 24t-24 57q0 43 22 56t82 30q17 5 23 5q26 0 39.5 -21t13.5 -51zM376 1740q0 -41 -90 -41q-21 0 -61 14q-39 13 -39 35q0 24 2.5 44.5t9 36t19 24t32.5 8.5q58 0 92.5 -32t34.5 -89z" />
<glyph unicode="&#xd0;" horiz-adv-x="1845" d="M1767 762q0 -25 -16 -82q-8 -29 -17 -56.5t-20 -55.5q-22 -53 -39 -79q-42 -57 -115 -110q-37 -26 -75 -49t-78 -43l-41 -21q-22 -11 -44 -24l-40 -22q-17 -9 -28 -14l-26 -13l-39 -19q-45 -22 -91 -41q-18 -5 -50 -19l-81 -36q-49 -21 -77 -34.5t-36 -18.5l-22 -17 l-27 -22q-29 -26 -53 -40t-52 -14q-13 0 -39 53q-24 52 -24 70q0 59 170 119l25 10l24 10q12 4 32 14l47 23q54 25 69 33q113 48 219 103t207 118q25 16 53 47.5t59 80.5q62 98 62 137q0 90 -51 156q-50 67 -120 107q-35 21 -79.5 43.5t-99.5 47.5l-94 43q-38 18 -60 31 q-7 3 -132 14l-92 8q-31 2 -32 2q-45 9 -84.5 16t-75.5 12t-69.5 8t-67.5 3q-17 -47 -19 -114l-6 -146q-1 -19 -3 -42.5t-7 -51.5q-4 -28 -6 -49.5t-2 -36.5q0 -25 12 -25q14 0 32.5 0.5t41.5 1.5q48 2 89 3.5t81 2.5q19 0 50 4.5t56 4.5q27 0 59 -23q31 -22 31 -53 q0 -16 -6.5 -36.5t-17.5 -29.5q-14 -10 -81 -20q-34 -5 -58.5 -7.5t-38.5 -2.5q-6 0 -16 2l-22 4l-22 4q-10 2 -16 2q-88 0 -170 -12q-28 -8 -35 -23q-4 -9 -4 -51q0 -52 6 -123t19 -162q1 -9 3 -23.5t4 -34.5l3 -34q2 -14 2 -25q0 -63 -25.5 -88.5t-85.5 -25.5 q-29 0 -61 53q-11 18 -21 165q-5 75 -7.5 127.5t-2.5 84.5q0 8 0.5 20t1.5 28t1.5 28t0.5 20q0 34 -14 42.5t-49 8.5q-8 0 -32 -1l-46 -2q-21 0 -39 3q-28 4 -91 26q-63 21 -67 30q-14 23 -14 53q0 23 19 41t42 18q7 0 16 -0.5t22 -1.5t22 -1.5t14 -0.5q14 0 34 0.5t47 1.5 t47 1.5t34 0.5q23 0 52 12q30 14 34 33l23 105q9 42 12 65q7 60 10.5 98.5t3.5 57.5q0 22 -3 54t-3 54q0 50 24 115q24 66 62 66q15 0 31 -6.5t30 -8.5l77 -13q36 -6 85 -15q18 -4 33.5 -7t29.5 -6q27 -6 66 -13t84 -13q54 -6 119 -16t130.5 -23.5t127 -31t109.5 -38.5 q72 -28 141 -76.5t122 -112t84.5 -138.5t30.5 -156z" />
<glyph unicode="&#xd1;" horiz-adv-x="1715" d="M218 296q12 47 28.5 118.5t33.5 155.5l36 176q18 91 33 177t26 161t15 128q1 21 -0.5 44.5t1.5 46t14 43t39 34.5q30 15 56 15h6q28 -2 61 -20q7 -4 14 -22t13.5 -42t12 -50.5t10.5 -45.5q12 -46 42.5 -115t75.5 -151.5t101.5 -175t119.5 -185.5l128 -180 q65 -88 129 -163q27 104 47 198t36 185l32 180l30 185l17 109q9 61 17 122.5t13.5 119t6.5 99.5v34q0 17 1.5 32.5t7 30t17.5 25.5q32 29 58 35t55 6q14 0 26 -16t21 -38t14 -46q7 -28 7 -42q0 -13 -4 -36q-5 -29 -13 -62l-15 -65q-8 -32 -13 -50q-23 -91 -46.5 -200.5 l-45.5 -221.5l-40 -219q-19 -107 -33 -193t-21 -143q-7 -49 -7 -64q0 -6 0.5 -18.5t0.5 -18.5q1 -19 1 -37v-36q0 -16 1 -25q2 -24 -4.5 -41.5t-17 -29.5t-23.5 -19.5t-24 -11.5q-13 -4 -30 -7t-33.5 -3t-31 2.5t-21.5 10.5q-38 36 -63.5 69.5t-33.5 65.5q-2 10 -10 24.5 t-18 28.5l-18 28q-9 12 -15 19l-128 170q-63 86 -126.5 183t-128.5 208t-135 243q-28 -100 -50 -213t-40 -222t-32 -206l-24 -167q-3 -20 -3 -49v-60q0 -30 -2 -56.5t-8 -41.5q-5 -11 -15.5 -26t-24 -29t-29 -23.5t-30.5 -9.5q-29 0 -45.5 9t-25.5 26.5t-13 43.5t-7 60v7 q0 12 2 34q4 29 10.5 63.5t14.5 71.5t17 69zM1413 1906q0 -26 -26 -70q-13 -22 -28.5 -43t-34.5 -43q-38 -43 -61 -57t-55 -14q-36 0 -65 6.5t-52 20.5q-11 7 -25.5 18t-33.5 27l-28 24q-10 8 -11 10q-15 14 -27.5 27t-24.5 23t-26 16t-33 6q-18 0 -33 -6t-30 -18t-31.5 -30 t-36.5 -42l-35 -42q-15 -18 -28.5 -29.5t-27 -17t-28.5 -5.5q-20 0 -31.5 14t-11.5 35q0 42 48 107q50 65 112 114q64 49 107 49q65 0 96 -14q16 -7 32.5 -20t35.5 -32t35 -33t30 -24l28 -20l29 -20q14 -10 27.5 -16.5t23.5 -6.5q26 0 48 20.5t43 50.5l22 30l22 29 q23 29 37 29q23 0 35.5 -14.5t12.5 -38.5z" />
<glyph unicode="&#xd2;" horiz-adv-x="1646" d="M968 1318q-74 0 -138.5 -28t-121.5 -74t-107.5 -104t-96.5 -118q-41 -53 -78.5 -119.5t-66.5 -140t-46.5 -152t-17.5 -156.5q0 -74 25 -134.5t65.5 -103.5t93 -67t108.5 -24q83 0 161.5 22.5t150.5 62t136 92t118.5 113.5t97 127t72.5 131q14 31 25.5 72t19 86t12 91 t5.5 87v23q0 27 -1 50q-3 32 -9 50q-11 31 -42 68.5t-82 69.5t-121.5 54t-161.5 22zM1582 927q0 -65 -19.5 -143.5t-56.5 -161t-91 -164.5t-122 -153q-109 -114 -200.5 -187t-181 -115t-183.5 -58.5t-207 -16.5q-57 0 -109.5 21.5t-98 58t-82.5 85.5t-63.5 103t-41 111 t-14.5 110q0 96 28 210t80.5 229t127.5 222.5t168 190t202.5 132.5t231.5 50q22 0 54 -0.5t70 -3.5t80 -8.5t82.5 -16t78 -26t66.5 -37.5q70 -53 110 -101.5t60.5 -99.5t25.5 -107.5t5 -123.5zM1292 1710q0 -26 -22 -47.5t-53 -21.5q-4 0 -20 7t-34 22l-34 27l-46 40l-48 38 l-33 26l-33 23l-61 41q-140 89 -140 139q0 9 7 19t16.5 19t20.5 15t19 6q15 0 36.5 -8.5t47.5 -27.5q32 -24 55 -43l45 -38l47 -39q25 -20 61 -45l68 -47l50 -34q51 -35 51 -71z" />
<glyph unicode="&#xd3;" horiz-adv-x="1646" d="M968 1318q-74 0 -138.5 -28t-121.5 -74t-107.5 -104t-96.5 -118q-41 -53 -78.5 -119.5t-66.5 -140t-46.5 -152t-17.5 -156.5q0 -74 25 -134.5t65.5 -103.5t93 -67t108.5 -24q83 0 161.5 22.5t150.5 62t136 92t118.5 113.5t97 127t72.5 131q14 31 25.5 72t19 86t12 91 t5.5 87v23q0 27 -1 50q-3 32 -9 50q-11 31 -42 68.5t-82 69.5t-121.5 54t-161.5 22zM1582 927q0 -65 -19.5 -143.5t-56.5 -161t-91 -164.5t-122 -153q-109 -114 -200.5 -187t-181 -115t-183.5 -58.5t-207 -16.5q-57 0 -109.5 21.5t-98 58t-82.5 85.5t-63.5 103t-41 111 t-14.5 110q0 96 28 210t80.5 229t127.5 222.5t168 190t202.5 132.5t231.5 50q22 0 54 -0.5t70 -3.5t80 -8.5t82.5 -16t78 -26t66.5 -37.5q70 -53 110 -101.5t60.5 -99.5t25.5 -107.5t5 -123.5zM1386 1910q0 -11 -17 -31q-7 -8 -35 -26l-66 -42l-76 -48q-40 -24 -67 -43 l-89 -63q-44 -31 -88 -59q0 -1 -8 -5l-17 -10l-17 -10q-8 -4 -9 -5q-13 0 -24.5 6.5t-20 16t-13.5 21.5t-5 23q0 43 127 133q126 89 224 144q34 19 53 31.5t34 23.5q14 11 29 17t29 6q4 0 13.5 -7t19 -18.5t16.5 -25.5t7 -29z" />
<glyph unicode="&#xd4;" horiz-adv-x="1646" d="M968 1318q-74 0 -138.5 -28t-121.5 -74t-107.5 -104t-96.5 -118q-41 -53 -78.5 -119.5t-66.5 -140t-46.5 -152t-17.5 -156.5q0 -74 25 -134.5t65.5 -103.5t93 -67t108.5 -24q83 0 161.5 22.5t150.5 62t136 92t118.5 113.5t97 127t72.5 131q14 31 25.5 72t19 86t12 91 t5.5 87v23q0 27 -1 50q-3 32 -9 50q-11 31 -42 68.5t-82 69.5t-121.5 54t-161.5 22zM1582 927q0 -65 -19.5 -143.5t-56.5 -161t-91 -164.5t-122 -153q-109 -114 -200.5 -187t-181 -115t-183.5 -58.5t-207 -16.5q-57 0 -109.5 21.5t-98 58t-82.5 85.5t-63.5 103t-41 111 t-14.5 110q0 96 28 210t80.5 229t127.5 222.5t168 190t202.5 132.5t231.5 50q22 0 54 -0.5t70 -3.5t80 -8.5t82.5 -16t78 -26t66.5 -37.5q70 -53 110 -101.5t60.5 -99.5t25.5 -107.5t5 -123.5zM1391 1660q0 -22 -17.5 -42t-39.5 -20q-14 0 -29 10.5t-29.5 26.5t-27.5 33.5 t-23 32.5q-20 31 -66 87q-46 58 -65 95l-11 21l-11 20.5t-11 15.5t-12 6q-10 0 -18 -8q-50 -50 -84 -87l-32 -35l-30 -33l-42 -46l-70 -75q-29 -29 -54 -29q-51 0 -51 86q0 39 15 51l98 91q40 38 76 69q70 60 118 117q57 69 97 69q20 0 50 -46q31 -47 71 -122t53 -90 q5 -5 23 -25l46 -51q60 -66 62 -71q14 -36 14 -51z" />
<glyph unicode="&#xd5;" horiz-adv-x="1646" d="M968 1318q-74 0 -138.5 -28t-121.5 -74t-107.5 -104t-96.5 -118q-41 -53 -78.5 -119.5t-66.5 -140t-46.5 -152t-17.5 -156.5q0 -74 25 -134.5t65.5 -103.5t93 -67t108.5 -24q83 0 161.5 22.5t150.5 62t136 92t118.5 113.5t97 127t72.5 131q14 31 25.5 72t19 86t12 91 t5.5 87v23q0 27 -1 50q-3 32 -9 50q-11 31 -42 68.5t-82 69.5t-121.5 54t-161.5 22zM1582 927q0 -65 -19.5 -143.5t-56.5 -161t-91 -164.5t-122 -153q-109 -114 -200.5 -187t-181 -115t-183.5 -58.5t-207 -16.5q-57 0 -109.5 21.5t-98 58t-82.5 85.5t-63.5 103t-41 111 t-14.5 110q0 96 28 210t80.5 229t127.5 222.5t168 190t202.5 132.5t231.5 50q22 0 54 -0.5t70 -3.5t80 -8.5t82.5 -16t78 -26t66.5 -37.5q70 -53 110 -101.5t60.5 -99.5t25.5 -107.5t5 -123.5zM1489 1895q0 -26 -26 -70q-13 -22 -28.5 -43t-34.5 -43q-38 -43 -61 -57 t-55 -14q-36 0 -65 6.5t-52 20.5q-11 7 -25.5 18t-33.5 27l-28 24q-10 8 -11 10q-15 14 -27.5 27t-24.5 23t-26 16t-33 6q-18 0 -33 -6t-30 -18t-31.5 -30t-36.5 -42l-35 -42q-15 -18 -28.5 -29.5t-27 -17t-28.5 -5.5q-20 0 -31.5 14t-11.5 35q0 42 48 107q50 65 112 114 q64 49 107 49q65 0 96 -14q16 -7 32.5 -20t35.5 -32t35 -33t30 -24l28 -20l29 -20q14 -10 27.5 -16.5t23.5 -6.5q26 0 48 20.5t43 50.5l22 30l22 29q23 29 37 29q23 0 35.5 -14.5t12.5 -38.5z" />
<glyph unicode="&#xd6;" horiz-adv-x="1646" d="M968 1318q-74 0 -138.5 -28t-121.5 -74t-107.5 -104t-96.5 -118q-41 -53 -78.5 -119.5t-66.5 -140t-46.5 -152t-17.5 -156.5q0 -74 25 -134.5t65.5 -103.5t93 -67t108.5 -24q83 0 161.5 22.5t150.5 62t136 92t118.5 113.5t97 127t72.5 131q14 31 25.5 72t19 86t12 91 t5.5 87v23q0 27 -1 50q-3 32 -9 50q-11 31 -42 68.5t-82 69.5t-121.5 54t-161.5 22zM1582 927q0 -65 -19.5 -143.5t-56.5 -161t-91 -164.5t-122 -153q-109 -114 -200.5 -187t-181 -115t-183.5 -58.5t-207 -16.5q-57 0 -109.5 21.5t-98 58t-82.5 85.5t-63.5 103t-41 111 t-14.5 110q0 96 28 210t80.5 229t127.5 222.5t168 190t202.5 132.5t231.5 50q22 0 54 -0.5t70 -3.5t80 -8.5t82.5 -16t78 -26t66.5 -37.5q70 -53 110 -101.5t60.5 -99.5t25.5 -107.5t5 -123.5zM1307 1804q0 -100 -99 -100q-33 0 -57 24t-24 57q0 43 22 56t82 30q17 5 23 5 q26 0 39.5 -21t13.5 -51zM934 1714q0 -41 -90 -41q-21 0 -61 14q-39 13 -39 35q0 24 2.5 44.5t9 36t19 24t32.5 8.5q58 0 92.5 -32t34.5 -89z" />
<glyph unicode="&#xd7;" horiz-adv-x="1169" d="M1012 143q0 -18 -15 -43q-15 -24 -32 -24q-55 0 -86 33q-27 27 -63 72q-36 46 -58 67q-35 34 -87 102q-53 67 -75 90q-10 -2 -76 -77q-68 -78 -74 -82l-34 -35l-45 -49l-44 -47l-32 -33q-26 -27 -45 -27t-44 24q-24 25 -24 46q0 22 33 55q7 7 27 25l54 46q67 58 93 99 q10 15 67 72q58 58 58 67q0 6 -39 47l-87 87l-50 48l-56 54l-44 42l-17 17q-20 26 -20 49q0 30 21 50t52 20q14 0 25 -8l53 -38q28 -20 41 -40q38 -57 89.5 -119t117.5 -131q28 16 137 129q16 18 60 75q43 57 78 89.5t71 32.5q23 0 43.5 -13.5t20.5 -33.5q0 -45 -27 -76 q-8 -9 -95 -84l-78 -68l-64 -57q-56 -53 -56 -66q0 -6 39 -46l33 -34l22 -22q8 -8 25 -28t43 -54t49 -61t43 -47l33 -28q14 -12 22.5 -22.5t12.5 -21t4 -23.5z" />
<glyph unicode="&#xd8;" horiz-adv-x="1745" d="M1706 852q0 -73 -26 -147.5t-69.5 -144.5t-99.5 -131t-116 -106q-46 -35 -97 -70t-103.5 -67t-105.5 -59.5t-102 -48.5q-34 -14 -85 -25t-106 -20l-106 -17q-52 -8 -88 -18q-23 -15 -38.5 -31t-24.5 -33l-23 -44q-14 -27 -26 -55l-23 -53q-11 -26 -16 -39 q-11 -30 -24.5 -57.5t-24.5 -45.5q-27 -35 -115 -35q-76 0 -76 86l62 91q31 48 56.5 91.5t44 79.5t25.5 57q-7 17 -18.5 32.5t-30.5 29.5q-60 43 -106.5 96t-79 111t-49.5 117.5t-17 115.5q0 34 9 78t23.5 89t32.5 87.5t36 74.5q92 155 203.5 286t245.5 231q160 119 368 119 q31 0 61.5 -18t50.5 -46q22 31 44 68t45 82q11 22 21 46l20 45q10 22 19.5 40.5t18.5 30.5q16 20 34 27.5t48 7.5q12 0 24.5 -3t23 -8.5t17.5 -13t7 -16.5t-3 -23.5t-9.5 -33t-16.5 -40t-24 -42.5l-46 -71l-41 -65q-20 -32 -37.5 -65t-34.5 -71q118 -14 207 -65t163 -145 q14 -19 31 -51t32 -67.5t25 -69.5t10 -58zM1545 795q0 53 -14.5 101t-41 89t-63.5 73.5t-81 55.5q-107 54 -173 54q-6 0 -18 -18q-13 -18 -30 -50l-38 -74l-44 -90l-46 -100l-42 -88l-43 -90q-23 -46 -53 -100l-38 -72l-33 -64l-33 -60l-36 -65q-25 -42 -43 -77t-18 -50 q0 -14 37 -14q24 0 61 7t76.5 17t76 22t57.5 23q29 13 62 33l67 40l68 42l63 39q55 33 112 86t103 111.5t75.5 116.5t29.5 102zM1025 1253q10 9 20 27l14 25q-28 14 -58 14q-53 0 -111 -20t-116 -54t-112.5 -78.5t-98.5 -93.5q-28 -31 -60 -72.5t-63.5 -89t-61 -98.5 t-51.5 -101.5t-35.5 -98t-13.5 -87.5q0 -27 2.5 -49.5t8 -44.5t15 -44t23.5 -48q28 -52 71 -83.5t91 -31.5l31 51l36 61l39 63l35 60l34 60l34 64q34 66 62 128l54 124l55 124q28 62 63 130z" />
<glyph unicode="&#xd9;" horiz-adv-x="1582" d="M1403 485q-11 -59 -31.5 -111.5t-52.5 -102t-77 -96t-105 -91.5q-30 -23 -78.5 -42.5t-103 -33t-110.5 -21t-102 -7.5q-42 0 -96.5 12t-108 31.5t-100 43.5t-71.5 47q-50 47 -85.5 106t-58.5 125t-33.5 135.5t-10.5 137.5q0 57 9 126.5t22 141.5l26 140q14 70 22 127 l10 59l14 88l14 86q8 42 13 60q12 40 39 66t63 26q14 0 28 -15t25 -35t18 -40t7 -31q0 -6 -4.5 -25.5t-11.5 -45.5l-15 -55l-16 -55l-12 -44q-5 -19 -6 -25q-4 -22 -10 -63l-15 -92l-16 -106q-8 -56 -14.5 -108.5t-10.5 -97t-4 -71.5q0 -154 55 -289q14 -34 53.5 -68.5 t88.5 -62t98 -44.5t81 -17q85 0 153.5 7.5t123.5 30t96.5 62.5t73.5 105q25 52 38.5 104t20.5 102t10 97.5t8 89.5q9 77 13 158l8 156q4 77 11 145t21 121q22 82 49 115q26 35 73 35q20 0 33 -9t21 -24.5t11 -35.5t3 -42q0 -39 -6.5 -92.5t-15 -109t-17.5 -107.5l-16 -85 q-8 -49 -9.5 -103.5t-3.5 -115t-7 -127.5t-19 -140zM1073 1703q0 -26 -22 -47.5t-53 -21.5q-4 0 -20 7t-34 22l-34 27l-46 40l-48 38l-33 26l-33 23l-61 41q-140 89 -140 139q0 9 7 19t16.5 19t20.5 15t19 6q15 0 36.5 -8.5t47.5 -27.5q32 -24 55 -43l45 -38l47 -39 q25 -20 61 -45l68 -47l50 -34q51 -35 51 -71z" />
<glyph unicode="&#xda;" horiz-adv-x="1582" d="M1403 485q-11 -59 -31.5 -111.5t-52.5 -102t-77 -96t-105 -91.5q-30 -23 -78.5 -42.5t-103 -33t-110.5 -21t-102 -7.5q-42 0 -96.5 12t-108 31.5t-100 43.5t-71.5 47q-50 47 -85.5 106t-58.5 125t-33.5 135.5t-10.5 137.5q0 57 9 126.5t22 141.5l26 140q14 70 22 127 l10 59l14 88l14 86q8 42 13 60q12 40 39 66t63 26q14 0 28 -15t25 -35t18 -40t7 -31q0 -6 -4.5 -25.5t-11.5 -45.5l-15 -55l-16 -55l-12 -44q-5 -19 -6 -25q-4 -22 -10 -63l-15 -92l-16 -106q-8 -56 -14.5 -108.5t-10.5 -97t-4 -71.5q0 -154 55 -289q14 -34 53.5 -68.5 t88.5 -62t98 -44.5t81 -17q85 0 153.5 7.5t123.5 30t96.5 62.5t73.5 105q25 52 38.5 104t20.5 102t10 97.5t8 89.5q9 77 13 158l8 156q4 77 11 145t21 121q22 82 49 115q26 35 73 35q20 0 33 -9t21 -24.5t11 -35.5t3 -42q0 -39 -6.5 -92.5t-15 -109t-17.5 -107.5l-16 -85 q-8 -49 -9.5 -103.5t-3.5 -115t-7 -127.5t-19 -140zM1333 1890q0 -11 -17 -31q-7 -8 -35 -26l-66 -42l-76 -48q-40 -24 -67 -43l-89 -63q-44 -31 -88 -59q0 -1 -8 -5l-17 -10l-17 -10q-8 -4 -9 -5q-13 0 -24.5 6.5t-20 16t-13.5 21.5t-5 23q0 43 127 133q126 89 224 144 q34 19 53 31.5t34 23.5q14 11 29 17t29 6q4 0 13.5 -7t19 -18.5t16.5 -25.5t7 -29z" />
<glyph unicode="&#xdb;" horiz-adv-x="1582" d="M1403 485q-11 -59 -31.5 -111.5t-52.5 -102t-77 -96t-105 -91.5q-30 -23 -78.5 -42.5t-103 -33t-110.5 -21t-102 -7.5q-42 0 -96.5 12t-108 31.5t-100 43.5t-71.5 47q-50 47 -85.5 106t-58.5 125t-33.5 135.5t-10.5 137.5q0 57 9 126.5t22 141.5l26 140q14 70 22 127 l10 59l14 88l14 86q8 42 13 60q12 40 39 66t63 26q14 0 28 -15t25 -35t18 -40t7 -31q0 -6 -4.5 -25.5t-11.5 -45.5l-15 -55l-16 -55l-12 -44q-5 -19 -6 -25q-4 -22 -10 -63l-15 -92l-16 -106q-8 -56 -14.5 -108.5t-10.5 -97t-4 -71.5q0 -154 55 -289q14 -34 53.5 -68.5 t88.5 -62t98 -44.5t81 -17q85 0 153.5 7.5t123.5 30t96.5 62.5t73.5 105q25 52 38.5 104t20.5 102t10 97.5t8 89.5q9 77 13 158l8 156q4 77 11 145t21 121q22 82 49 115q26 35 73 35q20 0 33 -9t21 -24.5t11 -35.5t3 -42q0 -39 -6.5 -92.5t-15 -109t-17.5 -107.5l-16 -85 q-8 -49 -9.5 -103.5t-3.5 -115t-7 -127.5t-19 -140zM1329 1721q0 -22 -17.5 -42t-39.5 -20q-14 0 -29 10.5t-29.5 26.5t-27.5 33.5t-23 32.5q-20 31 -66 87q-46 58 -65 95l-11 21l-11 20.5t-11 15.5t-12 6q-10 0 -18 -8q-50 -50 -84 -87l-32 -35l-30 -33l-42 -46l-70 -75 q-29 -29 -54 -29q-51 0 -51 86q0 39 15 51l98 91q40 38 76 69q70 60 118 117q57 69 97 69q20 0 50 -46q31 -47 71 -122t53 -90q5 -5 23 -25l46 -51q60 -66 62 -71q14 -36 14 -51z" />
<glyph unicode="&#xdc;" horiz-adv-x="1582" d="M1403 485q-11 -59 -31.5 -111.5t-52.5 -102t-77 -96t-105 -91.5q-30 -23 -78.5 -42.5t-103 -33t-110.5 -21t-102 -7.5q-42 0 -96.5 12t-108 31.5t-100 43.5t-71.5 47q-50 47 -85.5 106t-58.5 125t-33.5 135.5t-10.5 137.5q0 57 9 126.5t22 141.5l26 140q14 70 22 127 l10 59l14 88l14 86q8 42 13 60q12 40 39 66t63 26q14 0 28 -15t25 -35t18 -40t7 -31q0 -6 -4.5 -25.5t-11.5 -45.5l-15 -55l-16 -55l-12 -44q-5 -19 -6 -25q-4 -22 -10 -63l-15 -92l-16 -106q-8 -56 -14.5 -108.5t-10.5 -97t-4 -71.5q0 -154 55 -289q14 -34 53.5 -68.5 t88.5 -62t98 -44.5t81 -17q85 0 153.5 7.5t123.5 30t96.5 62.5t73.5 105q25 52 38.5 104t20.5 102t10 97.5t8 89.5q9 77 13 158l8 156q4 77 11 145t21 121q22 82 49 115q26 35 73 35q20 0 33 -9t21 -24.5t11 -35.5t3 -42q0 -39 -6.5 -92.5t-15 -109t-17.5 -107.5l-16 -85 q-8 -49 -9.5 -103.5t-3.5 -115t-7 -127.5t-19 -140zM1231 1801q0 -100 -99 -100q-33 0 -57 24t-24 57q0 43 22 56t82 30q17 5 23 5q26 0 39.5 -21t13.5 -51zM858 1711q0 -41 -90 -41q-21 0 -61 14q-39 13 -39 35q0 24 2.5 44.5t9 36t19 24t32.5 8.5q58 0 92.5 -32t34.5 -89z " />
<glyph unicode="&#xdd;" horiz-adv-x="1395" d="M1440 1679q0 -5 -2 -17t-4 -22q-8 -43 -57.5 -109.5t-131.5 -166.5l-63 -77l-84 -105l-44 -56l-40 -54l-37 -54l-39 -60q-2 -5 -15.5 -26.5t-36.5 -61.5q-45 -76 -77 -114q-2 -35 -3.5 -73t-3.5 -80t-3.5 -77.5t-3.5 -65.5l-6 -120q-3 -60 -9 -156q-8 -155 -12 -174 q-5 -20 -46 -44q-40 -25 -63 -25q-29 0 -59 36q-29 35 -29 64q0 58 18 193q19 134 27 212q21 204 21 273q0 45 -19 82q-48 26 -97.5 71t-94.5 96l-50 58l-62 74l-50 62q-18 22 -20 24q-12 15 -32 36l-45 48l-45 49l-34 35q-29 29 -29 49q0 19 54 48q55 30 75 30q22 0 47 -16 t55.5 -47.5t69.5 -78.5l88 -110l89 -111q40 -47 73 -78.5t60.5 -47t52.5 -15.5q1 0 33 35q16 17 24.5 27t10.5 12l72 88l50 62l49 63l67 87l70 93l57 75l52 71l54 75q24 37 41.5 54.5t46.5 17.5q32 0 61 -15q29 -14 29 -43zM1102 1947q0 -11 -17 -31q-7 -8 -35 -26l-66 -42 l-76 -48q-40 -24 -67 -43l-89 -63q-44 -31 -88 -59q0 -1 -8 -5l-17 -10l-17 -10q-8 -4 -9 -5q-13 0 -24.5 6.5t-20 16t-13.5 21.5t-5 23q0 43 127 133q126 89 224 144q34 19 53 31.5t34 23.5q14 11 29 17t29 6q4 0 13.5 -7t19 -18.5t16.5 -25.5t7 -29z" />
<glyph unicode="&#xde;" horiz-adv-x="1620" d="M1645 944q0 -91 -87 -182q-86 -90 -220 -164q-66 -37 -132 -66.5t-133 -52.5t-122.5 -36t-100.5 -17q-55 -4 -174 -41l-92 -27l-41 -12q-39 -8 -95 -27q-57 -20 -63 -36q-23 -69 -23 -115q0 -7 1.5 -25.5t3.5 -47.5q6 -59 6 -85q0 -53 -15 -75.5t-65 -22.5q-52 0 -87 53 q-34 52 -34 109q0 48 19 146q10 51 15 82l7 44l15 110q7 50 14 90q8 42 18 83t23 84q10 31 16 64.5t9 61.5l7 67q4 38 7 71q16 153 57 323q13 58 21.5 102t13.5 93q5 64 16 88q7 15 14.5 23.5t17 13t22.5 5.5t32 1q18 0 35.5 -3.5t31.5 -10.5t22.5 -18.5t8.5 -26.5 q0 -30 -18 -91q-18 -62 -18 -94t49 -32q19 0 46.5 0.5t65.5 1.5t65.5 1.5t45.5 0.5q49 0 104 -11q26 -5 58.5 -13t70.5 -19q38 -10 69 -17t56 -12q105 -18 202 -58q99 -39 167 -110t68 -170zM1477 920q0 75 -101 129q-51 28 -112.5 49.5t-134.5 38.5t-144 29t-143 20 q-71 8 -125.5 12t-93.5 4q-33 0 -61 -13t-36 -40q-18 -69 -18 -86q0 -57 -15 -128.5t-43 -168.5q-29 -96 -39 -138q-10 -39 -10 -73q0 -48 21 -61q8 -5 50 -5h36q71 0 189 37q119 37 155 45l98 17q42 8 68 18l100 38q49 19 94.5 40t85.5 45.5t72 54.5q8 8 21.5 24t33.5 42 l35 35q16 16 17 35z" />
<glyph unicode="&#xdf;" horiz-adv-x="1139" d="M1055 387q0 -105 -73 -196t-183 -143t-213 -52q-74 0 -129 47q-54 46 -54 123q0 73 16 98q17 26 44 33q18 -55 50 -113q33 -57 69 -57q56 0 133 28q78 28 108 66q31 37 60 94q30 58 30 95q0 142 -251 270q-15 7 -37 10t-44.5 5t-43 4.5t-33.5 9.5q-20 9 -37 48 q-16 38 -16 64q0 22 12 40.5t30.5 32t41.5 22t45 10.5q80 11 138 49q60 42 126 106q31 33 39 60q8 30 8 73v27q0 88 -49 130t-137 42q-29 0 -68 -24q-40 -24 -57 -46q-66 -80 -115 -237q-51 -160 -81.5 -325t-51.5 -324l-10 -78q-4 -37 -9 -72l-11 -75l-12 -88 q-7 -48 -15 -94t-18 -94q-9 -48 -17 -85t-15 -64q-9 -42 -33.5 -95t-58 -99.5t-74 -77.5t-82.5 -29q-90 0 -90 37q0 10 -0.5 16t-0.5 13q0 33 20 51q6 5 18 13l32 22l32 22q12 8 18 13q41 35 77 175q36 141 42 232q6 74 18 151l11 68q4 30 8 53l21 135q7 45 10.5 79t5.5 57 q18 224 80 447q22 85 54 150q16 32 34.5 61t40.5 54t52.5 54t69.5 61q21 18 48 31.5t58 22.5t63 13.5t64 4.5q7 0 17 -0.5t23 -1.5q66 -7 109 -42t83 -101q60 -98 60 -201q0 -86 -43.5 -146t-124.5 -114q-9 -5 -31 -15l-59 -26l-111 -48q-38 -17 -37 -28q0 -8 25 -17.5 t80 -22.5q55 -12 81 -19t39 -17q36 -24 79 -91q22 -33 40.5 -68t32.5 -73q29 -76 29 -124z" />
<glyph unicode="&#xe0;" horiz-adv-x="1343" d="M1650 681q0 -12 -3 -28.5t-8.5 -33.5t-12 -32.5t-13.5 -24.5l-17 -22l-26 -29l-30 -33q-17 -18 -35 -34l-121 -110q-60 -54 -123 -95t-131 -65q-66 -24 -143 -24h-6q-37 0 -74.5 13.5t-70.5 38.5t-57 60t-34 77l-61 -63l-66 -65q-35 -33 -72 -64t-76 -57 q-22 -14 -52.5 -30t-64 -29.5t-67 -22t-60.5 -8.5q-41 0 -70.5 25.5t-49 62.5t-29 79t-9.5 75q0 66 19 135t49.5 134.5t68 124.5t73.5 105q38 48 90 95.5t108 85t110 60.5t96 23h44q24 0 47 -2.5t45 -8t40 -16.5q9 -6 21 -23t22.5 -38t17.5 -42t7 -33q0 -33 -15 -88 l-29 -126q-14 -56 -14 -116q0 -34 11 -69.5t31.5 -64.5t50 -47.5t66.5 -18.5q61 0 125 25.5t129.5 70t130.5 103t128 124.5l18 21l26 28q13 15 26 26.5t19 11.5q21 0 21 -41zM760 764q0 17 -2 42t-13 41t-26 16q-1 0 -1 -1h-32q-35 0 -67.5 -11t-63.5 -30.5t-59.5 -45 t-55.5 -53.5q-23 -23 -48.5 -57t-50 -74.5t-47.5 -85t-40 -88t-27 -84t-10 -73.5q0 -10 2.5 -26.5t8 -32t15 -26.5t23.5 -11q46 0 115 29q94 40 170.5 109.5t130.5 160.5q78 141 78 301zM866 1203q0 -26 -22 -47.5t-53 -21.5q-4 0 -20 7t-34 22l-34 27l-46 40l-48 38l-33 26 l-33 23l-61 41q-140 89 -140 139q0 9 7 19t16.5 19t20.5 15t19 6q15 0 36.5 -8.5t47.5 -27.5q32 -24 55 -43l45 -38l47 -39q25 -20 61 -45l68 -47l50 -34q51 -35 51 -71z" />
<glyph unicode="&#xe1;" horiz-adv-x="1343" d="M1650 681q0 -12 -3 -28.5t-8.5 -33.5t-12 -32.5t-13.5 -24.5l-17 -22l-26 -29l-30 -33q-17 -18 -35 -34l-121 -110q-60 -54 -123 -95t-131 -65q-66 -24 -143 -24h-6q-37 0 -74.5 13.5t-70.5 38.5t-57 60t-34 77l-61 -63l-66 -65q-35 -33 -72 -64t-76 -57 q-22 -14 -52.5 -30t-64 -29.5t-67 -22t-60.5 -8.5q-41 0 -70.5 25.5t-49 62.5t-29 79t-9.5 75q0 66 19 135t49.5 134.5t68 124.5t73.5 105q38 48 90 95.5t108 85t110 60.5t96 23h44q24 0 47 -2.5t45 -8t40 -16.5q9 -6 21 -23t22.5 -38t17.5 -42t7 -33q0 -33 -15 -88 l-29 -126q-14 -56 -14 -116q0 -34 11 -69.5t31.5 -64.5t50 -47.5t66.5 -18.5q61 0 125 25.5t129.5 70t130.5 103t128 124.5l18 21l26 28q13 15 26 26.5t19 11.5q21 0 21 -41zM760 764q0 17 -2 42t-13 41t-26 16q-1 0 -1 -1h-32q-35 0 -67.5 -11t-63.5 -30.5t-59.5 -45 t-55.5 -53.5q-23 -23 -48.5 -57t-50 -74.5t-47.5 -85t-40 -88t-27 -84t-10 -73.5q0 -10 2.5 -26.5t8 -32t15 -26.5t23.5 -11q46 0 115 29q94 40 170.5 109.5t130.5 160.5q78 141 78 301zM1102 1518q0 -11 -17 -31q-7 -8 -35 -26l-66 -42l-76 -48q-40 -24 -67 -43l-89 -63 q-44 -31 -88 -59q0 -1 -8 -5l-17 -10l-17 -10q-8 -4 -9 -5q-13 0 -24.5 6.5t-20 16t-13.5 21.5t-5 23q0 43 127 133q126 89 224 144q34 19 53 31.5t34 23.5q14 11 29 17t29 6q4 0 13.5 -7t19 -18.5t16.5 -25.5t7 -29z" />
<glyph unicode="&#xe2;" horiz-adv-x="1343" d="M1650 681q0 -12 -3 -28.5t-8.5 -33.5t-12 -32.5t-13.5 -24.5l-17 -22l-26 -29l-30 -33q-17 -18 -35 -34l-121 -110q-60 -54 -123 -95t-131 -65q-66 -24 -143 -24h-6q-37 0 -74.5 13.5t-70.5 38.5t-57 60t-34 77l-61 -63l-66 -65q-35 -33 -72 -64t-76 -57 q-22 -14 -52.5 -30t-64 -29.5t-67 -22t-60.5 -8.5q-41 0 -70.5 25.5t-49 62.5t-29 79t-9.5 75q0 66 19 135t49.5 134.5t68 124.5t73.5 105q38 48 90 95.5t108 85t110 60.5t96 23h44q24 0 47 -2.5t45 -8t40 -16.5q9 -6 21 -23t22.5 -38t17.5 -42t7 -33q0 -33 -15 -88 l-29 -126q-14 -56 -14 -116q0 -34 11 -69.5t31.5 -64.5t50 -47.5t66.5 -18.5q61 0 125 25.5t129.5 70t130.5 103t128 124.5l18 21l26 28q13 15 26 26.5t19 11.5q21 0 21 -41zM760 764q0 17 -2 42t-13 41t-26 16q-1 0 -1 -1h-32q-35 0 -67.5 -11t-63.5 -30.5t-59.5 -45 t-55.5 -53.5q-23 -23 -48.5 -57t-50 -74.5t-47.5 -85t-40 -88t-27 -84t-10 -73.5q0 -10 2.5 -26.5t8 -32t15 -26.5t23.5 -11q46 0 115 29q94 40 170.5 109.5t130.5 160.5q78 141 78 301zM1063 1133q0 -22 -17.5 -42t-39.5 -20q-14 0 -29 10.5t-29.5 26.5t-27.5 33.5 t-23 32.5q-20 31 -66 87q-46 58 -65 95l-11 21l-11 20.5t-11 15.5t-12 6q-10 0 -18 -8q-50 -50 -84 -87l-32 -35l-30 -33l-42 -46l-70 -75q-29 -29 -54 -29q-51 0 -51 86q0 39 15 51l98 91q40 38 76 69q70 60 118 117q57 69 97 69q20 0 50 -46q31 -47 71 -122t53 -90 q5 -5 23 -25l46 -51q60 -66 62 -71q14 -36 14 -51z" />
<glyph unicode="&#xe3;" horiz-adv-x="1343" d="M1650 681q0 -12 -3 -28.5t-8.5 -33.5t-12 -32.5t-13.5 -24.5l-17 -22l-26 -29l-30 -33q-17 -18 -35 -34l-121 -110q-60 -54 -123 -95t-131 -65q-66 -24 -143 -24h-6q-37 0 -74.5 13.5t-70.5 38.5t-57 60t-34 77l-61 -63l-66 -65q-35 -33 -72 -64t-76 -57 q-22 -14 -52.5 -30t-64 -29.5t-67 -22t-60.5 -8.5q-41 0 -70.5 25.5t-49 62.5t-29 79t-9.5 75q0 66 19 135t49.5 134.5t68 124.5t73.5 105q38 48 90 95.5t108 85t110 60.5t96 23h44q24 0 47 -2.5t45 -8t40 -16.5q9 -6 21 -23t22.5 -38t17.5 -42t7 -33q0 -33 -15 -88 l-29 -126q-14 -56 -14 -116q0 -34 11 -69.5t31.5 -64.5t50 -47.5t66.5 -18.5q61 0 125 25.5t129.5 70t130.5 103t128 124.5l18 21l26 28q13 15 26 26.5t19 11.5q21 0 21 -41zM760 764q0 17 -2 42t-13 41t-26 16q-1 0 -1 -1h-32q-35 0 -67.5 -11t-63.5 -30.5t-59.5 -45 t-55.5 -53.5q-23 -23 -48.5 -57t-50 -74.5t-47.5 -85t-40 -88t-27 -84t-10 -73.5q0 -10 2.5 -26.5t8 -32t15 -26.5t23.5 -11q46 0 115 29q94 40 170.5 109.5t130.5 160.5q78 141 78 301zM1113 1329q0 -26 -26 -70q-13 -22 -28.5 -43t-34.5 -43q-38 -43 -61 -57t-55 -14 q-36 0 -65 6.5t-52 20.5q-11 7 -25.5 18t-33.5 27l-28 24q-10 8 -11 10q-15 14 -27.5 27t-24.5 23t-26 16t-33 6q-18 0 -33 -6t-30 -18t-31.5 -30t-36.5 -42l-35 -42q-15 -18 -28.5 -29.5t-27 -17t-28.5 -5.5q-20 0 -31.5 14t-11.5 35q0 42 48 107q50 65 112 114 q64 49 107 49q65 0 96 -14q16 -7 32.5 -20t35.5 -32t35 -33t30 -24l28 -20l29 -20q14 -10 27.5 -16.5t23.5 -6.5q26 0 48 20.5t43 50.5l22 30l22 29q23 29 37 29q23 0 35.5 -14.5t12.5 -38.5z" />
<glyph unicode="&#xe4;" horiz-adv-x="1343" d="M1650 681q0 -12 -3 -28.5t-8.5 -33.5t-12 -32.5t-13.5 -24.5l-17 -22l-26 -29l-30 -33q-17 -18 -35 -34l-121 -110q-60 -54 -123 -95t-131 -65q-66 -24 -143 -24h-6q-37 0 -74.5 13.5t-70.5 38.5t-57 60t-34 77l-61 -63l-66 -65q-35 -33 -72 -64t-76 -57 q-22 -14 -52.5 -30t-64 -29.5t-67 -22t-60.5 -8.5q-41 0 -70.5 25.5t-49 62.5t-29 79t-9.5 75q0 66 19 135t49.5 134.5t68 124.5t73.5 105q38 48 90 95.5t108 85t110 60.5t96 23h44q24 0 47 -2.5t45 -8t40 -16.5q9 -6 21 -23t22.5 -38t17.5 -42t7 -33q0 -33 -15 -88 l-29 -126q-14 -56 -14 -116q0 -34 11 -69.5t31.5 -64.5t50 -47.5t66.5 -18.5q61 0 125 25.5t129.5 70t130.5 103t128 124.5l18 21l26 28q13 15 26 26.5t19 11.5q21 0 21 -41zM760 764q0 17 -2 42t-13 41t-26 16q-1 0 -1 -1h-32q-35 0 -67.5 -11t-63.5 -30.5t-59.5 -45 t-55.5 -53.5q-23 -23 -48.5 -57t-50 -74.5t-47.5 -85t-40 -88t-27 -84t-10 -73.5q0 -10 2.5 -26.5t8 -32t15 -26.5t23.5 -11q46 0 115 29q94 40 170.5 109.5t130.5 160.5q78 141 78 301zM983 1317q0 -100 -99 -100q-33 0 -57 24t-24 57q0 43 22 56t82 30q17 5 23 5 q26 0 39.5 -21t13.5 -51zM610 1227q0 -41 -90 -41q-21 0 -61 14q-39 13 -39 35q0 24 2.5 44.5t9 36t19 24t32.5 8.5q58 0 92.5 -32t34.5 -89z" />
<glyph unicode="&#xe5;" horiz-adv-x="1343" d="M1650 681q0 -12 -3 -28.5t-8.5 -33.5t-12 -32.5t-13.5 -24.5l-17 -22l-26 -29l-30 -33q-17 -18 -35 -34l-121 -110q-60 -54 -123 -95t-131 -65q-66 -24 -143 -24h-6q-37 0 -74.5 13.5t-70.5 38.5t-57 60t-34 77l-61 -63l-66 -65q-35 -33 -72 -64t-76 -57 q-22 -14 -52.5 -30t-64 -29.5t-67 -22t-60.5 -8.5q-41 0 -70.5 25.5t-49 62.5t-29 79t-9.5 75q0 66 19 135t49.5 134.5t68 124.5t73.5 105q38 48 90 95.5t108 85t110 60.5t96 23h44q24 0 47 -2.5t45 -8t40 -16.5q9 -6 21 -23t22.5 -38t17.5 -42t7 -33q0 -33 -15 -88 l-29 -126q-14 -56 -14 -116q0 -34 11 -69.5t31.5 -64.5t50 -47.5t66.5 -18.5q61 0 125 25.5t129.5 70t130.5 103t128 124.5l18 21l26 28q13 15 26 26.5t19 11.5q21 0 21 -41zM760 764q0 17 -2 42t-13 41t-26 16q-1 0 -1 -1h-32q-35 0 -67.5 -11t-63.5 -30.5t-59.5 -45 t-55.5 -53.5q-23 -23 -48.5 -57t-50 -74.5t-47.5 -85t-40 -88t-27 -84t-10 -73.5q0 -10 2.5 -26.5t8 -32t15 -26.5t23.5 -11q46 0 115 29q94 40 170.5 109.5t130.5 160.5q78 141 78 301zM962 1355q1 -48 -23.5 -94t-64.5 -82t-90 -57.5t-98 -20.5q-94 0 -159 62 q-65 63 -65 159q-2 36 14.5 73t43 68t60.5 54t69 32q59 17 115 17q30 0 78 -23q47 -22 67 -45q14 -15 34 -68q19 -50 19 -75zM835 1336q0 20 -12 56q-10 35 -23 43q-11 6 -34 12q-24 6 -33 6q-10 -1 -16 -1h-12q-6 0 -13 -2t-19 -3q-16 -2 -30 -15.5t-24.5 -32.5t-16.5 -41 t-6 -40q0 -40 32 -81q31 -40 70 -40q18 0 47 12t43 23q47 36 47 104z" />
<glyph unicode="&#xe6;" horiz-adv-x="1493" d="M1765 598q0 -70 -112 -176q-57 -54 -111 -100t-108 -84q-41 -29 -87 -57.5t-98 -57.5q-61 -31 -109 -50.5t-91 -19.5q-127 0 -191 39q-81 49 -119.5 118t-38.5 163q1 18 1.5 33.5t0.5 39.5q0 29 -4 29q-5 0 -14 -24q-5 -12 -8.5 -22.5t-7.5 -20.5q-23 -51 -50.5 -102 t-61.5 -104q-65 -104 -155 -183q-89 -78 -182 -78q-25 0 -61 30q-37 31 -47 54q-13 26 -20 70q-4 23 -5.5 43.5t-1.5 39.5q0 131 52 286q52 156 126 277q58 97 157 178q98 82 193 82q90 0 164 -23q72 -23 72 -95q0 -11 -2.5 -44t-7.5 -87q30 46 74 101q22 28 46.5 52.5 t50.5 46.5q52 45 91 45q15 0 37.5 -2t51.5 -6t50.5 -8t34.5 -8q10 -1 28.5 -20.5t36.5 -45t31 -50.5t12 -36q0 -57 -23.5 -109t-68.5 -87q-34 -26 -73 -50.5t-85 -47.5q-46 -22 -86.5 -36.5t-76.5 -21.5q-4 -2 -37 -12q-35 -11 -49 -11q-18 0 -28.5 -14t-10.5 -35 q0 -51 15.5 -86t55.5 -63q16 -10 34 -18.5t40 -16.5q45 -14 72 -14q94 0 216 62q123 63 208 136q31 27 65 61l74 74q6 8 21 24l39 43q48 52 57 52q8 0 16 -20q8 -21 8 -33zM1233 786q1 14 -9.5 27.5t-26.5 24t-33.5 16.5t-30.5 6q-29 0 -54 -18q-54 -37 -125 -123 q-71 -88 -71 -139q70 0 153 33q84 35 135 83q62 57 62 90zM696 768q0 61 -12 78q-16 22 -43 22q-52 0 -100.5 -20t-81.5 -60q-5 -4 -16 -20l-28 -41q-17 -23 -32 -47l-27 -44q-12 -20 -19.5 -34.5t-8.5 -21.5l-16 -49q-9 -27 -21 -59l-21 -56l-13 -37q-9 -28 -17.5 -73 t-8.5 -109q0 -99 35 -99q39 0 118 91q41 46 68.5 82.5t43.5 62.5l57 106l68 136q75 151 75 192z" />
<glyph unicode="&#xe7;" horiz-adv-x="1075" d="M575 -373q0 -67 -78 -116q-27 -18 -51 -30.5t-48.5 -20.5t-51.5 -11.5t-60 -3.5q-1 0 -69 20l-51 15q-18 5 -19 6q-51 21 -51 65q0 12 4.5 24t12 21.5t17.5 16t21 6.5q18 0 49 -20q30 -20 45 -27q16 -8 53 -8q64 0 113 29q49 28 49 90q0 36 -22 62t-58 26q-15 0 -45 -12 q-29 -13 -47 -13q-53 0 -53 49l49 127l31 82q-51 12 -91 42t-67.5 72t-41.5 94.5t-13 109.5q0 133 56.5 266t150.5 262q51 68 123 130q71 62 129 62q31 0 71 -52q20 -26 38 -55.5t33 -62.5q30 -65 29 -94q0 -29 -17 -75q-18 -46 -43 -46q-36 0 -60 49q-12 25 -17.5 42.5 t-12.5 37.5q-23 60 -39 86q-66 -12 -110 -65q-21 -26 -43.5 -62.5t-47.5 -82.5q-20 -36 -37 -81t-29 -92.5t-19 -95t-7 -88.5q0 -58 50 -113q51 -53 110 -53q128 0 243 45t221 120q105 73 213 171l103 93l92 83q73 64 121 64q14 0 14 -27q0 -36 -26 -65q-9 -10 -28 -26.5 t-34 -31.5l-92 -92l-49 -47l-39 -35l-69 -57l-94 -78q-104 -86 -192 -141q-80 -50 -170 -81t-190 -36q-3 -8 -7.5 -16.5t-9.5 -16.5q-13 -27 -20 -84q24 -21 79 -37q31 -6 50 -22q49 -40 49 -195z" />
<glyph unicode="&#xe8;" horiz-adv-x="1078" d="M1395 690q0 -15 -22 -53q-52 -75 -116.5 -150t-137 -142.5t-151 -126t-158.5 -101t-160 -65.5q-76 -22 -147 -22h-6q-160 0 -248.5 93t-88.5 281q0 157 48.5 305t165.5 285q22 24 49.5 46t58 39t63 27t65.5 12q8 0 22 -2t30 -7t31 -12.5t24 -18.5q28 -32 44.5 -66 t18.5 -75v-13q0 -39 -10 -78q-13 -44 -42.5 -90.5t-77.5 -96t-116 -106.5l-96 -79q-52 -44 -126 -92q0 -97 58.5 -147.5t160.5 -50.5q57 0 115 15t114 39.5t108.5 56t98.5 64.5q85 62 154 123.5t137 129.5l54 54q49 43 71 43q12 0 12 -19zM626 918q-3 15 -10 26t-16 17.5 t-21 6.5q-53 -3 -106 -64.5t-100 -162.5q-11 -22 -19.5 -49.5t-16 -56t-13.5 -56.5l-9 -50l96 72q44 33 82 68q24 22 49 47.5t45.5 53.5t32.5 58q11 28 11 56q0 16 -5 34zM780 1280q0 -26 -22 -47.5t-53 -21.5q-4 0 -20 7t-34 22l-34 27l-46 40l-48 38l-33 26l-33 23l-61 41 q-140 89 -140 139q0 9 7 19t16.5 19t20.5 15t19 6q15 0 36.5 -8.5t47.5 -27.5q32 -24 55 -43l45 -38l47 -39q25 -20 61 -45l68 -47l50 -34q51 -35 51 -71z" />
<glyph unicode="&#xe9;" horiz-adv-x="1078" d="M1395 690q0 -15 -22 -53q-52 -75 -116.5 -150t-137 -142.5t-151 -126t-158.5 -101t-160 -65.5q-76 -22 -147 -22h-6q-160 0 -248.5 93t-88.5 281q0 157 48.5 305t165.5 285q22 24 49.5 46t58 39t63 27t65.5 12q8 0 22 -2t30 -7t31 -12.5t24 -18.5q28 -32 44.5 -66 t18.5 -75v-13q0 -39 -10 -78q-13 -44 -42.5 -90.5t-77.5 -96t-116 -106.5l-96 -79q-52 -44 -126 -92q0 -97 58.5 -147.5t160.5 -50.5q57 0 115 15t114 39.5t108.5 56t98.5 64.5q85 62 154 123.5t137 129.5l54 54q49 43 71 43q12 0 12 -19zM626 918q-3 15 -10 26t-16 17.5 t-21 6.5q-53 -3 -106 -64.5t-100 -162.5q-11 -22 -19.5 -49.5t-16 -56t-13.5 -56.5l-9 -50l96 72q44 33 82 68q24 22 49 47.5t45.5 53.5t32.5 58q11 28 11 56q0 16 -5 34zM872 1541q0 -11 -17 -31q-7 -8 -35 -26l-66 -42l-76 -48q-40 -24 -67 -43l-89 -63q-44 -31 -88 -59 q0 -1 -8 -5l-17 -10l-17 -10q-8 -4 -9 -5q-13 0 -24.5 6.5t-20 16t-13.5 21.5t-5 23q0 43 127 133q126 89 224 144q34 19 53 31.5t34 23.5q14 11 29 17t29 6q4 0 13.5 -7t19 -18.5t16.5 -25.5t7 -29z" />
<glyph unicode="&#xea;" horiz-adv-x="1078" d="M1395 690q0 -15 -22 -53q-52 -75 -116.5 -150t-137 -142.5t-151 -126t-158.5 -101t-160 -65.5q-76 -22 -147 -22h-6q-160 0 -248.5 93t-88.5 281q0 157 48.5 305t165.5 285q22 24 49.5 46t58 39t63 27t65.5 12q8 0 22 -2t30 -7t31 -12.5t24 -18.5q28 -32 44.5 -66 t18.5 -75v-13q0 -39 -10 -78q-13 -44 -42.5 -90.5t-77.5 -96t-116 -106.5l-96 -79q-52 -44 -126 -92q0 -97 58.5 -147.5t160.5 -50.5q57 0 115 15t114 39.5t108.5 56t98.5 64.5q85 62 154 123.5t137 129.5l54 54q49 43 71 43q12 0 12 -19zM626 918q-3 15 -10 26t-16 17.5 t-21 6.5q-53 -3 -106 -64.5t-100 -162.5q-11 -22 -19.5 -49.5t-16 -56t-13.5 -56.5l-9 -50l96 72q44 33 82 68q24 22 49 47.5t45.5 53.5t32.5 58q11 28 11 56q0 16 -5 34zM988 1166q0 -22 -17.5 -42t-39.5 -20q-14 0 -29 10.5t-29.5 26.5t-27.5 33.5t-23 32.5q-20 31 -66 87 q-46 58 -65 95l-11 21l-11 20.5t-11 15.5t-12 6q-10 0 -18 -8q-50 -50 -84 -87l-32 -35l-30 -33l-42 -46l-70 -75q-29 -29 -54 -29q-51 0 -51 86q0 39 15 51l98 91q40 38 76 69q70 60 118 117q57 69 97 69q20 0 50 -46q31 -47 71 -122t53 -90q5 -5 23 -25l46 -51 q60 -66 62 -71q14 -36 14 -51z" />
<glyph unicode="&#xeb;" horiz-adv-x="1078" d="M1395 690q0 -15 -22 -53q-52 -75 -116.5 -150t-137 -142.5t-151 -126t-158.5 -101t-160 -65.5q-76 -22 -147 -22h-6q-160 0 -248.5 93t-88.5 281q0 157 48.5 305t165.5 285q22 24 49.5 46t58 39t63 27t65.5 12q8 0 22 -2t30 -7t31 -12.5t24 -18.5q28 -32 44.5 -66 t18.5 -75v-13q0 -39 -10 -78q-13 -44 -42.5 -90.5t-77.5 -96t-116 -106.5l-96 -79q-52 -44 -126 -92q0 -97 58.5 -147.5t160.5 -50.5q57 0 115 15t114 39.5t108.5 56t98.5 64.5q85 62 154 123.5t137 129.5l54 54q49 43 71 43q12 0 12 -19zM626 918q-3 15 -10 26t-16 17.5 t-21 6.5q-53 -3 -106 -64.5t-100 -162.5q-11 -22 -19.5 -49.5t-16 -56t-13.5 -56.5l-9 -50l96 72q44 33 82 68q24 22 49 47.5t45.5 53.5t32.5 58q11 28 11 56q0 16 -5 34zM882 1328q0 -100 -99 -100q-33 0 -57 24t-24 57q0 43 22 56t82 30q17 5 23 5q26 0 39.5 -21t13.5 -51 zM509 1238q0 -41 -90 -41q-21 0 -61 14q-39 13 -39 35q0 24 2.5 44.5t9 36t19 24t32.5 8.5q58 0 92.5 -32t34.5 -89z" />
<glyph unicode="&#xec;" horiz-adv-x="924" d="M1298 749q1 -21 -19.5 -64.5t-56.5 -99.5t-84 -119t-100 -124l-58 -66l-66 -68l-70 -68q-35 -33 -69 -61q-29 -24 -63.5 -44.5t-70 -36t-69 -24t-60.5 -8.5q-81 0 -134 36t-84.5 100.5t-44 153.5t-12.5 195q0 13 0.5 33t2 44.5t3.5 51.5t5 54q6 54 12 93t13 63 q14 47 59 82q46 37 96 37q27 0 27 -51q0 -34 -6.5 -77t-13.5 -85q-13 -79 -19 -141.5t-6 -108.5q0 -21 0.5 -51.5t4 -64.5t11 -68t20.5 -61.5t32.5 -44.5t48.5 -17q37 0 88 19.5t96 52.5q55 41 109 89l102 100l94 99l80 91l42 50l41 52l37 48l31 40q1 2 3.5 6.5t5.5 9t6 7.5 t6 2q14 0 21 -22q9 -21 9 -34zM607 1154q0 -26 -22 -47.5t-53 -21.5q-4 0 -20 7t-34 22l-34 27l-46 40l-48 38l-33 26l-33 23l-61 41q-140 89 -140 139q0 9 7 19t16.5 19t20.5 15t19 6q15 0 36.5 -8.5t47.5 -27.5q32 -24 55 -43l45 -38l47 -39q25 -20 61 -45l68 -47l50 -34 q51 -35 51 -71z" />
<glyph unicode="&#xed;" horiz-adv-x="924" d="M1298 749q1 -21 -19.5 -64.5t-56.5 -99.5t-84 -119t-100 -124l-58 -66l-66 -68l-70 -68q-35 -33 -69 -61q-29 -24 -63.5 -44.5t-70 -36t-69 -24t-60.5 -8.5q-81 0 -134 36t-84.5 100.5t-44 153.5t-12.5 195q0 13 0.5 33t2 44.5t3.5 51.5t5 54q6 54 12 93t13 63 q14 47 59 82q46 37 96 37q27 0 27 -51q0 -34 -6.5 -77t-13.5 -85q-13 -79 -19 -141.5t-6 -108.5q0 -21 0.5 -51.5t4 -64.5t11 -68t20.5 -61.5t32.5 -44.5t48.5 -17q37 0 88 19.5t96 52.5q55 41 109 89l102 100l94 99l80 91l42 50l41 52l37 48l31 40q1 2 3.5 6.5t5.5 9t6 7.5 t6 2q14 0 21 -22q9 -21 9 -34zM801 1458q0 -11 -17 -31q-7 -8 -35 -26l-66 -42l-76 -48q-40 -24 -67 -43l-89 -63q-44 -31 -88 -59q0 -1 -8 -5l-17 -10l-17 -10q-8 -4 -9 -5q-13 0 -24.5 6.5t-20 16t-13.5 21.5t-5 23q0 43 127 133q126 89 224 144q34 19 53 31.5t34 23.5 q14 11 29 17t29 6q4 0 13.5 -7t19 -18.5t16.5 -25.5t7 -29z" />
<glyph unicode="&#xee;" horiz-adv-x="924" d="M1298 749q1 -21 -19.5 -64.5t-56.5 -99.5t-84 -119t-100 -124l-58 -66l-66 -68l-70 -68q-35 -33 -69 -61q-29 -24 -63.5 -44.5t-70 -36t-69 -24t-60.5 -8.5q-81 0 -134 36t-84.5 100.5t-44 153.5t-12.5 195q0 13 0.5 33t2 44.5t3.5 51.5t5 54q6 54 12 93t13 63 q14 47 59 82q46 37 96 37q27 0 27 -51q0 -34 -6.5 -77t-13.5 -85q-13 -79 -19 -141.5t-6 -108.5q0 -21 0.5 -51.5t4 -64.5t11 -68t20.5 -61.5t32.5 -44.5t48.5 -17q37 0 88 19.5t96 52.5q55 41 109 89l102 100l94 99l80 91l42 50l41 52l37 48l31 40q1 2 3.5 6.5t5.5 9t6 7.5 t6 2q14 0 21 -22q9 -21 9 -34zM778 1144q0 -22 -17.5 -42t-39.5 -20q-14 0 -29 10.5t-29.5 26.5t-27.5 33.5t-23 32.5q-20 31 -66 87q-46 58 -65 95l-11 21l-11 20.5t-11 15.5t-12 6q-10 0 -18 -8q-50 -50 -84 -87l-32 -35l-30 -33l-42 -46l-70 -75q-29 -29 -54 -29 q-51 0 -51 86q0 39 15 51l98 91q40 38 76 69q70 60 118 117q57 69 97 69q20 0 50 -46q31 -47 71 -122t53 -90q5 -5 23 -25l46 -51q60 -66 62 -71q14 -36 14 -51z" />
<glyph unicode="&#xef;" horiz-adv-x="924" d="M1298 749q1 -21 -19.5 -64.5t-56.5 -99.5t-84 -119t-100 -124l-58 -66l-66 -68l-70 -68q-35 -33 -69 -61q-29 -24 -63.5 -44.5t-70 -36t-69 -24t-60.5 -8.5q-81 0 -134 36t-84.5 100.5t-44 153.5t-12.5 195q0 13 0.5 33t2 44.5t3.5 51.5t5 54q6 54 12 93t13 63 q14 47 59 82q46 37 96 37q27 0 27 -51q0 -34 -6.5 -77t-13.5 -85q-13 -79 -19 -141.5t-6 -108.5q0 -21 0.5 -51.5t4 -64.5t11 -68t20.5 -61.5t32.5 -44.5t48.5 -17q37 0 88 19.5t96 52.5q55 41 109 89l102 100l94 99l80 91l42 50l41 52l37 48l31 40q1 2 3.5 6.5t5.5 9t6 7.5 t6 2q14 0 21 -22q9 -21 9 -34zM687 1322q0 -100 -99 -100q-33 0 -57 24t-24 57q0 43 22 56t82 30q17 5 23 5q26 0 39.5 -21t13.5 -51zM314 1232q0 -41 -90 -41q-21 0 -61 14q-39 13 -39 35q0 24 2.5 44.5t9 36t19 24t32.5 8.5q58 0 92.5 -32t34.5 -89z" />
<glyph unicode="&#xf0;" horiz-adv-x="1030" d="M961 604q0 -101 -19 -149q-42 -112 -165 -208q-124 -97 -290 -188q-68 -36 -133 -36q-99 0 -164 77q-64 79 -92 188t-28 208q0 63 42 149q42 87 121 169t191 140q57 29 119 47t131 23q-10 13 -26 36l-38 57q-44 67 -78 102q-39 0 -94 -39l-56 -38l-55 -39 q-56 -38 -96 -38q-20 0 -33 25q-12 25 -12 47q0 16 25 32t73 39q48 24 78.5 48t38.5 51q-4 2 -14 7.5t-27 13.5l-31 15l-26 13l-24 14l-25 15q-25 16 -25 24q0 32 42 70q41 37 77 37q29 0 76 -29q23 -14 47 -31t49 -37q51 -39 53 -39q15 0 28.5 4.5t29.5 14.5q15 9 35 25 l47 39q27 23 48 39l35 25q28 19 60 19q22 0 32.5 -19t10.5 -46q0 -44 -39 -71q-20 -13 -48 -29t-66 -35q-74 -38 -74 -56q24 -24 45 -50t38 -51l41 -58l44 -62q17 -25 32.5 -57t29.5 -74q14 -41 24.5 -84t18.5 -90t12 -86.5t4 -73.5zM809 588q0 32 -2 61.5t-6 55.5 q-4 23 -12 54t-20 71q-22 79 -44 79q-49 0 -150 -40q-51 -20 -90.5 -38.5t-68.5 -35.5q-79 -46 -135 -142q-56 -95 -56 -159q0 -120 27 -187q11 -30 68 -74q56 -43 86 -43q40 0 138 61q51 31 81.5 55.5t42.5 41.5l28 40q14 22 37 52q3 4 10 12l15 19l16 20q8 10 12 19 q11 17 17 35.5t6 42.5z" />
<glyph unicode="&#xf1;" horiz-adv-x="1553" d="M1888 715q0 -19 -6.5 -38.5t-16 -39t-21.5 -37.5l-23 -36q-29 -45 -68 -91.5t-83.5 -90.5t-91.5 -83t-92 -69l-68 -45q-33 -21 -66 -36t-69 -24t-79 -9q-83 0 -135 42q-26 21 -45.5 54.5t-34 74.5t-25 87t-17.5 91q-9 56 -17 100.5t-18.5 75t-25.5 47t-39 16.5 q-19 0 -36 -4t-35.5 -16t-40.5 -34t-51.5 -58t-67.5 -88l-89 -124q-25 -35 -59 -77t-69.5 -80t-69.5 -67t-60 -37q-88 19 -88 219q0 53 12 161q6 49 14 102.5t20 107t27.5 104t36.5 93.5q10 20 21 31.5t22.5 17t24 7t25.5 1.5q16 0 28.5 -22t12.5 -61q0 -24 -4 -45t-11 -43 l-15 -48q-8 -25 -16 -58l-13 -60q-8 -33 -14.5 -67t-11 -66.5t-4.5 -58.5q0 -18 6 -37q28 3 92 84l72 90l86 108q34 44 67.5 82t69.5 66.5t76.5 45t89.5 16.5q52 0 86.5 -22.5t55.5 -62t32.5 -94.5t18.5 -121l12 -111q5 -55 21 -98.5t46 -70.5t86 -27q43 0 90 20t99 55.5 t107.5 83.5t114.5 105q23 22 50 56l54 64q27 31 50 53t37 22q6 0 19.5 -6t13.5 -20zM1210 1438q0 -26 -26 -70q-13 -22 -28.5 -43t-34.5 -43q-38 -43 -61 -57t-55 -14q-36 0 -65 6.5t-52 20.5q-11 7 -25.5 18t-33.5 27l-28 24q-10 8 -11 10q-15 14 -27.5 27t-24.5 23t-26 16 t-33 6q-18 0 -33 -6t-30 -18t-31.5 -30t-36.5 -42l-35 -42q-15 -18 -28.5 -29.5t-27 -17t-28.5 -5.5q-20 0 -31.5 14t-11.5 35q0 42 48 107q50 65 112 114q64 49 107 49q65 0 96 -14q16 -7 32.5 -20t35.5 -32t35 -33t30 -24l28 -20l29 -20q14 -10 27.5 -16.5t23.5 -6.5 q26 0 48 20.5t43 50.5l22 30l22 29q23 29 37 29q23 0 35.5 -14.5t12.5 -38.5z" />
<glyph unicode="&#xf2;" horiz-adv-x="1184" d="M1565 838q0 -17 -7.5 -34.5t-19.5 -34t-26.5 -31t-29.5 -23.5q-35 -23 -99.5 -40.5t-159.5 -17.5q-76 0 -153 19.5t-148 64.5q23 -35 29.5 -67t6.5 -76q0 -79 -40 -168q-39 -90 -101 -167t-131 -128q-39 -29 -85.5 -50.5t-97.5 -35t-106 -20t-111 -6.5q-39 0 -76 25 t-66 61t-46.5 77t-17.5 74q0 81 21.5 155.5t58 144t84.5 136t102 132.5q30 37 68.5 72.5t80.5 63.5t85 45.5t82 17.5q32 0 55 -9t43.5 -25.5t41.5 -41.5l50 -56q9 -9 49.5 -26.5t96 -34t116.5 -29t111 -12.5t92 3.5t81.5 11.5t78.5 22t84 34q4 -15 4 -26zM818 598v10 q0 24 -4 54q-5 35 -17.5 66.5t-33 51.5t-50.5 16q-46 18 -76 38t-46 20q-12 0 -26 -7.5t-29 -20.5t-30.5 -30.5t-30.5 -36.5l-55 -71q-26 -32 -48.5 -63.5t-43.5 -66t-42 -77.5q-9 -18 -16 -43t-12 -51.5t-7.5 -53t-2.5 -47.5q0 -13 9 -31.5t23.5 -36t33 -29.5t36.5 -12 q51 0 87 4.5t66.5 16t61.5 31.5t72 52q20 15 39.5 35t38.5 42.5t36 46t32 46.5q10 15 17 37t11 44t5.5 40t1.5 26zM897 1209q0 -26 -22 -47.5t-53 -21.5q-4 0 -20 7t-34 22l-34 27l-46 40l-48 38l-33 26l-33 23l-61 41q-140 89 -140 139q0 9 7 19t16.5 19t20.5 15t19 6 q15 0 36.5 -8.5t47.5 -27.5q32 -24 55 -43l45 -38l47 -39q25 -20 61 -45l68 -47l50 -34q51 -35 51 -71z" />
<glyph unicode="&#xf3;" horiz-adv-x="1184" d="M1565 838q0 -17 -7.5 -34.5t-19.5 -34t-26.5 -31t-29.5 -23.5q-35 -23 -99.5 -40.5t-159.5 -17.5q-76 0 -153 19.5t-148 64.5q23 -35 29.5 -67t6.5 -76q0 -79 -40 -168q-39 -90 -101 -167t-131 -128q-39 -29 -85.5 -50.5t-97.5 -35t-106 -20t-111 -6.5q-39 0 -76 25 t-66 61t-46.5 77t-17.5 74q0 81 21.5 155.5t58 144t84.5 136t102 132.5q30 37 68.5 72.5t80.5 63.5t85 45.5t82 17.5q32 0 55 -9t43.5 -25.5t41.5 -41.5l50 -56q9 -9 49.5 -26.5t96 -34t116.5 -29t111 -12.5t92 3.5t81.5 11.5t78.5 22t84 34q4 -15 4 -26zM818 598v10 q0 24 -4 54q-5 35 -17.5 66.5t-33 51.5t-50.5 16q-46 18 -76 38t-46 20q-12 0 -26 -7.5t-29 -20.5t-30.5 -30.5t-30.5 -36.5l-55 -71q-26 -32 -48.5 -63.5t-43.5 -66t-42 -77.5q-9 -18 -16 -43t-12 -51.5t-7.5 -53t-2.5 -47.5q0 -13 9 -31.5t23.5 -36t33 -29.5t36.5 -12 q51 0 87 4.5t66.5 16t61.5 31.5t72 52q20 15 39.5 35t38.5 42.5t36 46t32 46.5q10 15 17 37t11 44t5.5 40t1.5 26zM1102 1496q0 -11 -17 -31q-7 -8 -35 -26l-66 -42l-76 -48q-40 -24 -67 -43l-89 -63q-44 -31 -88 -59q0 -1 -8 -5l-17 -10l-17 -10q-8 -4 -9 -5 q-13 0 -24.5 6.5t-20 16t-13.5 21.5t-5 23q0 43 127 133q126 89 224 144q34 19 53 31.5t34 23.5q14 11 29 17t29 6q4 0 13.5 -7t19 -18.5t16.5 -25.5t7 -29z" />
<glyph unicode="&#xf4;" horiz-adv-x="1184" d="M1565 838q0 -17 -7.5 -34.5t-19.5 -34t-26.5 -31t-29.5 -23.5q-35 -23 -99.5 -40.5t-159.5 -17.5q-76 0 -153 19.5t-148 64.5q23 -35 29.5 -67t6.5 -76q0 -79 -40 -168q-39 -90 -101 -167t-131 -128q-39 -29 -85.5 -50.5t-97.5 -35t-106 -20t-111 -6.5q-39 0 -76 25 t-66 61t-46.5 77t-17.5 74q0 81 21.5 155.5t58 144t84.5 136t102 132.5q30 37 68.5 72.5t80.5 63.5t85 45.5t82 17.5q32 0 55 -9t43.5 -25.5t41.5 -41.5l50 -56q9 -9 49.5 -26.5t96 -34t116.5 -29t111 -12.5t92 3.5t81.5 11.5t78.5 22t84 34q4 -15 4 -26zM818 598v10 q0 24 -4 54q-5 35 -17.5 66.5t-33 51.5t-50.5 16q-46 18 -76 38t-46 20q-12 0 -26 -7.5t-29 -20.5t-30.5 -30.5t-30.5 -36.5l-55 -71q-26 -32 -48.5 -63.5t-43.5 -66t-42 -77.5q-9 -18 -16 -43t-12 -51.5t-7.5 -53t-2.5 -47.5q0 -13 9 -31.5t23.5 -36t33 -29.5t36.5 -12 q51 0 87 4.5t66.5 16t61.5 31.5t72 52q20 15 39.5 35t38.5 42.5t36 46t32 46.5q10 15 17 37t11 44t5.5 40t1.5 26zM1002 1149q0 -22 -17.5 -42t-39.5 -20q-14 0 -29 10.5t-29.5 26.5t-27.5 33.5t-23 32.5q-20 31 -66 87q-46 58 -65 95l-11 21l-11 20.5t-11 15.5t-12 6 q-10 0 -18 -8q-50 -50 -84 -87l-32 -35l-30 -33l-42 -46l-70 -75q-29 -29 -54 -29q-51 0 -51 86q0 39 15 51l98 91q40 38 76 69q70 60 118 117q57 69 97 69q20 0 50 -46q31 -47 71 -122t53 -90q5 -5 23 -25l46 -51q60 -66 62 -71q14 -36 14 -51z" />
<glyph unicode="&#xf5;" horiz-adv-x="1184" d="M1565 838q0 -17 -7.5 -34.5t-19.5 -34t-26.5 -31t-29.5 -23.5q-35 -23 -99.5 -40.5t-159.5 -17.5q-76 0 -153 19.5t-148 64.5q23 -35 29.5 -67t6.5 -76q0 -79 -40 -168q-39 -90 -101 -167t-131 -128q-39 -29 -85.5 -50.5t-97.5 -35t-106 -20t-111 -6.5q-39 0 -76 25 t-66 61t-46.5 77t-17.5 74q0 81 21.5 155.5t58 144t84.5 136t102 132.5q30 37 68.5 72.5t80.5 63.5t85 45.5t82 17.5q32 0 55 -9t43.5 -25.5t41.5 -41.5l50 -56q9 -9 49.5 -26.5t96 -34t116.5 -29t111 -12.5t92 3.5t81.5 11.5t78.5 22t84 34q4 -15 4 -26zM818 598v10 q0 24 -4 54q-5 35 -17.5 66.5t-33 51.5t-50.5 16q-46 18 -76 38t-46 20q-12 0 -26 -7.5t-29 -20.5t-30.5 -30.5t-30.5 -36.5l-55 -71q-26 -32 -48.5 -63.5t-43.5 -66t-42 -77.5q-9 -18 -16 -43t-12 -51.5t-7.5 -53t-2.5 -47.5q0 -13 9 -31.5t23.5 -36t33 -29.5t36.5 -12 q51 0 87 4.5t66.5 16t61.5 31.5t72 52q20 15 39.5 35t38.5 42.5t36 46t32 46.5q10 15 17 37t11 44t5.5 40t1.5 26zM1097 1384q0 -26 -26 -70q-13 -22 -28.5 -43t-34.5 -43q-38 -43 -61 -57t-55 -14q-36 0 -65 6.5t-52 20.5q-11 7 -25.5 18t-33.5 27l-28 24q-10 8 -11 10 q-15 14 -27.5 27t-24.5 23t-26 16t-33 6q-18 0 -33 -6t-30 -18t-31.5 -30t-36.5 -42l-35 -42q-15 -18 -28.5 -29.5t-27 -17t-28.5 -5.5q-20 0 -31.5 14t-11.5 35q0 42 48 107q50 65 112 114q64 49 107 49q65 0 96 -14q16 -7 32.5 -20t35.5 -32t35 -33t30 -24l28 -20l29 -20 q14 -10 27.5 -16.5t23.5 -6.5q26 0 48 20.5t43 50.5l22 30l22 29q23 29 37 29q23 0 35.5 -14.5t12.5 -38.5z" />
<glyph unicode="&#xf6;" horiz-adv-x="1184" d="M1565 838q0 -17 -7.5 -34.5t-19.5 -34t-26.5 -31t-29.5 -23.5q-35 -23 -99.5 -40.5t-159.5 -17.5q-76 0 -153 19.5t-148 64.5q23 -35 29.5 -67t6.5 -76q0 -79 -40 -168q-39 -90 -101 -167t-131 -128q-39 -29 -85.5 -50.5t-97.5 -35t-106 -20t-111 -6.5q-39 0 -76 25 t-66 61t-46.5 77t-17.5 74q0 81 21.5 155.5t58 144t84.5 136t102 132.5q30 37 68.5 72.5t80.5 63.5t85 45.5t82 17.5q32 0 55 -9t43.5 -25.5t41.5 -41.5l50 -56q9 -9 49.5 -26.5t96 -34t116.5 -29t111 -12.5t92 3.5t81.5 11.5t78.5 22t84 34q4 -15 4 -26zM818 598v10 q0 24 -4 54q-5 35 -17.5 66.5t-33 51.5t-50.5 16q-46 18 -76 38t-46 20q-12 0 -26 -7.5t-29 -20.5t-30.5 -30.5t-30.5 -36.5l-55 -71q-26 -32 -48.5 -63.5t-43.5 -66t-42 -77.5q-9 -18 -16 -43t-12 -51.5t-7.5 -53t-2.5 -47.5q0 -13 9 -31.5t23.5 -36t33 -29.5t36.5 -12 q51 0 87 4.5t66.5 16t61.5 31.5t72 52q20 15 39.5 35t38.5 42.5t36 46t32 46.5q10 15 17 37t11 44t5.5 40t1.5 26zM905 1322q0 -100 -99 -100q-33 0 -57 24t-24 57q0 43 22 56t82 30q17 5 23 5q26 0 39.5 -21t13.5 -51zM532 1232q0 -41 -90 -41q-21 0 -61 14q-39 13 -39 35 q0 24 2.5 44.5t9 36t19 24t32.5 8.5q58 0 92.5 -32t34.5 -89z" />
<glyph unicode="&#xf7;" horiz-adv-x="1184" d="M713 963q0 -42 -19 -87q-18 -45 -53 -45q-87 0 -117 48q-28 46 -28 79q0 17 28 33q29 17 51 17q7 0 25 -9q6 -3 41 -5q35 -1 53.5 -6.5t18.5 -24.5zM1102 535q0 -9 -14 -32t-21 -24q-32 -7 -152 -7q-34 0 -62 0.5t-60 0.5q-18 0 -48 -1l-62 -2l-62 -2q-30 -1 -48 -1 q-56 0 -152 -9q-95 -9 -130 -9q-156 0 -156 79q0 42 17.5 60t56.5 18q7 0 19 0.5t24 1.5t23.5 1.5t19.5 0.5q14 0 35.5 -0.5t49.5 -1.5t49.5 -1.5t35.5 -0.5q28 0 77.5 3t122.5 8q145 12 214 12q29 0 84 -11q27 -5 46.5 -7.5t30.5 -2.5q24 0 43 -25t19 -48zM684 158 q0 -20 -5.5 -42t-16 -40.5t-26 -30.5t-36.5 -12q-34 0 -80 24q-45 24 -45 52q0 37 46 67q46 31 85 31q78 0 78 -49z" />
<glyph unicode="&#xf8;" horiz-adv-x="1194" d="M1143 670q0 -52 -21 -119.5t-63 -134.5q-40 -66 -93.5 -125t-119.5 -101q-32 -20 -80 -40t-111 -40q-124 -40 -196 -40q-19 0 -61 -48q-41 -47 -77 -104q-37 -58 -38 -72q-1 -9 -4 -20t-7 -21.5t-9 -20t-9 -13.5q-18 -20 -45 -39q-27 -21 -41 -21q-22 0 -50 25 q-28 24 -28 43q0 22 14 64q14 37 29 55q30 30 82 102q54 71 55 72q-13 19 -47 42q-33 24 -45 36q-16 17 -34 61q-17 43 -30 93q-12 49 -12 73q0 90 39 182q20 46 43.5 87t51.5 78t62 76.5t75 82.5q11 11 30.5 23.5t48.5 25.5t58.5 23.5t57.5 18t52 11.5t42 4q52 0 72 -5 q19 -5 36 -16t37 -14q4 6 15 28l29 62q37 79 66.5 127t51.5 48q39 0 60.5 -5.5t37.5 -27.5q0 -7 -7 -36q-7 -28 -7 -26q0 -6 -19 -25q-18 -18 -22 -28q-4 -8 -16 -26t-32 -44q-40 -53 -44 -75q90 -35 156 -108q67 -73 67 -148zM995 678q0 20 -11 39.5t-28.5 35.5t-39 27.5 t-42.5 16.5l-43 -69l-38 -61l-45 -72l-64 -104l-66 -108l-52 -85q-44 -74 -44 -81q0 -4 10 -4q33 0 122 30q90 32 108 50l58 63l53 61q51 62 86 129q36 70 36 132zM735 831q-29 19 -84 19q-9 0 -50 -11t-52 -16q-45 -18 -84 -48t-71.5 -67.5t-58.5 -79t-43.5 -81t-27 -75 t-8.5 -60.5q0 -64 20 -136q21 -69 72 -69q12 0 53 59q42 58 93 141l39 63q13 21 14 22q21 32 46 74l54 94l51 94q22 42 37 77z" />
<glyph unicode="&#xf9;" horiz-adv-x="1565" d="M1934 809q0 -38 -19 -86.5t-52 -90.5q-42 -54 -94.5 -107t-109.5 -101.5t-116 -90t-114.5 -72t-104.5 -48t-86 -17.5q-47 0 -82 16t-60.5 43.5t-42.5 64.5t-29.5 78t-20.5 84l-15 85l-56 -85l-66 -97l-70.5 -94.5t-66.5 -79.5q-35 -37 -76.5 -71t-88 -59.5t-97.5 -41 t-105 -15.5q-79 0 -124 65q-44 65 -44 150q0 40 6.5 83.5t15.5 86.5l16 85q8 41 11 78q1 15 1.5 37.5t0.5 52.5v50q0 22 1 42.5t3 40.5t6 42q6 34 27 59t66 25q92 0 92 -127q0 -22 -4.5 -48.5t-10.5 -55.5l-13 -58q-6 -29 -11 -57l-20 -78q-10 -39 -18.5 -76t-13.5 -71.5 t-5 -63.5q0 -15 4 -33.5t12 -35t21.5 -27.5t31.5 -11q53 0 107 29.5t103.5 73t93 93t76.5 90.5q32 41 63.5 97t59.5 116l55 121l47 108q47 110 84 110q27 0 36 -8.5t9 -34.5q0 -20 -4.5 -54t-10.5 -71t-10.5 -71t-4.5 -53q0 -17 0.5 -41.5t1.5 -50.5t3.5 -51.5t6.5 -43.5 q4 -21 14 -51.5t25.5 -59.5t37.5 -49.5t51 -20.5q54 0 122.5 32t140.5 82.5t143 113t132 123.5l49 48q24 24 44.5 40t33 21t12.5 -8zM923 1208q0 -26 -22 -47.5t-53 -21.5q-4 0 -20 7t-34 22l-34 27l-46 40l-48 38l-33 26l-33 23l-61 41q-140 89 -140 139q0 9 7 19t16.5 19 t20.5 15t19 6q15 0 36.5 -8.5t47.5 -27.5q32 -24 55 -43l45 -38l47 -39q25 -20 61 -45l68 -47l50 -34q51 -35 51 -71z" />
<glyph unicode="&#xfa;" horiz-adv-x="1565" d="M1934 809q0 -38 -19 -86.5t-52 -90.5q-42 -54 -94.5 -107t-109.5 -101.5t-116 -90t-114.5 -72t-104.5 -48t-86 -17.5q-47 0 -82 16t-60.5 43.5t-42.5 64.5t-29.5 78t-20.5 84l-15 85l-56 -85l-66 -97l-70.5 -94.5t-66.5 -79.5q-35 -37 -76.5 -71t-88 -59.5t-97.5 -41 t-105 -15.5q-79 0 -124 65q-44 65 -44 150q0 40 6.5 83.5t15.5 86.5l16 85q8 41 11 78q1 15 1.5 37.5t0.5 52.5v50q0 22 1 42.5t3 40.5t6 42q6 34 27 59t66 25q92 0 92 -127q0 -22 -4.5 -48.5t-10.5 -55.5l-13 -58q-6 -29 -11 -57l-20 -78q-10 -39 -18.5 -76t-13.5 -71.5 t-5 -63.5q0 -15 4 -33.5t12 -35t21.5 -27.5t31.5 -11q53 0 107 29.5t103.5 73t93 93t76.5 90.5q32 41 63.5 97t59.5 116l55 121l47 108q47 110 84 110q27 0 36 -8.5t9 -34.5q0 -20 -4.5 -54t-10.5 -71t-10.5 -71t-4.5 -53q0 -17 0.5 -41.5t1.5 -50.5t3.5 -51.5t6.5 -43.5 q4 -21 14 -51.5t25.5 -59.5t37.5 -49.5t51 -20.5q54 0 122.5 32t140.5 82.5t143 113t132 123.5l49 48q24 24 44.5 40t33 21t12.5 -8zM1115 1453q0 -11 -17 -31q-7 -8 -35 -26l-66 -42l-76 -48q-40 -24 -67 -43l-89 -63q-44 -31 -88 -59q0 -1 -8 -5l-17 -10l-17 -10 q-8 -4 -9 -5q-13 0 -24.5 6.5t-20 16t-13.5 21.5t-5 23q0 43 127 133q126 89 224 144q34 19 53 31.5t34 23.5q14 11 29 17t29 6q4 0 13.5 -7t19 -18.5t16.5 -25.5t7 -29z" />
<glyph unicode="&#xfb;" horiz-adv-x="1565" d="M1934 809q0 -38 -19 -86.5t-52 -90.5q-42 -54 -94.5 -107t-109.5 -101.5t-116 -90t-114.5 -72t-104.5 -48t-86 -17.5q-47 0 -82 16t-60.5 43.5t-42.5 64.5t-29.5 78t-20.5 84l-15 85l-56 -85l-66 -97l-70.5 -94.5t-66.5 -79.5q-35 -37 -76.5 -71t-88 -59.5t-97.5 -41 t-105 -15.5q-79 0 -124 65q-44 65 -44 150q0 40 6.5 83.5t15.5 86.5l16 85q8 41 11 78q1 15 1.5 37.5t0.5 52.5v50q0 22 1 42.5t3 40.5t6 42q6 34 27 59t66 25q92 0 92 -127q0 -22 -4.5 -48.5t-10.5 -55.5l-13 -58q-6 -29 -11 -57l-20 -78q-10 -39 -18.5 -76t-13.5 -71.5 t-5 -63.5q0 -15 4 -33.5t12 -35t21.5 -27.5t31.5 -11q53 0 107 29.5t103.5 73t93 93t76.5 90.5q32 41 63.5 97t59.5 116l55 121l47 108q47 110 84 110q27 0 36 -8.5t9 -34.5q0 -20 -4.5 -54t-10.5 -71t-10.5 -71t-4.5 -53q0 -17 0.5 -41.5t1.5 -50.5t3.5 -51.5t6.5 -43.5 q4 -21 14 -51.5t25.5 -59.5t37.5 -49.5t51 -20.5q54 0 122.5 32t140.5 82.5t143 113t132 123.5l49 48q24 24 44.5 40t33 21t12.5 -8zM1124 1242q0 -22 -17.5 -42t-39.5 -20q-14 0 -29 10.5t-29.5 26.5t-27.5 33.5t-23 32.5q-20 31 -66 87q-46 58 -65 95l-11 21l-11 20.5 t-11 15.5t-12 6q-10 0 -18 -8q-50 -50 -84 -87l-32 -35l-30 -33l-42 -46l-70 -75q-29 -29 -54 -29q-51 0 -51 86q0 39 15 51l98 91q40 38 76 69q70 60 118 117q57 69 97 69q20 0 50 -46q31 -47 71 -122t53 -90q5 -5 23 -25l46 -51q60 -66 62 -71q14 -36 14 -51z" />
<glyph unicode="&#xfc;" horiz-adv-x="1565" d="M1934 809q0 -38 -19 -86.5t-52 -90.5q-42 -54 -94.5 -107t-109.5 -101.5t-116 -90t-114.5 -72t-104.5 -48t-86 -17.5q-47 0 -82 16t-60.5 43.5t-42.5 64.5t-29.5 78t-20.5 84l-15 85l-56 -85l-66 -97l-70.5 -94.5t-66.5 -79.5q-35 -37 -76.5 -71t-88 -59.5t-97.5 -41 t-105 -15.5q-79 0 -124 65q-44 65 -44 150q0 40 6.5 83.5t15.5 86.5l16 85q8 41 11 78q1 15 1.5 37.5t0.5 52.5v50q0 22 1 42.5t3 40.5t6 42q6 34 27 59t66 25q92 0 92 -127q0 -22 -4.5 -48.5t-10.5 -55.5l-13 -58q-6 -29 -11 -57l-20 -78q-10 -39 -18.5 -76t-13.5 -71.5 t-5 -63.5q0 -15 4 -33.5t12 -35t21.5 -27.5t31.5 -11q53 0 107 29.5t103.5 73t93 93t76.5 90.5q32 41 63.5 97t59.5 116l55 121l47 108q47 110 84 110q27 0 36 -8.5t9 -34.5q0 -20 -4.5 -54t-10.5 -71t-10.5 -71t-4.5 -53q0 -17 0.5 -41.5t1.5 -50.5t3.5 -51.5t6.5 -43.5 q4 -21 14 -51.5t25.5 -59.5t37.5 -49.5t51 -20.5q54 0 122.5 32t140.5 82.5t143 113t132 123.5l49 48q24 24 44.5 40t33 21t12.5 -8zM1006 1317q0 -100 -99 -100q-33 0 -57 24t-24 57q0 43 22 56t82 30q17 5 23 5q26 0 39.5 -21t13.5 -51zM633 1227q0 -41 -90 -41 q-21 0 -61 14q-39 13 -39 35q0 24 2.5 44.5t9 36t19 24t32.5 8.5q58 0 92.5 -32t34.5 -89z" />
<glyph unicode="&#xfd;" horiz-adv-x="1289" d="M1167 893q0 -17 -1 -39.5t-3 -51.5q-2 -28 -4.5 -58t-5.5 -62t-5 -56.5t-3 -41.5q-7 -137 -29 -281.5t-55 -275.5q-53 -217 -154 -371q-102 -156 -282 -156q-118 0 -238 47q-119 46 -201 129q-49 58 -49 80q0 25 15 57q16 31 36 31q11 0 19 -12q34 -48 65 -76 q133 -118 346 -118q84 0 147 80q32 39 56.5 84t43.5 94t34 100t27 104l16 78q5 29 6 39q5 42 7 81t8 77q-28 -13 -115 -66l-93 -56l-75 -44q-66 -39 -149 -74q-84 -35 -138 -35q-94 0 -145 75t-51 173q0 70 15 156q8 43 16.5 80.5t18.5 70.5l23 79l33 106q10 33 22 57.5 t27.5 41t36.5 24.5t51 8q29 0 46 -33q16 -31 16 -64q0 -20 -9 -36l-14 -23l-23 -37q-14 -22 -22 -36.5t-10 -22.5l-14 -42q-6 -18 -11 -30q-4 -12 -9 -29l-12 -38q-13 -43 -18.5 -78.5t-5.5 -75.5t16 -97q17 -59 46 -59q88 0 213 51q125 52 226 135t122 167q4 12 6 36 t3.5 53.5t2.5 61.5t2.5 61.5t3.5 53t6 35.5q26 92 84 92q55 0 68 -28q14 -30 14 -95zM1154 1480q0 -11 -17 -31q-7 -8 -35 -26l-66 -42l-76 -48q-40 -24 -67 -43l-89 -63q-44 -31 -88 -59q0 -1 -8 -5l-17 -10l-17 -10q-8 -4 -9 -5q-13 0 -24.5 6.5t-20 16t-13.5 21.5t-5 23 q0 43 127 133q126 89 224 144q34 19 53 31.5t34 23.5q14 11 29 17t29 6q4 0 13.5 -7t19 -18.5t16.5 -25.5t7 -29z" />
<glyph unicode="&#xfe;" horiz-adv-x="1380" d="M1671 682q0 -30 -82 -94l-80 -60q-39 -28 -77 -51q-55 -33 -129 -71.5t-169 -83.5q-94 -45 -187 -83.5t-186 -72.5q-185 -66 -280 -66q-25 0 -47 14q-20 15 -24 15q-12 0 -21.5 -21.5t-13.5 -44.5q-19 -90 -27 -167t-12 -158q-4 -51 -9.5 -91.5t-13.5 -72.5 q-25 -106 -86 -106q-24 0 -39.5 9t-23.5 26t-11 40.5t-3 53.5q0 20 1.5 41.5t3.5 44.5t5 43l6 40q3 20 7 44l9 53q24 137 33 227q7 59 11.5 107.5t7.5 87.5l7 95l9 128q5 73 9.5 126.5t8.5 88.5q12 117 26 223t30 203q36 224 61 299q7 24 14 41t15.5 28t20.5 16t30 5 q29 0 39 -34q10 -31 10 -130q0 -118 -21 -239q-9 -60 -25 -142l-36 -188q-3 -16 -7.5 -36t-9.5 -45l-9 -44q-4 -18 -5 -31l-7 -73q-4 -32 -6 -58q-2 -24 -5 -52l-6 -58l53 103l51 94q51 88 120 183q70 96 151 162q83 68 161 68q48 0 99 -15t92.5 -44t68.5 -70.5t27 -93.5 q0 -87 -41 -155q-41 -69 -132 -161l-73 -75q-27 -28 -36 -39q26 7 65 22.5t92 38.5q221 101 406 209q7 5 29 19l58 39q74 50 77 50q26 0 26 -40v-21zM1026 784q0 15 -12.5 28.5t-30.5 24t-38.5 17t-37.5 6.5q-57 0 -122 -55q-66 -56 -126 -136q-60 -78 -111 -161l-44 -75 q-19 -34 -33 -62q-6 -14 -15 -32t-17 -36t-13.5 -33t-5.5 -24q0 -24 6 -31.5t29 -7.5q32 -1 77.5 18.5t94.5 51t97 70t87 75.5q215 206 215 362z" />
</font>
</defs>
</svg>
